<svg xmlns="http://www.w3.org/2000/svg" viewBox="0 0 222.74 97.87"><defs><style>.cls-1{fill:#6ac9ea;}.cls-2{fill:#fff;}</style></defs><g id="Layer_2" data-name="Layer 2"><g id="Ñëîé_1" data-name="Ñëîé 1"><path class="cls-1" d="M97.06,60.7c-1.49,2.86-2.45,6-3.84,9.13A47.33,47.33,0,0,1,82.78,84.27a48.94,48.94,0,1,1,7-62.27C93.47,27.57,94.9,34.2,100,38.88a26.74,26.74,0,0,0,18.37,6.81h77.37a4.25,4.25,0,0,0,3.9-2.68,12.06,12.06,0,1,1-.12,9A3.74,3.74,0,0,0,196,49.64H118.31a27.12,27.12,0,0,0-16.46,5.22A16.75,16.75,0,0,0,97.06,60.7Z"/><circle class="cls-2" cx="48.94" cy="48.94" r="38.53" transform="translate(-20.27 48.94) rotate(-45)"/><g id="Calendar"><path class="cls-1" d="M67.27,31.14H63.59V29.66a2.95,2.95,0,0,0-5.9,0v1.48h-5.9V29.66a3,3,0,0,0-5.91,0v1.48H40V29.66a3,3,0,1,0-5.9,0v1.48H30.4a3.69,3.69,0,0,0-3.69,3.69v29.5A3.69,3.69,0,0,0,30.4,68H51.05a.74.74,0,0,0,0-1.48H30.4a2.22,2.22,0,0,1-2.22-2.21V41.47H69.49V54A.74.74,0,0,0,71,54V34.83A3.69,3.69,0,0,0,67.27,31.14Zm-8.11-1.48a1.48,1.48,0,0,1,3,0v4.43a1.48,1.48,0,1,1-3,0Zm-11.8,0a1.48,1.48,0,0,1,3,0v4.43a1.48,1.48,0,1,1-3,0Zm-11.8,0a1.48,1.48,0,0,1,2.95,0v4.43a1.48,1.48,0,1,1-2.95,0ZM69.49,40H28.18V34.83a2.22,2.22,0,0,1,2.22-2.21h3.68v1.47a3,3,0,1,0,5.9,0V32.62h5.9v1.47a3,3,0,0,0,5.91,0V32.62h5.9v1.47a3,3,0,1,0,5.9,0V32.62h3.68a2.22,2.22,0,0,1,2.22,2.21Z"/><path class="cls-1" d="M47.36,46.63a1.48,1.48,0,0,0-1.48-1.48h-3a1.47,1.47,0,0,0-1.47,1.48v2.21a1.47,1.47,0,0,0,1.47,1.48h3a1.48,1.48,0,0,0,1.48-1.48Zm-4.43,2.21V46.63h3v2.21Z"/><path class="cls-1" d="M38.51,46.63A1.48,1.48,0,0,0,37,45.15h-3a1.47,1.47,0,0,0-1.47,1.48v2.21a1.47,1.47,0,0,0,1.47,1.48h3a1.48,1.48,0,0,0,1.48-1.48Zm-4.43,2.21V46.63h3v2.21Z"/><path class="cls-1" d="M63.59,50.32a1.47,1.47,0,0,0,1.47-1.48V46.63a1.47,1.47,0,0,0-1.47-1.48h-3a1.48,1.48,0,0,0-1.48,1.48v2.21a1.48,1.48,0,0,0,1.48,1.48Zm-3-3.69h3v2.21h-3Z"/><path class="cls-1" d="M47.36,53.27a1.48,1.48,0,0,0-1.48-1.48h-3a1.47,1.47,0,0,0-1.47,1.48v2.21A1.47,1.47,0,0,0,42.93,57h3a1.48,1.48,0,0,0,1.48-1.48Zm-4.43,2.21V53.27h3v2.21Z"/><path class="cls-1" d="M38.51,53.27A1.48,1.48,0,0,0,37,51.79h-3a1.47,1.47,0,0,0-1.47,1.48v2.21A1.47,1.47,0,0,0,34.08,57h3a1.48,1.48,0,0,0,1.48-1.48Zm-4.43,2.21V53.27h3v2.21Z"/><path class="cls-1" d="M45.88,58.43h-3a1.47,1.47,0,0,0-1.47,1.48v2.21a1.47,1.47,0,0,0,1.47,1.47h3a1.47,1.47,0,0,0,1.48-1.47V59.91A1.48,1.48,0,0,0,45.88,58.43Zm-3,3.69V59.91h3v2.21Z"/><path class="cls-1" d="M51.79,50.32h3a1.47,1.47,0,0,0,1.47-1.48V46.63a1.47,1.47,0,0,0-1.47-1.48h-3a1.48,1.48,0,0,0-1.48,1.48v2.21A1.48,1.48,0,0,0,51.79,50.32Zm0-3.69h3v2.21h-3Z"/><path class="cls-1" d="M50.31,55.48A1.48,1.48,0,0,0,51.79,57a.74.74,0,0,0,0-1.48V53.27h3a.74.74,0,0,0,0-1.48h-3a1.48,1.48,0,0,0-1.48,1.48Z"/><path class="cls-1" d="M37,58.43h-3a1.47,1.47,0,0,0-1.47,1.48v2.21a1.47,1.47,0,0,0,1.47,1.47h3a1.47,1.47,0,0,0,1.48-1.47V59.91A1.48,1.48,0,0,0,37,58.43Zm-3,3.69V59.91h3v2.21Z"/><path class="cls-1" d="M61.37,51.79A9.59,9.59,0,1,0,71,61.38,9.59,9.59,0,0,0,61.37,51.79Zm0,17.7a8.11,8.11,0,1,1,8.12-8.11A8.11,8.11,0,0,1,61.37,69.49Z"/><path class="cls-1" d="M65.64,58.29,59.9,64l-2.61-2.61a.74.74,0,0,0-1,1l3.13,3.13a.73.73,0,0,0,1,0l6.26-6.26a.74.74,0,0,0,0-1A.72.72,0,0,0,65.64,58.29Z"/></g></g></g></svg>