<svg xmlns="http://www.w3.org/2000/svg" xmlns:xlink="http://www.w3.org/1999/xlink" viewBox="0 0 995.74 613.56"><defs><style>.cls-1{opacity:0.39;fill:url(#linear-gradient);}.cls-2{fill:#588403;}.cls-3{fill:#b7cb4f;}.cls-4{fill:#75563d;}.cls-5{fill:#2cb5b5;}.cls-6{opacity:0.8;}.cls-13,.cls-15,.cls-7{fill:#2aa7ad;}.cls-7{opacity:0.5;}.cls-8{fill:#249b9b;opacity:0.65;}.cls-9{fill:#fff;}.cls-10{fill:#c6b3ac;}.cls-11{fill:#ddceca;}.cls-12{fill:#84a02b;}.cls-13{opacity:0.4;}.cls-14{opacity:0.2;}.cls-16{fill:#fba116;}.cls-17{fill:#db8412;}.cls-18{fill:#918480;}.cls-19{fill:#423b39;}.cls-20{fill:#0075be;}.cls-21{fill:#0f5c82;}.cls-22{fill:#31aa7a;}.cls-23{fill:#309165;}</style><linearGradient id="linear-gradient" x1="497.87" y1="-3.99" x2="497.87" y2="644.37" gradientUnits="userSpaceOnUse"><stop offset="0" stop-color="#fff"/><stop offset="0.1" stop-color="#dcf2f5"/><stop offset="0.26" stop-color="#abe0e7"/><stop offset="0.43" stop-color="#81d2db"/><stop offset="0.58" stop-color="#61c6d2"/><stop offset="0.73" stop-color="#4abecb"/><stop offset="0.88" stop-color="#3db9c7"/><stop offset="1" stop-color="#38b7c6"/></linearGradient></defs><g id="Layer_2" data-name="Layer 2"><g id="Ñëîé_1" data-name="Ñëîé 1"><path class="cls-1" d="M938.29,605.52a462.44,462.44,0,0,0,22.42-142.68C960.71,207.22,753.49,0,497.87,0S35,207.22,35,462.84A462.45,462.45,0,0,0,57.46,605.52Z"/><path class="cls-2" d="M910.81,313.85S836.32,558.18,910.67,554,910.81,313.85,910.81,313.85Z"/><path class="cls-3" d="M912.25,316.76c10.42,45.17,49,229.91-16.32,229.84a30.14,30.14,0,0,1-5.84-.56c5.1,6.46,12.13,9.93,21.56,9.4C982.58,551.43,918.3,336.49,912.25,316.76Z"/><rect class="cls-4" x="908.83" y="506.6" width="3.68" height="99.94"/><path class="cls-5" d="M607.62,605.12a24.75,24.75,0,0,1-2-5.36,31.47,31.47,0,0,1-5,.4,30.48,30.48,0,0,1-6.8-.76,62,62,0,0,1-3,5.72H383.72A25,25,0,0,1,417,572.63a40.9,40.9,0,0,1,40.73-37.27,42.1,42.1,0,0,1,5.65.4,23.91,23.91,0,0,1,43.94-18.85,63.24,63.24,0,0,1,83.08,23.38,30.81,30.81,0,0,1,41,29.06v.1a24.44,24.44,0,0,1,19.53,35.67Z"/><g class="cls-6"><path class="cls-7" d="M218.69,607.1a64.32,64.32,0,0,0,5.47-14.27,81.93,81.93,0,0,0,31.34-.94,167.53,167.53,0,0,0,8,15.21h551A66.42,66.42,0,0,0,726,520.65a108.69,108.69,0,0,0-123.41-98.09,63.6,63.6,0,1,0-116.9-50.15,168.29,168.29,0,0,0-221,62.21A82,82,0,0,0,155.46,512v.25a65,65,0,0,0-51.94,94.9Z"/><path class="cls-8" d="M606.14,607.1a42.13,42.13,0,0,0,3.54-9.25,53.12,53.12,0,0,0,20.32-.61,106,106,0,0,0,5.16,9.86H992.34A43.07,43.07,0,0,0,935,551.05a70.54,70.54,0,0,0-70.25-64.27,71.27,71.27,0,0,0-9.75.69A41.23,41.23,0,1,0,779.2,455a109.1,109.1,0,0,0-143.29,40.33,53.14,53.14,0,0,0-70.77,50.12c0,.06,0,.12,0,.17a42.13,42.13,0,0,0-33.68,61.52Z"/><path class="cls-8" d="M52.21,607.1A27.51,27.51,0,0,0,54.54,601a34.33,34.33,0,0,0,13.34-.4,68.66,68.66,0,0,0,3.39,6.48H305.91a28.3,28.3,0,0,0-37.68-36.82,46.34,46.34,0,0,0-46.15-42.21,48.36,48.36,0,0,0-6.41.44,26.77,26.77,0,0,0,2.2-10.68,27.09,27.09,0,0,0-52-10.67,71.64,71.64,0,0,0-94.13,26.49,34.9,34.9,0,0,0-46.49,32.93s0,.07,0,.11A27.67,27.67,0,0,0,3.16,607.1Z"/></g><path class="cls-2" d="M735.34,397.69s-53.3,174.81-.1,171.8S735.34,397.69,735.34,397.69Z"/><path class="cls-3" d="M736.37,399.77c7.45,32.32,35.09,164.5-11.67,164.45a21.44,21.44,0,0,1-4.19-.4c3.65,4.62,8.68,7.11,15.43,6.72C786.69,567.67,740.7,413.89,736.37,399.77Z"/><rect class="cls-4" x="733.92" y="535.59" width="2.63" height="71.51"/><path class="cls-9" d="M508.73,109.16a13.8,13.8,0,0,1,13.8-13.8h.23a21.91,21.91,0,1,1,42.15,12,9.33,9.33,0,0,1,.94-.1,7.86,7.86,0,0,1,0,15.71h-44v0A13.79,13.79,0,0,1,508.73,109.16Z"/><path class="cls-9" d="M591.93,142.68a9.52,9.52,0,0,1,9.52-9.52h.16a15.11,15.11,0,1,1,29.06,8.27,4.78,4.78,0,0,1,.65-.07,5.42,5.42,0,0,1,0,10.83H601v0A9.52,9.52,0,0,1,591.93,142.68Z"/><path class="cls-9" d="M315.71,271.2a10,10,0,0,0-10-10h-.16a15.87,15.87,0,0,0-31.19,4.11,15.69,15.69,0,0,0,.68,4.57c-.23,0-.45-.07-.68-.07a5.69,5.69,0,0,0,0,11.37H306.2v0A10,10,0,0,0,315.71,271.2Z"/><path class="cls-9" d="M255.48,295.47a6.89,6.89,0,0,0-6.89-6.89h-.11a10.94,10.94,0,1,0-21,6,3.42,3.42,0,0,0-.46,0,3.92,3.92,0,1,0,0,7.83h21.95A6.9,6.9,0,0,0,255.48,295.47Z"/><polygon class="cls-10" points="876.19 607.1 860 607.1 864.55 317.74 871.63 317.74 876.19 607.1"/><path class="cls-10" d="M860.44,295.51l-9.66-69.46s-1.92-6,3.48-7.14,7.33,6,7.33,6l17,49.39s1.16,2.52-.38,7.92-3.86,14.08-3.86,14.08"/><path class="cls-11" d="M882.84,308.47,947.76,335s6.14,1.33,4.43,6.59-8.85,3.33-8.85,3.33l-51.24-10.1s-2.76-.25-6.65-4.31-10.25-10.4-10.25-10.4"/><path class="cls-10" d="M860,319.52l-57,40.8s-4.4,4.48-7.94.24,1.9-9.27,1.9-9.27l35.85-38s1.69-2.19,7.19-3.33,14.26-3.13,14.26-3.13"/><path class="cls-11" d="M898.09,241.49a73.46,73.46,0,0,0-29.06-6,1.52,1.52,0,0,0,0,3,70.31,70.31,0,0,1,27.87,5.71,1.52,1.52,0,0,0,1.19-2.79Z"/><path class="cls-11" d="M930.9,269.21a74.63,74.63,0,0,0-10.07-12.39,1.51,1.51,0,0,0-2.14,0,1.54,1.54,0,0,0,0,2.15,70.83,70.83,0,0,1,9.67,11.88,1.51,1.51,0,1,0,2.54-1.65Z"/><path class="cls-11" d="M939.21,286.74a72.62,72.62,0,0,0-3.1-8,1.51,1.51,0,0,0-2.75,1.26,70.47,70.47,0,0,1,3,7.68,1.51,1.51,0,1,0,2.88-.92Z"/><path class="cls-11" d="M939.77,329.84a73.57,73.57,0,0,0,2.92-20.63,1.51,1.51,0,1,0-3,0A70.63,70.63,0,0,1,936.86,329a1.51,1.51,0,0,0,2.91.84Z"/><path class="cls-11" d="M906.89,372.42A74.1,74.1,0,0,0,934,344a1.51,1.51,0,0,0-2.67-1.43,70.91,70.91,0,0,1-26,27.24,1.51,1.51,0,0,0-.52,2.08,1.53,1.53,0,0,0,2.08.52Z"/><path class="cls-11" d="M874.13,382.7a73.15,73.15,0,0,0,14.74-2.52h0c.83-.23,1.66-.48,2.47-.74a1.51,1.51,0,0,0-.91-2.89c-.79.25-1.58.49-2.38.71h0a70.65,70.65,0,0,1-14.12,2.42,1.53,1.53,0,0,0-1.41,1.62A1.51,1.51,0,0,0,874.13,382.7Z"/><path class="cls-11" d="M847.93,379.82a73.33,73.33,0,0,0,14.37,2.75,1.51,1.51,0,1,0,.27-3,69.59,69.59,0,0,1-13.77-2.65,1.52,1.52,0,0,0-.87,2.91Z"/><path class="cls-11" d="M811.68,355.47a73.94,73.94,0,0,0,28.66,21.61,1.51,1.51,0,1,0,1.18-2.78A70.93,70.93,0,0,1,814,353.56a1.51,1.51,0,0,0-2.13-.22A1.53,1.53,0,0,0,811.68,355.47Z"/><path class="cls-11" d="M795.65,315.85a73.37,73.37,0,0,0,8,27.35,1.51,1.51,0,1,0,2.68-1.4,70.23,70.23,0,0,1-7.66-26.22,1.52,1.52,0,0,0-3,.27Z"/><path class="cls-11" d="M803.25,276a73.15,73.15,0,0,0-7.81,29.85,1.5,1.5,0,0,0,1.43,1.58,1.51,1.51,0,0,0,1.59-1.44A70.08,70.08,0,0,1,806,277.37a1.51,1.51,0,1,0-2.7-1.37Z"/><path class="cls-11" d="M852.05,237.5a73.78,73.78,0,0,0-41.41,26.77,1.52,1.52,0,0,0,2.4,1.85,71,71,0,0,1,17.36-16.07,70.19,70.19,0,0,1,22.35-9.6,1.52,1.52,0,0,0-.7-2.95Z"/><path class="cls-11" d="M930.94,288.32a66.15,66.15,0,0,0-4.05-9.46,1.54,1.54,0,0,0-2-.63,1.52,1.52,0,0,0-.63,2,59,59,0,0,1,3.85,9,1.52,1.52,0,0,0,2.88-1Z"/><path class="cls-11" d="M932,326.65a65.2,65.2,0,0,0,2.36-17.44,1.51,1.51,0,1,0-3,0,62.45,62.45,0,0,1-2.25,16.63,1.51,1.51,0,1,0,2.91.81Z"/><path class="cls-11" d="M912.37,358.08a65.65,65.65,0,0,0,13-15.78,1.51,1.51,0,1,0-2.61-1.53,62.8,62.8,0,0,1-12.38,15.05,1.51,1.51,0,1,0,2,2.26Z"/><path class="cls-11" d="M818.33,350.41a65.49,65.49,0,0,0,22.44,17.71,1.51,1.51,0,0,0,2-.7,1.54,1.54,0,0,0-.71-2,62.51,62.51,0,0,1-21.4-16.89,1.51,1.51,0,0,0-2.35,1.91Z"/><path class="cls-11" d="M805.18,323.08a65.19,65.19,0,0,0,4.27,13,1.51,1.51,0,1,0,2.76-1.24,62.39,62.39,0,0,1-4.07-12.36,1.51,1.51,0,0,0-3,.64Z"/><path class="cls-11" d="M804.87,296.86a66.13,66.13,0,0,0-1.16,12.35,1.51,1.51,0,1,0,3,0,63.41,63.41,0,0,1,1.11-11.78,1.51,1.51,0,0,0-3-.57Z"/><path class="cls-11" d="M831.3,255.88a65.7,65.7,0,0,0-13.18,12.4,1.51,1.51,0,1,0,2.36,1.9,62.48,62.48,0,0,1,12.58-11.83,1.52,1.52,0,1,0-1.76-2.47Z"/><path class="cls-11" d="M852.8,245.92a64.82,64.82,0,0,0-10.21,3.54,1.51,1.51,0,0,0,1.22,2.77,62.39,62.39,0,0,1,9.75-3.38,1.51,1.51,0,1,0-.76-2.93Z"/><path class="cls-11" d="M917.36,265.27A65.13,65.13,0,0,0,869,243.88a1.52,1.52,0,0,0,0,3,62.1,62.1,0,0,1,46.09,20.39,1.51,1.51,0,1,0,2.24-2Z"/><path class="cls-11" d="M836.61,321.52a116.24,116.24,0,0,1,19-11.59l-1.4-3.08s-8.77,2-14.26,3.13-7.19,3.33-7.19,3.33l-35.85,38s-5.43,5-1.9,9.27a4.6,4.6,0,0,0,2.91,1.77C796.45,352.63,830.6,326.31,836.61,321.52Z"/><path class="cls-11" d="M878.57,274.28l-17-49.39s-1.93-7.13-7.33-6c-3.31.71-3.87,3.24-3.8,5.08,15.25,2.17,19.86,46.38,21.25,49.86,1.51,3.78-.25,8.57-.25,8.57L868.39,296l5.94.33s2.31-8.68,3.86-14.08S878.57,274.28,878.57,274.28Z"/><path class="cls-10" d="M879.87,313l-4.67,7.11s6.35,6.36,10.25,10.4,6.65,4.31,6.65,4.31l51.24,10.1s5.61,1.5,8.07-1.83C939.73,336,890.62,317.08,879.87,313Z"/><path class="cls-10" d="M868,292.48a16.34,16.34,0,1,0,16.34,16.34A16.34,16.34,0,0,0,868,292.48Zm0,21.08a4.74,4.74,0,1,1,4.74-4.74A4.74,4.74,0,0,1,868,313.56Z"/><path class="cls-12" d="M976.38,608C911,575.67,722.71,552.3,500.57,552.3S90.11,575.67,24.76,608Z"/><path class="cls-13" d="M766.05,287.1s-14.58-4.48-25-1.12c-3.93,2.24-10.37,2-10.37,2s-.85-13.75-16.83-24.4-32-23.84-37.3-36.74c-.28,7,0,32.53,5.6,33.93-.28,4.21,1.13,6.73,3.37,8.14-.28,3.92,9.82,24.68,19.92,28.6.56,2.25.84,5-3.65,6.45s-12.62,7.29-26.93,8.7c6.17,2,12.91,4.48,16.84,12.34,5.32-5.89,12.62-12.62,12.62-12.62s22.15,11.5,45.14-16.55c2.25-2.81,3.93-5.33,6.74-5.61S766.05,287.1,766.05,287.1Z"/><path class="cls-13" d="M601.75,212.47a17.41,17.41,0,0,0-5.9.74c-2.4-.92-8.5.37-13.3,4.43-1.84,1.48-5.53-1.47-5.53-1.47s-2-5.17-12.18-5.73-19.75-5.53-20.3-16.05c-2.78,5.72-4.25,11.62-1.11,14.39,0,2.22,4.05,12.18,11.63,13.66,5.35.74,8.67,2.22,6.46,3.88s-11.45,6.46-18.46,7c6.64,3,8.86,4.61,10,8.31,1.11-1.85,5.72-7.94,9.6-8.12s13.84.36,13.84.36,5.36,6.28,16.07,6.65c5.16,1.48,12.36,4.06,19.74,2.77,1.48-1.48-4.61-1.29-9.22-10.15a22.34,22.34,0,0,0-12.38-7.2,3.29,3.29,0,0,1,1.3-4.25c2.59-1.47,5.17-5.72,5.17-5.72S600.64,214.87,601.75,212.47Z"/><g class="cls-14"><path class="cls-15" d="M448.83,183.54a67,67,0,1,0-67.4,18.23,2.87,2.87,0,0,0,1.61-5.51,61.23,61.23,0,1,1,61.62-16.67,2.87,2.87,0,1,0,4.17,3.95Z"/><path class="cls-15" d="M377.5,200.51h0a60.55,60.55,0,0,1,11.31,5.19c5.88,3.44,12.6,8.68,16.75,15.91a2.81,2.81,0,0,0,.52.66,9.57,9.57,0,0,0,4.77,2.28,22.75,22.75,0,0,0,7.37,0,43.6,43.6,0,0,0,5.6-1.24c.85-.25,1.37-.43,1.41-.44a2.87,2.87,0,1,0-1.87-5.42h-.06c-.14,0-.52.18-1.08.34a35,35,0,0,1-6.79,1.29,13.81,13.81,0,0,1-3.48-.14,3.89,3.89,0,0,1-1.94-.82l-2,2.09,2.48-1.44c-5.06-8.75-12.91-14.61-19.44-18.35A63.78,63.78,0,0,0,379.17,195a2.87,2.87,0,0,0-1.67,5.49Z"/><path class="cls-15" d="M448.44,174.94a65.37,65.37,0,0,0-7.22,10.94c-3.51,6.65-7,15.8-6.61,25.9l2.87-.11L434.7,211a3.65,3.65,0,0,1-1.05,1.62,13.87,13.87,0,0,1-4,2.57,31.11,31.11,0,0,1-4.33,1.59l-1.11.31-.3.07h-.08a2.87,2.87,0,0,0,1.22,5.61s.77-.16,1.87-.48a34.86,34.86,0,0,0,7.09-2.89,16.88,16.88,0,0,0,3.71-2.73,9.47,9.47,0,0,0,2.55-4.24,3,3,0,0,0,.09-.84c-.37-8.59,2.7-16.87,5.94-23a65.59,65.59,0,0,1,4.5-7.28c.62-.86,1.13-1.53,1.48-2,.18-.22.31-.39.41-.5l.09-.12,0,0h0a2.87,2.87,0,1,0-4.35-3.75Z"/><path class="cls-15" d="M356.1,183l0,0c.93-.82,19.17-16.61,49.54-25.4a147.68,147.68,0,0,1,56-5.1,2.87,2.87,0,1,0,.57-5.71,153.62,153.62,0,0,0-58.21,5.29c-32.55,9.45-51.6,26.5-51.8,26.67A2.87,2.87,0,0,0,356.1,183Z"/><path class="cls-15" d="M339,139.18l0,0c1-.86,20.87-17.14,53.55-26.6a169.45,169.45,0,0,1,60.11-6.25,2.87,2.87,0,1,0,.43-5.72A174.92,174.92,0,0,0,391,107c-34.87,10.11-55.51,27.6-55.72,27.76a2.87,2.87,0,1,0,3.72,4.38Z"/><path class="cls-15" d="M343.07,161.93l0,0C344.2,161,365,144.45,399,134.6a182.44,182.44,0,0,1,62.45-6.91,2.87,2.87,0,0,0,.36-5.73,188.32,188.32,0,0,0-64.41,7.13c-36.2,10.5-57.77,28.25-58,28.41a2.87,2.87,0,1,0,3.65,4.43Z"/><path class="cls-15" d="M450.75,257.46l-2.76.79a2.88,2.88,0,0,1-1.95,3.56L428,267.05a2.87,2.87,0,0,1-3.55-2l-2-6.74a2.86,2.86,0,0,1,2-3.55l18.07-5.24a2.88,2.88,0,0,1,3.56,2l1.95,6.73,2.76-.79,2.75-.8-1.95-6.74a8.61,8.61,0,0,0-10.66-5.87l-18.08,5.23A8.62,8.62,0,0,0,416.94,260l2,6.74a8.61,8.61,0,0,0,10.66,5.87l18.07-5.24a8.6,8.6,0,0,0,5.87-10.66Z"/><path class="cls-15" d="M352.38,182.71l67.25,72.81a1.44,1.44,0,1,0,2.11-2l-67.24-72.8a1.44,1.44,0,0,0-2.12,1.94"/><path class="cls-15" d="M375.05,166.22l49.82,84.83a1.44,1.44,0,0,0,2.48-1.45l-49.82-84.84a1.44,1.44,0,1,0-2.48,1.46"/><path class="cls-15" d="M463.21,149.26l-17.9,97.48a1.43,1.43,0,1,0,2.82.52L466,149.78a1.43,1.43,0,0,0-2.82-.52"/><path class="cls-15" d="M435.19,148.05l3.26,98.33a1.44,1.44,0,0,0,2.88-.1L438.06,148a1.44,1.44,0,1,0-2.87.09"/><path class="cls-15" d="M402.72,154.18l27.43,94.64a1.44,1.44,0,0,0,2.76-.8l-27.43-94.64a1.44,1.44,0,0,0-2.76.8"/><path class="cls-15" d="M379,75.66a65.49,65.49,0,0,0-12.38,12.75,79.7,79.7,0,0,0-15.61,38,1.43,1.43,0,1,0,2.84.37,76.94,76.94,0,0,1,15.05-36.63A73.26,73.26,0,0,1,377.11,81c1.09-1,2-1.78,2.6-2.27.31-.26.54-.44.71-.56l.17-.14.06,0A1.43,1.43,0,0,0,379,75.66Z"/><path class="cls-15" d="M379.79,76.25c0,.13-7.23,18.29-3,37.85a1.43,1.43,0,1,0,2.8-.61,64.85,64.85,0,0,1-.12-25.09,72.89,72.89,0,0,1,1.94-8.11c.29-1,.54-1.72.72-2.24l.21-.57.07-.19a1.43,1.43,0,0,0-2.67-1Z"/><path class="cls-15" d="M384.62,76.83h.07A65.29,65.29,0,0,1,402,81.16a76.69,76.69,0,0,1,31.4,22.57,1.44,1.44,0,0,0,2.21-1.84,79.73,79.73,0,0,0-33.51-23.76A66,66,0,0,0,384.8,74a1.43,1.43,0,0,0-.18,2.86Z"/><path class="cls-15" d="M382.72,77.22l.16.12c1.64,1.23,15.54,12.23,21.57,29a1.44,1.44,0,0,0,1.84.85,1.42,1.42,0,0,0,.86-1.83C400.31,86.5,384.52,75,384.42,74.9a1.44,1.44,0,0,0-1.7,2.32Z"/></g><polygon class="cls-10" points="256.03 607.1 236.13 607.1 241.73 251.27 250.44 251.27 256.03 607.1"/><polygon class="cls-10" points="89.2 607.1 72.61 607.1 77.28 310.59 84.53 310.59 89.2 607.1"/><path class="cls-10" d="M73.05,287.81l-9.88-71.18s-2-6.13,3.56-7.32,7.51,6.13,7.51,6.13l17.4,50.61s1.19,2.58-.4,8.11-3.95,14.43-3.95,14.43"/><path class="cls-11" d="M96,301.09l66.52,27.17s6.3,1.37,4.55,6.75-9.08,3.42-9.08,3.42l-52.5-10.35s-2.82-.26-6.82-4.41S88.19,313,88.19,313"/><path class="cls-10" d="M72.63,312.41,14.19,354.22s-4.52,4.6-8.13.24S8,345,8,345l36.75-38.91s1.72-2.25,7.36-3.42,14.61-3.2,14.61-3.2"/><path class="cls-11" d="M111.64,232.45a75.35,75.35,0,0,0-29.78-6.1,1.55,1.55,0,0,0,0,3.1,72.13,72.13,0,0,1,28.56,5.86,1.55,1.55,0,1,0,1.22-2.86Z"/><path class="cls-11" d="M145.27,260.86a77.08,77.08,0,0,0-10.33-12.7,1.56,1.56,0,1,0-2.19,2.21,71.71,71.71,0,0,1,9.91,12.18,1.55,1.55,0,0,0,2.61-1.69Z"/><path class="cls-11" d="M153.78,278.82a74.27,74.27,0,0,0-3.18-8.22,1.55,1.55,0,0,0-2.82,1.3,71,71,0,0,1,3,7.86,1.55,1.55,0,0,0,3-.94Z"/><path class="cls-11" d="M154.35,323a75.56,75.56,0,0,0,3-21.13,1.55,1.55,0,1,0-3.1,0,72.17,72.17,0,0,1-2.88,20.27,1.55,1.55,0,1,0,3,.86Z"/><path class="cls-11" d="M120.65,366.61a75.73,75.73,0,0,0,27.76-29.1,1.56,1.56,0,0,0-.63-2.11,1.58,1.58,0,0,0-2.11.64A72.7,72.7,0,0,1,119.06,364a1.55,1.55,0,0,0,1.59,2.65Z"/><path class="cls-11" d="M87.09,377.16a75.2,75.2,0,0,0,15.1-2.59h0c.85-.24,1.7-.49,2.54-.76a1.55,1.55,0,0,0-.94-3c-.81.26-1.62.5-2.43.73h0a72.11,72.11,0,0,1-14.48,2.48,1.55,1.55,0,0,0,.21,3.1Z"/><path class="cls-11" d="M60.24,374.19A75.45,75.45,0,0,0,75,377a1.56,1.56,0,0,0,.29-3.1,71.63,71.63,0,0,1-14.13-2.71,1.55,1.55,0,0,0-.88,3Z"/><path class="cls-11" d="M23.1,349.25a75.77,75.77,0,0,0,29.36,22.14,1.55,1.55,0,1,0,1.21-2.85A72.53,72.53,0,0,1,25.51,347.3a1.55,1.55,0,1,0-2.41,1.95Z"/><path class="cls-11" d="M6.67,308.65a75.28,75.28,0,0,0,8.19,28,1.56,1.56,0,0,0,2.76-1.44,71.86,71.86,0,0,1-7.86-26.86,1.55,1.55,0,1,0-3.09.27Z"/><path class="cls-11" d="M14.46,267.81a75.06,75.06,0,0,0-8,30.6,1.56,1.56,0,0,0,3.11.13,71.81,71.81,0,0,1,7.67-29.32,1.55,1.55,0,1,0-2.76-1.41Z"/><path class="cls-11" d="M64.46,228.37a75,75,0,0,0-23.88,10.26A76,76,0,0,0,22,255.79a1.55,1.55,0,0,0,2.46,1.9,72.43,72.43,0,0,1,40.69-26.31,1.55,1.55,0,1,0-.72-3Z"/><path class="cls-11" d="M145.3,280.44a65.56,65.56,0,0,0-4.15-9.69,1.55,1.55,0,0,0-2.75,1.45,62,62,0,0,1,4,9.23,1.55,1.55,0,0,0,2.94-1Z"/><path class="cls-11" d="M146.38,319.72a66.74,66.74,0,0,0,2.42-17.87,1.56,1.56,0,1,0-3.11,0,63.43,63.43,0,0,1-2.3,17,1.55,1.55,0,1,0,3,.83Z"/><path class="cls-11" d="M126.27,351.93a67,67,0,0,0,13.31-16.18,1.54,1.54,0,0,0-.55-2.12,1.56,1.56,0,0,0-2.12.55,64.22,64.22,0,0,1-12.69,15.43,1.55,1.55,0,0,0,2,2.32Z"/><path class="cls-11" d="M29.91,344.06a67.22,67.22,0,0,0,23,18.15,1.55,1.55,0,1,0,1.34-2.79A64.23,64.23,0,0,1,32.31,342.1a1.55,1.55,0,0,0-2.4,2Z"/><path class="cls-11" d="M16.43,316.06a66.48,66.48,0,0,0,4.38,13.28,1.55,1.55,0,1,0,2.83-1.27,63.46,63.46,0,0,1-4.17-12.66,1.55,1.55,0,0,0-3,.65Z"/><path class="cls-11" d="M16.11,289.19a67.68,67.68,0,0,0-1.19,12.66,1.55,1.55,0,0,0,3.1,0,64.85,64.85,0,0,1,1.14-12.08,1.55,1.55,0,0,0-3.05-.58Z"/><path class="cls-11" d="M43.2,247.19a67.09,67.09,0,0,0-13.51,12.72,1.55,1.55,0,1,0,2.42,1.94A63.94,63.94,0,0,1,45,249.72a1.55,1.55,0,0,0-1.8-2.53Z"/><path class="cls-11" d="M65.24,237a66.4,66.4,0,0,0-10.47,3.63,1.54,1.54,0,0,0-.79,2,1.56,1.56,0,0,0,2.05.8A63.5,63.5,0,0,1,66,240a1.55,1.55,0,1,0-.76-3Z"/><path class="cls-11" d="M131.39,256.82a66.78,66.78,0,0,0-49.53-21.91,1.55,1.55,0,1,0,0,3.1,63.66,63.66,0,0,1,47.23,20.9,1.57,1.57,0,0,0,2.2.1A1.55,1.55,0,0,0,131.39,256.82Z"/><path class="cls-11" d="M48.64,314.45a119.69,119.69,0,0,1,19.51-11.87l-1.44-3.15s-9,2-14.61,3.2-7.36,3.42-7.36,3.42L8,345s-5.56,5.15-1.93,9.5a4.73,4.73,0,0,0,3,1.82C7.49,346.34,42.48,319.37,48.64,314.45Z"/><path class="cls-11" d="M91.64,266.05l-17.4-50.61s-2-7.31-7.51-6.13c-3.4.73-4,3.32-3.9,5.21,15.63,2.22,20.35,47.52,21.78,51.09,1.55,3.88-.26,8.79-.26,8.79l-3.14,13.86,6.08.33s2.37-8.89,3.95-14.43S91.64,266.05,91.64,266.05Z"/><path class="cls-10" d="M93,305.72,88.19,313s6.5,6.5,10.49,10.66,6.82,4.41,6.82,4.41L158,338.43s5.76,1.53,8.28-1.87C154.3,329.24,104,309.92,93,305.72Z"/><path class="cls-10" d="M80.77,284.7a16.75,16.75,0,1,0,16.74,16.75A16.75,16.75,0,0,0,80.77,284.7Zm0,21.6a4.85,4.85,0,1,1,4.85-4.85A4.86,4.86,0,0,1,80.77,306.3Z"/><path class="cls-10" d="M236.66,222.64,224.8,137.21s-2.37-7.34,4.27-8.77,9,7.35,9,7.35L259,196.53s1.42,3.09-.48,9.73-4.75,17.32-4.75,17.32"/><path class="cls-11" d="M264.21,238.57,344,271.18s7.56,1.64,5.46,8.1-10.89,4.11-10.89,4.11L275.6,271s-3.39-.32-8.18-5.3-12.6-12.8-12.6-12.8"/><path class="cls-10" d="M236.15,252.16,166,302.33s-5.42,5.52-9.76.3,2.32-11.4,2.32-11.4l44.1-46.71s2.07-2.69,8.83-4.1,17.54-3.83,17.54-3.83"/><path class="cls-11" d="M283,156.21a90.4,90.4,0,0,0-35.74-7.32,1.86,1.86,0,1,0,0,3.72,86.58,86.58,0,0,1,34.27,7,1.86,1.86,0,1,0,1.47-3.42Z"/><path class="cls-11" d="M323.32,190.29a91.72,91.72,0,0,0-12.4-15.23,1.86,1.86,0,1,0-2.61,2.64,87.1,87.1,0,0,1,11.88,14.62,1.87,1.87,0,0,0,3.13-2Z"/><path class="cls-11" d="M333.53,211.85a89.67,89.67,0,0,0-3.81-9.86,1.86,1.86,0,1,0-3.38,1.55A85.29,85.29,0,0,1,330,213a1.86,1.86,0,1,0,3.54-1.13Z"/><path class="cls-11" d="M334.22,264.85a90.43,90.43,0,0,0,3.6-25.37,1.86,1.86,0,0,0-3.72,0,86.8,86.8,0,0,1-3.45,24.33,1.86,1.86,0,1,0,3.57,1Z"/><path class="cls-11" d="M293.79,317.21a91,91,0,0,0,33.31-34.93,1.89,1.89,0,0,0-.76-2.53,1.87,1.87,0,0,0-2.52.77A87.14,87.14,0,0,1,291.87,314a1.87,1.87,0,0,0,1.92,3.2Z"/><path class="cls-11" d="M253.5,329.85a89.39,89.39,0,0,0,18.12-3.1h0c1-.28,2-.59,3-.91a1.86,1.86,0,1,0-1.12-3.54c-1,.3-1.95.59-2.93.87h0a87.13,87.13,0,0,1-17.37,3,1.85,1.85,0,1,0,.25,3.7Z"/><path class="cls-11" d="M221.28,326.31A91.27,91.27,0,0,0,239,329.7a1.86,1.86,0,0,0,.34-3.71,86,86,0,0,1-16.94-3.25,1.86,1.86,0,1,0-1.07,3.57Z"/><path class="cls-11" d="M176.71,296.36A90.79,90.79,0,0,0,212,322.94a1.86,1.86,0,1,0,1.45-3.42A87.1,87.1,0,0,1,179.61,294a1.87,1.87,0,0,0-2.62-.27A1.85,1.85,0,0,0,176.71,296.36Z"/><path class="cls-11" d="M157,247.65a89.87,89.87,0,0,0,9.83,33.63,1.86,1.86,0,0,0,3.3-1.72,86.44,86.44,0,0,1-9.43-32.25,1.86,1.86,0,1,0-3.7.34Z"/><path class="cls-11" d="M166.34,198.64a90,90,0,0,0-9.61,36.72,1.86,1.86,0,1,0,3.71.16,86.45,86.45,0,0,1,9.22-35.2,1.86,1.86,0,0,0-3.32-1.68Z"/><path class="cls-11" d="M226.35,151.3a90,90,0,0,0-28.66,12.32,91.12,91.12,0,0,0-22.26,20.6,1.86,1.86,0,1,0,2.95,2.27,87.11,87.11,0,0,1,48.83-31.57,1.86,1.86,0,1,0-.86-3.61Z"/><path class="cls-11" d="M323.36,213.79a79.84,79.84,0,0,0-5-11.62,1.86,1.86,0,1,0-3.29,1.73A76.61,76.61,0,0,1,319.83,215a1.86,1.86,0,1,0,3.53-1.19Z"/><path class="cls-11" d="M324.66,260.94a80.49,80.49,0,0,0,2.9-21.46,1.87,1.87,0,0,0-3.73,0,76.26,76.26,0,0,1-2.76,20.46,1.86,1.86,0,0,0,3.59,1Z"/><path class="cls-11" d="M300.54,299.58a80.73,80.73,0,0,0,16-19.41,1.86,1.86,0,0,0-3.21-1.88,77.19,77.19,0,0,1-15.23,18.51,1.86,1.86,0,0,0,2.48,2.78Z"/><path class="cls-11" d="M184.88,290.14a80.53,80.53,0,0,0,27.59,21.78,1.86,1.86,0,1,0,1.61-3.35,77,77,0,0,1-26.31-20.78,1.86,1.86,0,0,0-2.89,2.35Z"/><path class="cls-11" d="M168.71,256.54A80.51,80.51,0,0,0,174,272.48a1.86,1.86,0,1,0,3.39-1.54,75.15,75.15,0,0,1-5-15.19,1.86,1.86,0,0,0-2.21-1.42,1.87,1.87,0,0,0-1.43,2.21Z"/><path class="cls-11" d="M168.33,224.29a80.9,80.9,0,0,0-1.43,15.19,1.86,1.86,0,0,0,3.72,0A76.8,76.8,0,0,1,172,225a1.86,1.86,0,0,0-3.66-.7Z"/><path class="cls-11" d="M200.84,173.9a80.36,80.36,0,0,0-16.22,15.25,1.86,1.86,0,0,0,2.9,2.33A77.1,77.1,0,0,1,203,176.93a1.86,1.86,0,0,0-2.15-3Z"/><path class="cls-11" d="M227.28,161.65A79,79,0,0,0,214.72,166a1.86,1.86,0,0,0,1.51,3.4,75.23,75.23,0,0,1,12-4.15,1.86,1.86,0,0,0-.92-3.61Z"/><path class="cls-11" d="M306.67,185.44a80.17,80.17,0,0,0-59.44-26.29,1.86,1.86,0,1,0,0,3.72A76.39,76.39,0,0,1,303.91,188a1.87,1.87,0,1,0,2.76-2.51Z"/><path class="cls-11" d="M207.36,254.61c4.35-3.47,16.12-11,23.42-14.24l-1.73-3.78s-10.77,2.43-17.54,3.83-8.83,4.1-8.83,4.1l-44.1,46.71s-6.67,6.18-2.32,11.4a5.7,5.7,0,0,0,3.57,2.17C158,292.87,200,260.51,207.36,254.61Z"/><path class="cls-11" d="M259,196.53l-20.88-60.74s-2.38-8.77-9-7.35c-4.08.87-4.76,4-4.67,6.25,18.76,2.66,24.42,57,26.13,61.31,1.86,4.65-.31,10.54-.31,10.54l-3.77,16.64,7.29.4s2.85-10.68,4.75-17.32S259,196.53,259,196.53Z"/><path class="cls-10" d="M260.56,244.13l-5.74,8.74s7.8,7.82,12.6,12.8,8.18,5.3,8.18,5.3l63,12.42s6.9,1.83,9.93-2.25C334.16,272.36,273.78,249.16,260.56,244.13Z"/><path class="cls-10" d="M245.92,218.91A20.1,20.1,0,1,0,266,239,20.09,20.09,0,0,0,245.92,218.91Zm0,25.91a5.82,5.82,0,1,1,5.82-5.82A5.82,5.82,0,0,1,245.92,244.82Z"/><path class="cls-16" d="M490.9,545.15l35-34.72h39.94V353.69c0-.52,0-1-.07-1.54H384.14c0,.51-.07,1-.07,1.54V568.13a23,23,0,0,0,23,23H490.9Z"/><rect class="cls-16" x="393" y="325.6" width="162.36" height="44.93" rx="10.72"/><rect class="cls-17" x="384.32" y="349.6" width="181.25" height="18.38"/><rect class="cls-17" x="393.26" y="337.09" width="162.23" height="4.47"/><rect class="cls-16" x="373.34" y="340.92" width="203.21" height="18.38"/><path class="cls-17" d="M384.07,552.56v15.57a23,23,0,0,0,23,23H542.85a23,23,0,0,0,23-23V552.56Z"/><path class="cls-17" d="M565.51,591V510.27A58.71,58.71,0,0,0,490.72,591Z"/><polygon class="cls-17" points="410.36 588.12 419.29 608.46 428.23 608.46 428.23 586.5 410.36 588.12"/><path class="cls-9" d="M476.23,407.7c.4-.7.78-1.34,1.12-1.92l.11-.18.11-.19.38-.62c.06-.09.12-.18.17-.27l.32-.48.13-.21c.14-.2.26-.39.38-.54a11.19,11.19,0,0,1,3.09-2.74,15.26,15.26,0,0,1,1.48-.81l-.83,0c-4.1-.08-9.33-.15-13.78-.15-3.24,0-6.08,0-7.75.15a11,11,0,0,0-5.36,1.57A5.55,5.55,0,0,0,454,403l-.07.12h0l0,.07-10.17,18.46L463,432.24c.91-1.73,2.91-5.55,5.23-9.87,1.83-3.44,3.85-7.18,5.67-10.47h0l.08-.16.65-1.17.12-.2c.5-.9,1-1.75,1.43-2.54Z"/><path class="cls-9" d="M444.44,465.91h-4.39l-1,0h-.91c-.33,0-.64,0-.93,0H437l-.91,0H436l-.79-.05h-.08l-.67-.07a12.5,12.5,0,0,1-5.31-2.29l.51,1c2,3.75,4.5,8.49,6.67,12.42,1.45,2.61,2.74,4.87,3.59,6.2a10.86,10.86,0,0,0,4.14,4,5.38,5.38,0,0,0,2.27.62h21.2V465.64c-3.35.08-13.63.27-22,.27Z"/><path class="cls-9" d="M435,463.47l.18,0h.16l.26,0h.14l.34,0h.1l.43,0h.06c.5,0,1.08.05,1.7.06l.95,0h4.46l8.27-14.44a1.1,1.1,0,0,1,1.4-.46l4.27,1.9-9-16.38-19.39-.27,4.4,2.87a1.12,1.12,0,0,1,.32,1.53l-7.94,12.06-.07.21c-.07.22-.16.54-.25.93a12.81,12.81,0,0,0-.36,2.93,6.42,6.42,0,0,0,.62,3l0,0h0l0,0,.14.16c.13.15.31.36.55.61a22,22,0,0,0,2,1.91,12.46,12.46,0,0,0,5.91,3.12Z"/><path class="cls-9" d="M526.8,450.72l0-.07-10.55-18.24-19,11c1,1.67,3.24,5.35,5.75,9.57,2,3.35,4.15,7,6,10.27h0l.15.26c.21.36.41.7.6,1.05l.12.2c.51.91,1,1.77,1.44,2.57a.56.56,0,0,1,.05.08c.39.72.76,1.38,1.07,2a1.62,1.62,0,0,1,.1.18,1.14,1.14,0,0,0,.1.19c.12.23.23.46.35.67l.13.27.26.53.1.21c.11.22.2.43.27.61a11.24,11.24,0,0,1,.75,4.26c0,.5,0,1-.07,1.47l.58-.92c2.27-3.59,5.11-8.15,7.42-12,1.54-2.56,2.85-4.81,3.57-6.21a11.25,11.25,0,0,0,1.43-5.16,5.27,5.27,0,0,0-.63-2.76Z"/><path class="cls-9" d="M511.57,472.53s0-.07,0-.11-.11-.21-.16-.33l-.06-.12-.22-.45-.12-.24-.19-.35c0-.07-.07-.13-.1-.21s-.21-.4-.33-.6-.08-.15-.11-.22-.14-.24-.2-.37l-1.22-2.19c-.28-.51-.58-1-.9-1.6-.1-.18-.2-.36-.31-.53s-.12-.23-.19-.34l-16.64.07a1.09,1.09,0,0,1-1.09-1l-.5-4.65-9.68,16L489,492.21l.29-5.24a1,1,0,0,1,.36-.76,1.06,1.06,0,0,1,.79-.28l14.42.83.35-.07c.31-.08.75-.19,1.25-.36a11.61,11.61,0,0,0,3.28-1.68,5.67,5.67,0,0,0,1.23-1.32s0-.05,0-.07l0,0,0-.11c0-.1.08-.25.15-.44.12-.38.29-.93.46-1.59a19.84,19.84,0,0,0,.67-4.8,9.22,9.22,0,0,0-.58-3.43Q511.66,472.71,511.57,472.53Z"/><path class="cls-9" d="M509,414.05l-4.64,2.47a1.08,1.08,0,0,1-1.49-.45l-6.74-12.77-.22-.23c-.2-.21-.5-.5-.87-.82a11.34,11.34,0,0,0-2.91-1.89,5.79,5.79,0,0,0-2.11-.52l-.06,0h0l-.12,0-.46.1c-.41.09-1,.23-1.65.43a19.53,19.53,0,0,0-4.54,2,9,9,0,0,0-2.49,2.17,3.72,3.72,0,0,1-.22.31.25.25,0,0,1,0,.07l-.24.36,0,.05c-.09.14-.2.3-.3.47s-.07.12-.11.17l-.23.37-.12.21-.35.58-.15.25-.18.32c-.42.71-.88,1.51-1.37,2.37v0l-.77,1.35h0l-.5.89,8.67,14.21a1.1,1.1,0,0,1-.28,1.45l-3.72,2.82,18.68,0Z"/><path class="cls-10" d="M592.13,564.55a49,49,0,1,1-49-49A49,49,0,0,1,592.13,564.55Z"/><path class="cls-18" d="M577.19,564.55a34.08,34.08,0,1,1-34.08-34.08A34.08,34.08,0,0,1,577.19,564.55Z"/><path class="cls-10" d="M573.36,564.55a30.25,30.25,0,1,1-30.25-30.25A30.25,30.25,0,0,1,573.36,564.55Z"/><path class="cls-18" d="M570.3,564.55a27.19,27.19,0,1,1-27.19-27.19A27.18,27.18,0,0,1,570.3,564.55Z"/><path class="cls-19" d="M549.62,564.55a6.51,6.51,0,1,1-6.51-6.51A6.52,6.52,0,0,1,549.62,564.55Z"/><path class="cls-20" d="M745.48,545.15l35-34.72h39.95V353.69c0-.52,0-1-.08-1.54H638.72c0,.51-.08,1-.08,1.54V568.13a23,23,0,0,0,23,23h83.86Z"/><rect class="cls-20" x="647.58" y="325.6" width="162.36" height="44.93" rx="10.72"/><rect class="cls-21" x="638.9" y="349.6" width="181.25" height="18.38"/><rect class="cls-21" x="647.83" y="337.09" width="162.23" height="4.47"/><rect class="cls-20" x="627.92" y="340.92" width="203.21" height="18.38"/><path class="cls-21" d="M638.64,552.56v15.57a23,23,0,0,0,23,23H797.43a23,23,0,0,0,23-23V552.56Z"/><path class="cls-21" d="M820.08,591V510.27A58.71,58.71,0,0,0,745.29,591Z"/><polygon class="cls-20" points="664.93 588.12 673.87 608.46 682.8 608.46 682.8 586.5 664.93 588.12"/><path class="cls-9" d="M730.8,407.7c.4-.7.79-1.34,1.13-1.92l.11-.18.11-.19.38-.62c.06-.09.12-.18.17-.27L733,404l.14-.21c.13-.2.26-.39.38-.54a11,11,0,0,1,3.09-2.74,16.38,16.38,0,0,1,1.47-.81l-.82,0c-4.1-.08-9.33-.15-13.79-.15-3.23,0-6.07,0-7.74.15a11,11,0,0,0-5.36,1.57,5.55,5.55,0,0,0-1.77,1.72l-.07.12h0l0,.07-10.17,18.46,19.2,10.58c.91-1.73,2.91-5.55,5.23-9.87,1.83-3.44,3.85-7.18,5.67-10.47h0l.09-.16.65-1.17c0-.07.07-.14.11-.2l1.44-2.54S730.78,407.75,730.8,407.7Z"/><path class="cls-9" d="M699,465.91h-4.39l-1,0h-.91c-.33,0-.64,0-.93,0h-.22l-.9,0h-.14l-.79-.05h-.08l-.67-.07a12.52,12.52,0,0,1-5.3-2.29l.51,1c2,3.75,4.5,8.49,6.67,12.42,1.44,2.61,2.74,4.87,3.59,6.2a10.79,10.79,0,0,0,4.14,4,5.32,5.32,0,0,0,2.27.62h21.2V465.64c-3.36.08-13.63.27-22,.27Z"/><path class="cls-9" d="M689.6,463.47l.17,0h.17l.26,0h.14l.34,0h.1l.42,0h.06q.76,0,1.71.06l.94,0h4.47l8.27-14.44a1.09,1.09,0,0,1,1.39-.46l4.27,1.9-9-16.38-19.4-.27,4.41,2.87a1.11,1.11,0,0,1,.31,1.53l-7.93,12.06-.07.21c-.07.22-.16.54-.25.93a12.27,12.27,0,0,0-.36,2.93,6.42,6.42,0,0,0,.62,3s0,0,0,0h0l0,0,.14.16c.12.15.31.36.55.61a22,22,0,0,0,2,1.91,12.37,12.37,0,0,0,5.91,3.12Z"/><path class="cls-9" d="M781.38,450.72l0-.07-10.55-18.24-19,11c1,1.67,3.24,5.35,5.75,9.57,2,3.35,4.15,7,6,10.27h0l.15.26c.2.36.41.7.6,1.05l.11.2c.52.91,1,1.77,1.45,2.57l0,.08q.6,1.08,1.08,2a1.62,1.62,0,0,0,.1.18,1.14,1.14,0,0,0,.1.19l.34.67.14.27c.09.19.18.36.25.53a1,1,0,0,1,.1.21c.11.22.21.43.28.61a11.23,11.23,0,0,1,.74,4.26q0,.75-.06,1.47l.58-.92c2.26-3.59,5.11-8.15,7.42-12,1.54-2.56,2.85-4.81,3.57-6.21a11.25,11.25,0,0,0,1.43-5.16,5.39,5.39,0,0,0-.63-2.76Z"/><path class="cls-9" d="M766.15,472.53l0-.11c0-.1-.1-.21-.15-.33a1.34,1.34,0,0,1-.06-.12c-.07-.14-.14-.29-.23-.45a1.79,1.79,0,0,0-.12-.24l-.18-.35-.11-.21c-.1-.19-.2-.4-.32-.6l-.12-.22c-.06-.12-.13-.24-.19-.37l-1.22-2.19-.9-1.6-.31-.53-.19-.34-16.64.07a1.1,1.1,0,0,1-1.1-1l-.49-4.65-9.68,16,9.47,16.92.28-5.24a1.09,1.09,0,0,1,.37-.76,1,1,0,0,1,.79-.28l14.42.83.35-.07c.31-.08.75-.19,1.25-.36a11.44,11.44,0,0,0,3.27-1.68,5.51,5.51,0,0,0,1.24-1.32s0-.05,0-.07v0l0-.11.16-.44c.12-.38.29-.93.46-1.59a19.84,19.84,0,0,0,.67-4.8,9.22,9.22,0,0,0-.58-3.43Q766.24,472.71,766.15,472.53Z"/><path class="cls-9" d="M763.61,414.05,759,416.52a1.08,1.08,0,0,1-1.49-.45l-6.74-12.77-.22-.23c-.2-.21-.5-.5-.87-.82a11.52,11.52,0,0,0-2.91-1.89,5.84,5.84,0,0,0-2.11-.52l-.06,0h0l-.12,0-.47.1c-.4.09-1,.23-1.64.43a19.53,19.53,0,0,0-4.54,2,9,9,0,0,0-2.49,2.17l-.22.31,0,.07-.25.36,0,.05-.29.47-.11.17-.23.37-.12.21-.35.58-.15.25-.19.32c-.42.71-.87,1.51-1.36,2.37l0,0c-.24.44-.5.89-.76,1.35h0l-.5.89,8.66,14.21a1.09,1.09,0,0,1-.27,1.45l-3.72,2.82,18.68,0Z"/><path class="cls-10" d="M846.7,564.55a49,49,0,1,1-49-49A49,49,0,0,1,846.7,564.55Z"/><path class="cls-18" d="M831.77,564.55a34.08,34.08,0,1,1-34.08-34.08A34.08,34.08,0,0,1,831.77,564.55Z"/><path class="cls-10" d="M827.94,564.55a30.25,30.25,0,1,1-30.25-30.25A30.25,30.25,0,0,1,827.94,564.55Z"/><path class="cls-18" d="M824.88,564.55a27.19,27.19,0,1,1-27.19-27.19A27.19,27.19,0,0,1,824.88,564.55Z"/><path class="cls-19" d="M804.2,564.55a6.51,6.51,0,1,1-6.51-6.51A6.52,6.52,0,0,1,804.2,564.55Z"/><path class="cls-22" d="M236.32,545.15l35-34.72h39.94V353.69c0-.52,0-1-.08-1.54H129.57c0,.51-.08,1-.08,1.54V568.13a23,23,0,0,0,23,23h83.86Z"/><rect class="cls-22" x="138.43" y="325.6" width="162.36" height="44.93" rx="10.72"/><rect class="cls-23" x="129.75" y="349.6" width="181.25" height="18.38"/><rect class="cls-23" x="138.68" y="337.09" width="162.23" height="4.47"/><rect class="cls-22" x="118.77" y="340.92" width="203.2" height="18.38"/><path class="cls-23" d="M129.49,552.56v15.57a23,23,0,0,0,23,23H288.27a23,23,0,0,0,23-23V552.56Z"/><path class="cls-23" d="M310.93,591V510.27A58.71,58.71,0,0,0,236.14,591Z"/><polygon class="cls-23" points="155.78 588.12 164.72 608.46 173.65 608.46 173.65 586.5 155.78 588.12"/><path class="cls-9" d="M221.65,407.7c.4-.7.78-1.34,1.13-1.92l.1-.18a1.18,1.18,0,0,0,.11-.19c.14-.21.27-.42.39-.62s.11-.18.17-.27l.31-.48.13-.21.38-.54a11.23,11.23,0,0,1,3.1-2.74,16.38,16.38,0,0,1,1.47-.81l-.82,0c-4.11-.08-9.33-.15-13.79-.15-3.23,0-6.07,0-7.75.15a11,11,0,0,0-5.36,1.57,5.67,5.67,0,0,0-1.77,1.72l-.06.12h0l0,.07-10.16,18.46,19.2,10.58c.91-1.73,2.91-5.55,5.22-9.87,1.84-3.44,3.86-7.18,5.68-10.47h0l.09-.16c.22-.4.43-.79.65-1.17a1.28,1.28,0,0,1,.11-.2c.5-.9,1-1.75,1.43-2.54Z"/><path class="cls-9" d="M189.87,465.91h-4.4l-1,0h-.92c-.32,0-.63,0-.93,0h-.21l-.9,0h-.14l-.79-.05h-.08l-.67-.07a12.61,12.61,0,0,1-5.31-2.29l.52,1c2,3.75,4.5,8.49,6.66,12.42,1.45,2.61,2.74,4.87,3.59,6.2a10.8,10.8,0,0,0,4.15,4,5.32,5.32,0,0,0,2.26.62h21.2V465.64c-3.35.08-13.63.27-22,.27Z"/><path class="cls-9" d="M180.44,463.47l.18,0h.17l.26,0h.13l.34,0h.11l.42,0h.06q.76,0,1.71.06l.94,0h4.47l8.26-14.44a1.1,1.1,0,0,1,1.4-.46l4.27,1.9-9-16.38-19.39-.27,4.4,2.87a1.09,1.09,0,0,1,.48.7,1.11,1.11,0,0,1-.16.83l-7.94,12.06a1.91,1.91,0,0,0-.06.21c-.07.22-.16.54-.26.93a13.39,13.39,0,0,0-.36,2.93,6.55,6.55,0,0,0,.63,3l0,0h0l0,0,.14.16c.12.15.31.36.54.61a22.33,22.33,0,0,0,2,1.91,12.37,12.37,0,0,0,5.91,3.12Z"/><path class="cls-9" d="M272.23,450.72l-.05-.07-10.54-18.24-19,11c1,1.67,3.25,5.35,5.76,9.57,2,3.35,4.15,7,6,10.27h0c.06.08.1.17.16.26.2.36.4.7.6,1.05a2,2,0,0,0,.11.2c.52.91,1,1.77,1.45,2.57a.59.59,0,0,0,0,.08q.6,1.08,1.08,2l.09.18.1.19c.13.23.24.46.35.67l.13.27c.1.19.18.36.26.53a1,1,0,0,1,.1.21c.11.22.2.43.28.61a11.42,11.42,0,0,1,.74,4.26q0,.75-.06,1.47l.58-.92c2.26-3.59,5.11-8.15,7.42-12,1.54-2.56,2.85-4.81,3.57-6.21a11.25,11.25,0,0,0,1.43-5.16,5.39,5.39,0,0,0-.63-2.76Z"/><path class="cls-9" d="M257,472.53a1.17,1.17,0,0,1-.05-.11l-.16-.33-.05-.12-.23-.45-.12-.24-.18-.35a1.39,1.39,0,0,1-.11-.21l-.32-.6-.12-.22-.2-.37c-.36-.67-.77-1.41-1.21-2.19l-.91-1.6c-.09-.18-.2-.36-.3-.53l-.19-.34-16.64.07a1.1,1.1,0,0,1-1.1-1l-.49-4.65-9.68,16,9.47,16.92.28-5.24a1,1,0,0,1,.36-.76,1.07,1.07,0,0,1,.8-.28l14.42.83.35-.07c.3-.08.74-.19,1.24-.36a11.48,11.48,0,0,0,3.28-1.68,5.67,5.67,0,0,0,1.23-1.32s0-.05,0-.07v0l0-.11c0-.1.09-.25.15-.44.13-.38.3-.93.46-1.59a19.82,19.82,0,0,0,.68-4.8,9.22,9.22,0,0,0-.58-3.43C257.11,472.76,257.05,472.65,257,472.53Z"/><path class="cls-9" d="M254.46,414.05l-4.64,2.47a1.09,1.09,0,0,1-.83.09,1.07,1.07,0,0,1-.65-.54L241.6,403.3l-.22-.23a13.45,13.45,0,0,0-3.79-2.71,5.74,5.74,0,0,0-2.1-.52l-.06,0h0l-.12,0-.47.1c-.4.09-1,.23-1.64.43a19.77,19.77,0,0,0-4.55,2,8.77,8.77,0,0,0-2.48,2.17l-.22.31,0,.07-.24.36,0,.05-.3.47-.1.17-.23.37a2.39,2.39,0,0,1-.13.21l-.34.58-.15.25-.19.32c-.42.71-.88,1.51-1.36,2.37l0,0c-.24.44-.5.89-.76,1.35h0c-.16.29-.34.59-.5.89l8.66,14.21a1.08,1.08,0,0,1-.28,1.45l-3.71,2.82,18.68,0Z"/><path class="cls-10" d="M337.55,564.55a49,49,0,1,1-49-49A49,49,0,0,1,337.55,564.55Z"/><path class="cls-18" d="M322.62,564.55a34.09,34.09,0,1,1-34.09-34.08A34.08,34.08,0,0,1,322.62,564.55Z"/><path class="cls-10" d="M318.79,564.55a30.26,30.26,0,1,1-30.26-30.25A30.25,30.25,0,0,1,318.79,564.55Z"/><path class="cls-18" d="M315.72,564.55a27.19,27.19,0,1,1-27.19-27.19A27.18,27.18,0,0,1,315.72,564.55Z"/><path class="cls-19" d="M295,564.55a6.51,6.51,0,1,1-6.51-6.51A6.51,6.51,0,0,1,295,564.55Z"/><path class="cls-12" d="M52.8,477a57.93,57.93,0,1,1,32.14,75.36A57.93,57.93,0,0,1,52.8,477Z"/><path class="cls-3" d="M107.37,453.68a57.93,57.93,0,0,1,11.07,101.58A57.93,57.93,0,1,0,73.86,450.73,57.74,57.74,0,0,1,107.37,453.68Z"/><rect class="cls-4" x="103.72" y="524.09" width="4.99" height="83.01"/></g></g></svg>