<svg xmlns="http://www.w3.org/2000/svg" viewBox="0 0 33.96 33.96"><defs><style>.cls-1{fill:#ffc107;}.cls-2{fill:#ff3d00;}.cls-3{fill:#4caf50;}.cls-4{fill:#1976d2;}</style></defs><g id="Layer_2" data-name="Layer 2"><g id="Ñëîé_1" data-name="Ñëîé 1"><path class="cls-1" d="M33.63,13.65H32.26v-.07H17v6.79h9.59a10.19,10.19,0,1,1-2.83-11l4.8-4.8A17,17,0,1,0,34,17,17.41,17.41,0,0,0,33.63,13.65Z"/><path class="cls-2" d="M2,9.08l5.58,4.09a10.16,10.16,0,0,1,16.2-3.8l4.8-4.8A16.94,16.94,0,0,0,2,9.08Z"/><path class="cls-3" d="M17,34a16.89,16.89,0,0,0,11.38-4.41L23.11,25.1A10.15,10.15,0,0,1,7.4,20.42L1.86,24.69A17,17,0,0,0,17,34Z"/><path class="cls-4" d="M33.63,13.65H32.26v-.07H17v6.79h9.59A10.16,10.16,0,0,1,23.1,25.1h0l5.25,4.45A16.4,16.4,0,0,0,34,17,17.41,17.41,0,0,0,33.63,13.65Z"/></g></g></svg>