<svg xmlns="http://www.w3.org/2000/svg" viewBox="0 0 29.11 18.99"><defs><style>.cls-1{fill:#31aa7a;}</style></defs><g id="Layer_2" data-name="Layer 2"><g id="Ñëîé_1" data-name="Ñëîé 1"><path class="cls-1" d="M29.09,1,18.86,9.48,29.11,16.3V1.15A1.23,1.23,0,0,0,29.09,1Z"/><path class="cls-1" d="M17.93,10.25l-1.29,1.07a3.21,3.21,0,0,1-2.09.76,3.25,3.25,0,0,1-2.09-.76l-1.29-1.07L0,17.68v.16A1.16,1.16,0,0,0,1.15,19H28a1.16,1.16,0,0,0,1.15-1.15v-.16Z"/><path class="cls-1" d="M28,0H1.15A.17.17,0,0,0,1,.31L11.57,9.08h0l1.62,1.35a2.13,2.13,0,0,0,2.71,0L28.07.31A.18.18,0,0,0,28,0Z"/><path class="cls-1" d="M0,1a1.23,1.23,0,0,0,0,.19V16.3L10.25,9.48Z"/></g></g></svg>