<svg xmlns="http://www.w3.org/2000/svg" viewBox="0 0 124 124"><defs><style>.cls-1{fill:#ffb556;}.cls-2{fill:#fff;}</style></defs><g id="Layer_2" data-name="Layer 2"><g id="Ñëîé_1" data-name="Ñëîé 1"><circle class="cls-1" cx="62" cy="62" r="62"/><circle class="cls-2" cx="62" cy="62" r="50.55"/><path class="cls-1" d="M58.5,59.94a1.12,1.12,0,0,0-1.59,1.59,1.14,1.14,0,0,0,1.59,0A1.12,1.12,0,0,0,58.5,59.94Z"/><path class="cls-1" d="M64.44,61.85a3.37,3.37,0,1,0,3.36,3.37A3.37,3.37,0,0,0,64.44,61.85Zm0,4.49a1.12,1.12,0,1,1,1.12-1.12A1.12,1.12,0,0,1,64.44,66.34Z"/><path class="cls-1" d="M64.44,56.24a8.92,8.92,0,0,0-3.61.76,1.12,1.12,0,1,0,.91,2,6.73,6.73,0,1,1-4,6.17v-.11a1.13,1.13,0,0,0-2.25-.06v.17a9,9,0,1,0,9-9Z"/><path class="cls-1" d="M64.44,39.41a1.13,1.13,0,0,0-1.12,1.13v6.73a1.12,1.12,0,1,0,2.24,0V40.54A1.13,1.13,0,0,0,64.44,39.41Z"/><path class="cls-1" d="M51.9,47.73,47.14,43a1.12,1.12,0,0,0-1.58,1.59l4.76,4.76a1.11,1.11,0,0,0,1.58,0A1.12,1.12,0,0,0,51.9,47.73Z"/><path class="cls-1" d="M83.32,43a1.14,1.14,0,0,0-1.59,0L77,47.73a1.12,1.12,0,0,0,1.59,1.59l4.76-4.76A1.12,1.12,0,0,0,83.32,43Z"/><path class="cls-1" d="M92.88,65.41c-7.13-8.07-17.71-14.78-28.44-14.78S43.12,57.34,36,65.41a1.12,1.12,0,1,0,1.68,1.49l.73-.81a31.55,31.55,0,0,0,52.06,0l.73.81a1.12,1.12,0,1,0,1.68-1.49ZM64.44,77.56A29.26,29.26,0,0,1,40,64.44c4-3.92,13.24-11.56,24.43-11.56s20.43,7.64,24.42,11.56A29.24,29.24,0,0,1,64.44,77.56Z"/></g></g></svg>