<svg xmlns="http://www.w3.org/2000/svg" viewBox="0 0 124 124"><defs><style>.cls-1{fill:#6ac9ea;}.cls-2{fill:#fff;}</style></defs><g id="Layer_2" data-name="Layer 2"><g id="Ñëîé_1" data-name="Ñëîé 1"><circle class="cls-1" cx="62" cy="62" r="62"/><circle class="cls-2" cx="62.17" cy="62.24" r="50.55"/><path class="cls-1" d="M60.78,73.78a.82.82,0,0,0-1.14.18l-.1.13a.82.82,0,1,0,1.31,1l.1-.14A.82.82,0,0,0,60.78,73.78Z"/><path class="cls-1" d="M61,81.52l-2.09-3.8,2-2.66a.82.82,0,1,0-1.31-1l-2.26,3.08a.83.83,0,0,0-.06.88l2.35,4.25h0a.8.8,0,0,0,.71.43.79.79,0,0,0,.39-.11A.81.81,0,0,0,61,81.52Z"/><path class="cls-1" d="M67.05,77.17,64.8,74.11a.81.81,0,0,0-1.44.28.82.82,0,0,0,.13.68l1.94,2.65-2.07,3.77a.79.79,0,0,0-.1.4.8.8,0,0,0,.61.78.64.64,0,0,0,.2,0,.81.81,0,0,0,.71-.42l2.33-4.23A.83.83,0,0,0,67.05,77.17Z"/><path class="cls-1" d="M68.34,64.39a.82.82,0,0,0-.84,0,13.1,13.1,0,0,0-1.33,1,5.74,5.74,0,0,1-4.35,1.7h-.15c-.87,0-2.43-.77-4.08-2.06-.25-.2-.51-.39-.76-.57a.84.84,0,0,0-.84,0,.81.81,0,0,0-.43.72V68a.8.8,0,0,0,.3.63l.07,0,5.77,3.86h0a.79.79,0,0,0,.45.13.85.85,0,0,0,.38-.09l.08,0h0l5.76-3.84.06,0a.81.81,0,0,0,.32-.64V65.11A.82.82,0,0,0,68.34,64.39Zm-1.19,3.19-5,3.33-5-3.33v-.74c1.22.89,3,2,4.46,2h0a7.4,7.4,0,0,0,5.5-2v.79Z"/><path class="cls-1" d="M63,71.76a.83.83,0,0,0-.61-.66.82.82,0,0,0-.85.31L59.64,74a.8.8,0,0,0,.18,1.13.77.77,0,0,0,.48.16.79.79,0,0,0,.65-.33l1.86-2.53a.8.8,0,0,0,.17-.5A.57.57,0,0,0,63,71.76Z"/><path class="cls-1" d="M74.56,45.54a5.25,5.25,0,0,0-3-4,2.71,2.71,0,0,0-.24-1.7,3.17,3.17,0,0,0-2.41-1.57l-.16,0H57.84a8.05,8.05,0,0,0-8,8V50.6a4.93,4.93,0,0,0,1.08,3.07A3.93,3.93,0,0,1,51.7,56a.83.83,0,0,0,.84.77.81.81,0,0,0,.79-.81V50.33a3.59,3.59,0,0,1,2.76-2.79h3.53a4.14,4.14,0,0,0,1.22-.18c.67-.22,1.73-.62,2.51-.91a2.37,2.37,0,0,1,1.62,0l3.78,1.33A3.42,3.42,0,0,1,71,50.37v6.71a.82.82,0,0,0,.76.81h.06a.81.81,0,0,0,.8-.69A11.68,11.68,0,0,1,74,53.4a3.69,3.69,0,0,0,.55-1.93V45.54Zm-1.62,5.93a2,2,0,0,1-.3,1V50.23a5.08,5.08,0,0,0-3.34-4h0L65.5,44.89a3.93,3.93,0,0,0-1.32-.22,4,4,0,0,0-1.41.26c-1.09.41-1.93.72-2.43.88a2.46,2.46,0,0,1-.72.11h-3.7a5.19,5.19,0,0,0-4.2,4.14,1.1,1.1,0,0,0,0,.18v1.67a3.41,3.41,0,0,1-.27-1.31V46.32a6.42,6.42,0,0,1,6.41-6.41H68.68a1.72,1.72,0,0,1,1.2.69,1.58,1.58,0,0,1,0,1.16.82.82,0,0,0,0,.7.8.8,0,0,0,.54.44,3.49,3.49,0,0,1,2.55,2.8v5.77Z"/><path class="cls-1" d="M72.64,50.23a5.08,5.08,0,0,0-3.34-4h0L65.5,44.89a4,4,0,0,0-2.73,0c-1.09.41-1.93.72-2.43.88a2.46,2.46,0,0,1-.72.11h-3.7a5.19,5.19,0,0,0-4.2,4.14,1.1,1.1,0,0,0,0,.18v7c0,.24.18,6,4.14,8.6l0,0,.06,0c.22.16.45.32.67.5,1.15.9,3.33,2.41,5,2.41h0l.48,0a7.68,7.68,0,0,0,5.13-2.13,10.91,10.91,0,0,1,1.16-.92l.07,0,.06,0c1.32-.89,3.61-3.18,4.09-8.55V50.23ZM71,57c-.44,4.84-2.5,6.72-3.37,7.31l-.09.06,0,0a13.1,13.1,0,0,0-1.33,1,5.78,5.78,0,0,1-4.36,1.7h-.14c-.87,0-2.43-.77-4.08-2.06-.25-.2-.51-.39-.76-.57h0l-.07,0c-3.19-2.12-3.4-7.07-3.41-7.28V50.33a3.58,3.58,0,0,1,2.76-2.79h3.53a4.14,4.14,0,0,0,1.22-.18c.67-.22,1.73-.62,2.51-.91a2.37,2.37,0,0,1,1.62,0l3.78,1.33A3.42,3.42,0,0,1,71,50.37V57Z"/><path class="cls-1" d="M62.89,71.53a.8.8,0,0,0-.65-.45.82.82,0,0,0-.73.33l-1.95,2.65a.82.82,0,0,0,.18,1.14.77.77,0,0,0,.48.16.82.82,0,0,0,.65-.33l2-2.65a.84.84,0,0,0,.16-.49A.77.77,0,0,0,62.89,71.53Z"/><path class="cls-1" d="M63,84.62a.82.82,0,0,0-1.14,0l-.19.17a.82.82,0,0,0-.16,1h0a.77.77,0,0,0,.6.41h.11a.78.78,0,0,0,.57-.24l.18-.18A.82.82,0,0,0,63,84.62Z"/><path class="cls-1" d="M62.71,84.76l-.19-.17a.8.8,0,0,0-1.13,0,.81.81,0,0,0,0,1.14l.18.18a.78.78,0,0,0,.58.24h.11a.81.81,0,0,0,.6-.41h0A.81.81,0,0,0,62.71,84.76Z"/><path class="cls-1" d="M62.72,84.77h0a.8.8,0,0,0-.46-.22.85.85,0,0,0-.65.22h0a.86.86,0,0,0-.27.58.89.89,0,0,0,.24.6h0a.81.81,0,0,0,1.15,0h0a.8.8,0,0,0,0-1.17Z"/><path class="cls-1" d="M62.43,71.1a.82.82,0,0,0-.91.31.81.81,0,0,0,.09,1,.78.78,0,0,0,.57.24.82.82,0,0,0,.82-.81h0A.82.82,0,0,0,62.43,71.1Z"/><path class="cls-1" d="M62.83,71.4h0a.82.82,0,0,0-1.47.49h0a.81.81,0,0,0,.82.81A.8.8,0,0,0,63,72,.83.83,0,0,0,62.83,71.4Z"/><path class="cls-1" d="M71.84,68.85a.81.81,0,0,0-.48-.48l-3.12-1.12-.08,0a.79.79,0,0,0-.65.11L61.73,71.2h0l.45.67-.46-.67a.86.86,0,0,0-.34.48,1,1,0,0,0,0,.34,1,1,0,0,0,.15.34l4.23,5.77a.85.85,0,0,0,.66.33h0a.82.82,0,0,0,.66-.42l4.68-8.52A.78.78,0,0,0,71.84,68.85Zm-5.54,7.3-3-4.05,4.74-3.18,1.84.66Z"/><path class="cls-1" d="M63,71.75a.81.81,0,0,0-.35-.53l-5.8-3.88a.86.86,0,0,0-.63-.12l-.09,0L53,68.37a.83.83,0,0,0-.49.48.81.81,0,0,0,0,.68l4.68,8.52a.85.85,0,0,0,.66.42h.06a.82.82,0,0,0,.65-.34l2.26-3.07h0l2-2.68A.81.81,0,0,0,63,71.75Zm-3.43,2.34h0L58,76.15l-3.61-6.57,1.84-.66L61,72.1Z"/><path class="cls-1" d="M86.18,82.73,85.13,76.4A5.62,5.62,0,0,0,81.51,72L71.36,68.37a.83.83,0,0,0-.89.23.82.82,0,0,0-.12.9l2.12,4.25-2.08,0a.82.82,0,0,0-.68.4.77.77,0,0,0,0,.79l.85,1.63-8.73,8,0,0-.18.18a.83.83,0,0,0-.14,1h0a.81.81,0,0,0,.71.42H83.25a3,3,0,0,0,2.93-3.46Zm-1.91,1.36a1.33,1.33,0,0,1-1,.47h-19l7.86-7.18a.82.82,0,0,0,.17-1l-.53-1,2.05,0a.84.84,0,0,0,.68-.39.82.82,0,0,0,0-.79l-1.79-3.59,8.24,3a4,4,0,0,1,2.57,3.09l1,6.34h0A1.35,1.35,0,0,1,84.27,84.09Z"/><path class="cls-1" d="M62.73,84.78h0a.81.81,0,0,0-1.12,0h0a.82.82,0,0,0-.17.89.81.81,0,0,0,.75.5h0a.81.81,0,0,0,.76-.52A.8.8,0,0,0,62.73,84.78Z"/><path class="cls-1" d="M62.7,84.75a.83.83,0,0,0-.68-.2.84.84,0,0,0-.57.42h0a.8.8,0,0,0,.13,1h0a.84.84,0,0,0,1.14,0h0a.66.66,0,0,0,.18-.23A.81.81,0,0,0,62.7,84.75Z"/><path class="cls-1" d="M62.74,84.8h0l-.18-.18,0,0-8.73-8L54.65,75a.82.82,0,0,0,0-.79.85.85,0,0,0-.69-.4l-2.08,0L54,69.5a.8.8,0,0,0-.12-.9.82.82,0,0,0-.89-.23L42.82,72A5.62,5.62,0,0,0,39.2,76.4l-1.05,6.33a3,3,0,0,0,2.94,3.46H62.17a.82.82,0,0,0,.75-.5A.83.83,0,0,0,62.74,84.8Zm-21.65-.24a1.35,1.35,0,0,1-1-.47,1.31,1.31,0,0,1-.3-1.09l1.05-6.34a4,4,0,0,1,2.57-3.09l8.24-3-1.79,3.59a.82.82,0,0,0,0,.79.85.85,0,0,0,.68.39l2.05,0-.53,1a.82.82,0,0,0,.17,1l7.86,7.18Z"/><path class="cls-1" d="M64.94,74.78a.84.84,0,0,0-.14-.67l-2-2.7a.82.82,0,0,0-.91-.29.78.78,0,0,0-.42.33l-2,2.64a.75.75,0,0,0-.07.12.82.82,0,0,0,.06.83l.83,1.19-.89,5.55a.84.84,0,0,0,.1.52l1.88,3.44a.83.83,0,0,0,.72.42.81.81,0,0,0,.71-.42l1.9-3.46a.78.78,0,0,0,.1-.39h0a.53.53,0,0,0,0-.13L64,76.23l.82-1.18A.84.84,0,0,0,64.94,74.78Zm-2.77,8.88-1-1.9.88-5.6a.77.77,0,0,0-.13-.59l-.68-1,1-1.32,1,1.33-.68,1a.77.77,0,0,0-.13.59l.88,5.58Z"/></g></g></svg>