<svg xmlns="http://www.w3.org/2000/svg" viewBox="0 0 124 124"><defs><style>.cls-1{fill:#c58bff;}.cls-2{fill:#fff;}</style></defs><g id="Layer_2" data-name="Layer 2"><g id="Ñëîé_1" data-name="Ñëîé 1"><rect class="cls-1" x="70.17" y="68.1" width="4.71" height="1.57"/><rect class="cls-1" x="63.89" y="68.1" width="4.71" height="1.57"/><rect class="cls-1" x="57.61" y="68.1" width="4.71" height="1.57"/><path class="cls-1" d="M82.72,53,67.19,37.49a2.36,2.36,0,0,0-1.67-.7h0a2.32,2.32,0,0,0-1.66.7L47.38,54H38.77a2.36,2.36,0,0,0-2.36,2.36v22a2.36,2.36,0,0,0,2.36,2.36H50.4L52.74,83a2.33,2.33,0,0,0,1.67.7h0a2.32,2.32,0,0,0,1.65-.7l2.35-2.34h18A2.36,2.36,0,0,0,78.8,78.3v-18l3.92-3.91a2.37,2.37,0,0,0,0-3.34Zm-10-7.76L64,54H57.36l12-12ZM65,38.6a.76.76,0,0,1,1.09,0v0l2.22,2.21L55.14,54H49.6ZM55,81.89a.76.76,0,0,1-.55.24.8.8,0,0,1-.56-.24l-1.23-1.23H56.2ZM77.23,78.3a.79.79,0,0,1-.78.79H38.77A.79.79,0,0,1,38,78.3v-11H77.23Zm0-12.56H38V61H77.23Zm0-6.28H38V56.32a.79.79,0,0,1,.79-.79H76.45a.79.79,0,0,1,.78.79Zm4.38-4.21h0l-2.81,2.8V56.32A2.36,2.36,0,0,0,76.45,54H66.24l7.6-7.59,7.77,7.76a.79.79,0,0,1,.23.57A.78.78,0,0,1,81.61,55.25Z"/><path class="cls-1" d="M43.94,77.54a3.22,3.22,0,0,0,.32-.32,3.14,3.14,0,0,0,4.14.53,3.21,3.21,0,0,0,1.36-2.59A3.15,3.15,0,0,0,46.62,72a2.49,2.49,0,0,0-.47,0h0a3.1,3.1,0,0,0-1.85,1,3.14,3.14,0,1,0-.32,4.43Zm2.48-3.93a.65.65,0,0,1,.2,0,1.57,1.57,0,0,1,1.57,1.57,1.52,1.52,0,0,1-.31.92l-.08.12s0,0,0,0a1.6,1.6,0,0,1-1.16.51,1.57,1.57,0,0,1-.2-3.12Zm-4.51,0a1.57,1.57,0,1,1-1.57,1.57A1.57,1.57,0,0,1,41.91,73.59Z"/><circle class="cls-1" cx="62" cy="62" r="62"/><circle class="cls-2" cx="62" cy="62" r="50.55"/><path class="cls-1" d="M63.76,38.55A18.91,18.91,0,0,0,44.87,57.44a21.87,21.87,0,0,0,1.6,7.27,30.31,30.31,0,0,0,2.19,4.09l13,19.63a2.47,2.47,0,0,0,4.31,0l13-19.63a30.31,30.31,0,0,0,2.19-4.09,21.87,21.87,0,0,0,1.6-7.27A18.91,18.91,0,0,0,63.76,38.55ZM79,63.85a29.65,29.65,0,0,1-2,3.73l-13,19.62c-.26.39-.34.39-.59,0l-13-19.62a29.65,29.65,0,0,1-2-3.73,19.69,19.69,0,0,1-1.43-6.41,16.67,16.67,0,0,1,33.34,0A20,20,0,0,1,79,63.85Z"/><path class="cls-1" d="M63.76,47.44a10,10,0,1,0,10,10A10,10,0,0,0,63.76,47.44Zm0,17.78a7.78,7.78,0,1,1,7.78-7.78A7.79,7.79,0,0,1,63.76,65.22Z"/></g></g></svg>