<svg xmlns="http://www.w3.org/2000/svg" viewBox="0 0 124 124"><defs><style>.cls-1{fill:#ffda6e;}.cls-2{fill:#fff;}.cls-3{fill:#c4a457;}</style></defs><g id="Layer_2" data-name="Layer 2"><g id="Ñëîé_1" data-name="Ñëîé 1"><circle class="cls-1" cx="62" cy="62" r="62"/><circle class="cls-2" cx="62" cy="62" r="50.55"/><path class="cls-3" d="M83.33,40.47H79.84v-1.3a.63.63,0,0,0-.63-.63h-19a.63.63,0,0,0-.62.63v1.3H55.08a2.72,2.72,0,0,0-2.72,2.72v4.52a9.3,9.3,0,0,0-15,7.37V57.9A2.24,2.24,0,0,0,36,59.5a2.81,2.81,0,0,0,1.72,3.29v.6a9.12,9.12,0,0,0,4.73,8v2.76l-4.95,2.12h0a5.25,5.25,0,0,0-2.85,4.22v5.85a.63.63,0,0,0,.63.63H58.93a.64.64,0,0,0,.63-.63v-5.7H83.33a2.74,2.74,0,0,0,2.73-2.73V43.19A2.73,2.73,0,0,0,83.33,40.47ZM60.88,39.8h17.7v2.34H60.88ZM38.66,55.08a8,8,0,1,1,16.08,0v2.86c-1.55.17-6.3.42-10.12-2.1a17.49,17.49,0,0,0,8.19-3,.61.61,0,0,0,.13-.87.62.62,0,0,0-.87-.14l0,0c-4.31,3.3-12,3-12.08,3a.63.63,0,0,0-.66.59l-.19,3.1-.41-.21a.07.07,0,0,1,0,0Zm.28,8.31V62.31a.64.64,0,0,0-.52-.62,1.55,1.55,0,0,1-1.26-1.8s0-.06,0-.09a1,1,0,0,1,.56-.68,1.45,1.45,0,0,0,.39.3l1,.52a.79.79,0,0,0,1.08-.34.85.85,0,0,0,.09-.31h0l.2-3.19c.51,0,1.3,0,2.27-.07,5.12,4.36,12.38,3.15,12.69,3.09a.6.6,0,0,0,.19-.06,1,1,0,0,1,.77.75,1.55,1.55,0,0,1-1.14,1.87l-.1,0a.64.64,0,0,0-.52.62v1.08a7.87,7.87,0,0,1-15.74,0Zm13.42,7.23v3.8l-.65-.28V71.08a5.87,5.87,0,0,0,.65-.46Zm-1.9,1.13V74a9,9,0,0,1-6.79,0V72A9.12,9.12,0,0,0,50.46,71.75Zm7.84,14H35.82V80.56A4,4,0,0,1,38,77.4l5.23-2.23a10.15,10.15,0,0,0,7.73,0l5.23,2.23a4,4,0,0,1,2.14,3.16Zm26.5-7.8a1.47,1.47,0,0,1-1.47,1.47h-24a5.23,5.23,0,0,0-2.63-3.11h0L53.62,75V69.46a9.06,9.06,0,0,0,2.31-6.07v-.6a2.82,2.82,0,0,0,1.73-3.29A2.27,2.27,0,0,0,56,57.83V55.08a9.27,9.27,0,0,0-2.38-6.2V43.19a1.46,1.46,0,0,1,1.46-1.47h4.55v1.05a.63.63,0,0,0,.62.63h19a.63.63,0,0,0,.63-.63V41.72h3.49a1.47,1.47,0,0,1,1.47,1.47Z"/><path class="cls-3" d="M80.26,59.16H75.67a.63.63,0,1,0,0,1.26h4.59a.63.63,0,0,0,0-1.26Z"/><path class="cls-3" d="M71.42,60.42H73a.63.63,0,1,0,0-1.26H71.42a.63.63,0,1,0,0,1.26Z"/><path class="cls-3" d="M80.26,66H78.7a.63.63,0,1,0,0,1.26h1.56a.63.63,0,0,0,0-1.26Z"/><path class="cls-3" d="M76.53,67.21a.63.63,0,0,0,0-1.26H68.21a.63.63,0,0,0,0,1.26Z"/><path class="cls-3" d="M66,66h-.56a.63.63,0,1,0,0,1.26H66A.63.63,0,0,0,66,66Z"/><path class="cls-3" d="M59.18,66a.63.63,0,0,0,0,1.26h3.56a.63.63,0,0,0,0-1.26Z"/><path class="cls-3" d="M80.26,72.23h-3.6a.63.63,0,0,0-.62.63.63.63,0,0,0,.62.63h3.6a.63.63,0,0,0,.62-.63.63.63,0,0,0-.62-.63Z"/><path class="cls-3" d="M74.41,72.23H74a.63.63,0,0,0-.63.63.63.63,0,0,0,.63.63h.45a.63.63,0,0,0,.63-.63.63.63,0,0,0-.63-.63Z"/><path class="cls-3" d="M72.19,72.23H68.78a.63.63,0,0,0-.63.63.63.63,0,0,0,.63.63h3.41a.63.63,0,0,0,.63-.63.63.63,0,0,0-.63-.63Z"/><path class="cls-3" d="M66,72.23H59.18a.63.63,0,0,0-.62.63.63.63,0,0,0,.62.63H66a.63.63,0,0,0,.63-.63A.63.63,0,0,0,66,72.23Z"/><path class="cls-3" d="M80.26,53.82h-.41a.63.63,0,1,0,0,1.25h.41a.63.63,0,0,0,0-1.25Z"/><path class="cls-3" d="M72.7,55.07h4.45a.63.63,0,0,0,0-1.25H72.7a.63.63,0,1,0,0,1.25Z"/><path class="cls-3" d="M80.26,48.58H75.77a.63.63,0,0,0,0,1.26h4.49a.63.63,0,0,0,0-1.26Z"/><path class="cls-3" d="M72.7,49.84h.37a.63.63,0,0,0,0-1.26H72.7a.63.63,0,1,0,0,1.26Z"/><path class="cls-3" d="M63.65,60.86A6.91,6.91,0,1,0,56.74,54,6.9,6.9,0,0,0,63.65,60.86Zm0-12.56A5.66,5.66,0,1,1,58,54,5.65,5.65,0,0,1,63.65,48.3Z"/><path class="cls-3" d="M61.8,56.69a.62.62,0,0,0,.89,0l4.59-4.59a.62.62,0,0,0,0-.88.63.63,0,0,0-.88,0l-4.14,4.14L60.9,54a.63.63,0,0,0-.9.88h0Z"/></g></g></svg>