<svg xmlns="http://www.w3.org/2000/svg" viewBox="0 0 124 124"><defs><style>.cls-1{fill:#ffb556;}.cls-2{fill:#fff;}</style></defs><g id="Layer_2" data-name="Layer 2"><g id="Ñëîé_1" data-name="Ñëîé 1"><circle class="cls-1" cx="62" cy="62" r="62"/><circle class="cls-2" cx="62" cy="62" r="50.55"/><path class="cls-1" d="M48.48,86V82.51h3.88V81H48.48V53.92H47V86.63l2,2H68.54V87.08h-19Z"/><path class="cls-1" d="M76.63,36.3H48.93l-2,2v14.1h1.53V38.92l1.09-1.08H76l1.08,1.08V86L76,87.08H70.07v1.53h6.56l2-2V38.29Z"/><path class="cls-1" d="M50,74.4l2,2H73.57l2-2V41.35l-2-2H68.91V40.9h4L74,42V70.26H70.14v1.53H74v2l-1.09,1.08H52.63l-1.08-1.08V68.64H50Z"/><path class="cls-1" d="M67.38,39.37H52l-2,2V67.1h1.53V45.5h3.88V44H51.55V42l1.08-1.08H67.38Z"/><path class="cls-1" d="M59,81.75a3.83,3.83,0,1,0,3.83-3.83A3.84,3.84,0,0,0,59,81.75Zm6.13,0a2.3,2.3,0,1,1-2.3-2.3A2.3,2.3,0,0,1,65.08,81.75Z"/><path class="cls-1" d="M58.62,64.64l7.22-7.22,1.09,1.09-7.22,7.22Z"/><path class="cls-1" d="M58.62,60.31l1.09-1.08,1.08,1.08L59.71,61.4Z"/><path class="cls-1" d="M74,78h1.53v4.6H74Z"/><path class="cls-1" d="M60.79,58.15l5.06-5.06,1.08,1.08-5.06,5.06Z"/><path class="cls-1" d="M74,84.09h1.53v1.53H74Z"/></g></g></svg>