<svg xmlns="http://www.w3.org/2000/svg" viewBox="0 0 124 124"><defs><style>.cls-1{fill:#6ac9ea;}.cls-2{fill:#fff;}</style></defs><g id="Layer_2" data-name="Layer 2"><g id="Ñëîé_1" data-name="Ñëîé 1"><circle class="cls-1" cx="62" cy="62" r="62"/><circle class="cls-2" cx="62" cy="62" r="50.55"/><g id="Calendar"><path class="cls-1" d="M80.14,45.27H76.46V43.79a3,3,0,0,0-5.91,0v1.48h-5.9V43.79a2.95,2.95,0,0,0-5.9,0v1.48h-5.9V43.79a2.95,2.95,0,0,0-5.9,0v1.48H43.26A3.69,3.69,0,0,0,39.58,49v29.5a3.69,3.69,0,0,0,3.68,3.69H63.92a.74.74,0,0,0,0-1.48H43.26a2.21,2.21,0,0,1-2.21-2.21V55.59H82.36V68.13a.74.74,0,1,0,1.47,0V49A3.69,3.69,0,0,0,80.14,45.27ZM72,43.79a1.48,1.48,0,0,1,3,0v4.43a1.48,1.48,0,0,1-3,0Zm-11.8,0a1.48,1.48,0,0,1,3,0v4.43a1.48,1.48,0,0,1-3,0Zm-11.8,0a1.48,1.48,0,0,1,3,0v4.43a1.48,1.48,0,0,1-3,0ZM82.36,54.12H41.05V49a2.23,2.23,0,0,1,2.21-2.22H47v1.48a2.95,2.95,0,0,0,5.9,0V46.74h5.9v1.48a3,3,0,0,0,5.9,0V46.74h5.9v1.48a3,3,0,0,0,5.91,0V46.74h3.68A2.24,2.24,0,0,1,82.36,49Z"/><path class="cls-1" d="M60.23,60.76a1.48,1.48,0,0,0-1.48-1.48h-3a1.47,1.47,0,0,0-1.47,1.48V63a1.48,1.48,0,0,0,1.47,1.48h3A1.48,1.48,0,0,0,60.23,63ZM55.8,63V60.76h3V63Z"/><path class="cls-1" d="M51.38,60.76a1.48,1.48,0,0,0-1.48-1.48H47a1.47,1.47,0,0,0-1.47,1.48V63A1.48,1.48,0,0,0,47,64.45H49.9A1.48,1.48,0,0,0,51.38,63ZM47,63V60.76H49.9V63Z"/><path class="cls-1" d="M76.46,64.45A1.48,1.48,0,0,0,77.93,63V60.76a1.47,1.47,0,0,0-1.47-1.48h-3A1.47,1.47,0,0,0,72,60.76V63a1.48,1.48,0,0,0,1.47,1.48Zm-3-3.69h3V63h-3Z"/><path class="cls-1" d="M60.23,67.4a1.48,1.48,0,0,0-1.48-1.48h-3a1.47,1.47,0,0,0-1.47,1.48v2.21a1.47,1.47,0,0,0,1.47,1.47h3a1.47,1.47,0,0,0,1.48-1.47ZM55.8,69.61V67.4h3v2.21Z"/><path class="cls-1" d="M51.38,67.4a1.48,1.48,0,0,0-1.48-1.48H47a1.47,1.47,0,0,0-1.47,1.48v2.21A1.47,1.47,0,0,0,47,71.08H49.9a1.47,1.47,0,0,0,1.48-1.47ZM47,69.61V67.4H49.9v2.21Z"/><path class="cls-1" d="M58.75,72.56h-3A1.47,1.47,0,0,0,54.33,74v2.22a1.47,1.47,0,0,0,1.47,1.47h3a1.47,1.47,0,0,0,1.48-1.47V74A1.47,1.47,0,0,0,58.75,72.56Zm-3,3.69V74h3v2.22Z"/><path class="cls-1" d="M64.65,64.45H67.6A1.48,1.48,0,0,0,69.08,63V60.76a1.48,1.48,0,0,0-1.48-1.48H64.65a1.47,1.47,0,0,0-1.47,1.48V63A1.48,1.48,0,0,0,64.65,64.45Zm0-3.69H67.6V63H64.65Z"/><path class="cls-1" d="M63.18,69.61a1.47,1.47,0,0,0,1.47,1.47.74.74,0,1,0,0-1.47V67.4H67.6a.74.74,0,0,0,0-1.48H64.65a1.47,1.47,0,0,0-1.47,1.48Z"/><path class="cls-1" d="M49.9,72.56H47A1.47,1.47,0,0,0,45.48,74v2.22A1.47,1.47,0,0,0,47,77.72H49.9a1.47,1.47,0,0,0,1.48-1.47V74A1.47,1.47,0,0,0,49.9,72.56ZM47,76.25V74H49.9v2.22Z"/><path class="cls-1" d="M74.24,65.92a9.59,9.59,0,1,0,9.59,9.59A9.59,9.59,0,0,0,74.24,65.92Zm0,17.7a8.11,8.11,0,1,1,8.12-8.11A8.11,8.11,0,0,1,74.24,83.62Z"/><path class="cls-1" d="M78.5,72.42l-5.73,5.73-2.61-2.6a.74.74,0,0,0-1,1l3.13,3.13a.73.73,0,0,0,1,0l6.26-6.26a.74.74,0,0,0-1-1Z"/></g></g></g></svg>