<svg xmlns="http://www.w3.org/2000/svg" viewBox="0 0 124 124"><defs><style>.cls-1{fill:#ffda6e;}.cls-2{fill:#fff;}</style></defs><g id="Layer_2" data-name="Layer 2"><g id="Ñëîé_1" data-name="Ñëîé 1"><circle class="cls-1" cx="62" cy="62" r="62"/><circle class="cls-2" cx="62" cy="62" r="50.55"/><path class="cls-1" d="M80.27,86.22,77.4,77.75A1.14,1.14,0,0,0,76.32,77h-.17V60.37a14.54,14.54,0,0,0-29.07,0V77h-.16a1.15,1.15,0,0,0-1.09.78L43,86.22a1.15,1.15,0,0,0,.16,1,1.14,1.14,0,0,0,.93.48H79.19a1.14,1.14,0,0,0,1.08-1.51ZM49.37,60.38a12.25,12.25,0,1,1,24.49,0V77H49.37ZM45.64,85.44l2.1-6.18H75.5l2.09,6.18Z"/><path class="cls-1" d="M61.62,29.13a1.15,1.15,0,0,0-1.15,1.15v6.86a1.15,1.15,0,1,0,2.29,0V30.28A1.15,1.15,0,0,0,61.62,29.13Z"/><path class="cls-1" d="M62.43,40.79a1.18,1.18,0,0,0-.81-.33,1.16,1.16,0,0,0-.81.33,1.14,1.14,0,0,0-.34.81,1.16,1.16,0,0,0,1.15,1.15,1.14,1.14,0,0,0,.81-.34,1.16,1.16,0,0,0,.33-.81A1.18,1.18,0,0,0,62.43,40.79Z"/><path class="cls-1" d="M43.25,59.76H38a1.15,1.15,0,1,0,0,2.29h5.25a1.15,1.15,0,0,0,0-2.29Z"/><path class="cls-1" d="M53.91,39.32l-1.55-3.75a1.14,1.14,0,1,0-2.11.88l1.55,3.74a1.15,1.15,0,0,0,1.06.71,1.11,1.11,0,0,0,.43-.09A1.14,1.14,0,0,0,53.91,39.32Z"/><path class="cls-1" d="M40.9,51.09l-3.74-1.55a1.14,1.14,0,1,0-.88,2.11L40,53.2a1.11,1.11,0,0,0,.43.09,1.14,1.14,0,0,0,.44-2.2Z"/><path class="cls-1" d="M85.72,59.76H80.46a1.15,1.15,0,0,0,0,2.29h5.26a1.15,1.15,0,0,0,0-2.29Z"/><path class="cls-1" d="M84.25,38.28a1.14,1.14,0,0,0-1.62,0L77,43.91a1.14,1.14,0,0,0,.81,2,1.17,1.17,0,0,0,.81-.33l5.63-5.63A1.16,1.16,0,0,0,84.25,38.28Z"/><path class="cls-1" d="M46.24,43.91l-5.63-5.63A1.15,1.15,0,0,0,39,39.9l5.63,5.63a1.13,1.13,0,0,0,.81.33,1.14,1.14,0,0,0,.81-2Z"/><path class="cls-1" d="M72.37,35a1.15,1.15,0,0,0-1.5.62l-1.55,3.75a1.14,1.14,0,0,0,.62,1.49,1.12,1.12,0,0,0,.44.09,1.16,1.16,0,0,0,1.06-.71L73,36.45A1.16,1.16,0,0,0,72.37,35Z"/><path class="cls-1" d="M87.57,50.16a1.14,1.14,0,0,0-1.49-.62l-3.75,1.55a1.14,1.14,0,1,0,.88,2.11L87,51.65A1.14,1.14,0,0,0,87.57,50.16Z"/><path class="cls-1" d="M61.62,53.05a3.44,3.44,0,0,0-3.44,3.44V62a3.44,3.44,0,0,0,6.87,0V56.49A3.44,3.44,0,0,0,61.62,53.05ZM62.76,62a1.15,1.15,0,0,1-2.29,0V56.49a1.15,1.15,0,1,1,2.29,0Z"/><path class="cls-1" d="M61.62,67.7a3.44,3.44,0,1,0,3.43,3.43A3.44,3.44,0,0,0,61.62,67.7Zm0,4.58a1.15,1.15,0,1,1,0-2.29,1.15,1.15,0,0,1,0,2.29Z"/></g></g></svg>