<svg xmlns="http://www.w3.org/2000/svg" viewBox="0 0 124 124"><defs><style>.cls-1{fill:#c58bff;}.cls-2{fill:#fff;}</style></defs><g id="Layer_2" data-name="Layer 2"><g id="Ñëîé_1" data-name="Ñëîé 1"><rect class="cls-1" x="70.17" y="68.1" width="4.71" height="1.57"/><rect class="cls-1" x="63.89" y="68.1" width="4.71" height="1.57"/><rect class="cls-1" x="57.61" y="68.1" width="4.71" height="1.57"/><path class="cls-1" d="M82.72,53,67.19,37.49a2.36,2.36,0,0,0-1.67-.7h0a2.32,2.32,0,0,0-1.66.7L47.38,54H38.77a2.36,2.36,0,0,0-2.36,2.36v22a2.36,2.36,0,0,0,2.36,2.36H50.4L52.74,83a2.33,2.33,0,0,0,1.67.7h0a2.32,2.32,0,0,0,1.65-.7l2.35-2.34h18A2.36,2.36,0,0,0,78.8,78.3v-18l3.92-3.91a2.37,2.37,0,0,0,0-3.34Zm-10-7.76L64,54H57.36l12-12ZM65,38.6a.76.76,0,0,1,1.09,0v0l2.22,2.21L55.14,54H49.6ZM55,81.89a.76.76,0,0,1-.55.24.8.8,0,0,1-.56-.24l-1.23-1.23H56.2ZM77.23,78.3a.79.79,0,0,1-.78.79H38.77A.79.79,0,0,1,38,78.3v-11H77.23Zm0-12.56H38V61H77.23Zm0-6.28H38V56.32a.79.79,0,0,1,.79-.79H76.45a.79.79,0,0,1,.78.79Zm4.38-4.21h0l-2.81,2.8V56.32A2.36,2.36,0,0,0,76.45,54H66.24l7.6-7.59,7.77,7.76a.79.79,0,0,1,.23.57A.78.78,0,0,1,81.61,55.25Z"/><path class="cls-1" d="M43.94,77.54a3.22,3.22,0,0,0,.32-.32,3.14,3.14,0,0,0,4.14.53,3.21,3.21,0,0,0,1.36-2.59A3.15,3.15,0,0,0,46.62,72a2.49,2.49,0,0,0-.47,0h0a3.1,3.1,0,0,0-1.85,1,3.14,3.14,0,1,0-.32,4.43Zm2.48-3.93a.65.65,0,0,1,.2,0,1.57,1.57,0,0,1,1.57,1.57,1.52,1.52,0,0,1-.31.92l-.08.12s0,0,0,0a1.6,1.6,0,0,1-1.16.51,1.57,1.57,0,0,1-.2-3.12Zm-4.51,0a1.57,1.57,0,1,1-1.57,1.57A1.57,1.57,0,0,1,41.91,73.59Z"/><circle class="cls-1" cx="62" cy="62" r="62"/><circle class="cls-2" cx="62" cy="62" r="50.55"/><rect class="cls-1" x="69.67" y="64.52" width="4.71" height="1.57"/><rect class="cls-1" x="63.39" y="64.52" width="4.71" height="1.57"/><rect class="cls-1" x="57.11" y="64.52" width="4.71" height="1.57"/><path class="cls-1" d="M82.22,49.45,66.69,33.91A2.4,2.4,0,0,0,65,33.22h0a2.36,2.36,0,0,0-1.66.69L46.88,50.39H38.27a2.36,2.36,0,0,0-2.36,2.36v22a2.36,2.36,0,0,0,2.36,2.35H49.9l2.34,2.35a2.36,2.36,0,0,0,1.67.69h0a2.31,2.31,0,0,0,1.65-.69l2.35-2.35H76a2.35,2.35,0,0,0,2.35-2.35v-18l3.92-3.91a2.36,2.36,0,0,0,.69-1.66A2.3,2.3,0,0,0,82.22,49.45Zm-10-7.77-8.7,8.71H56.86l12-12ZM64.47,35a.77.77,0,0,1,1.09,0h0l2.22,2.22L54.64,50.39H49.1Zm-10,43.3a.75.75,0,0,1-.55.23.79.79,0,0,1-.56-.23l-1.23-1.24H55.7Zm22.27-3.59a.78.78,0,0,1-.78.78H38.27a.78.78,0,0,1-.79-.78v-11H76.73Zm0-12.56H37.48V57.46H76.73Zm0-6.28H37.48V52.75a.79.79,0,0,1,.79-.79H76a.78.78,0,0,1,.78.79Zm4.38-4.22h0L78.3,54.48V52.75A2.35,2.35,0,0,0,76,50.39H65.74l7.6-7.6,7.77,7.77a.79.79,0,0,1,.23.56A.75.75,0,0,1,81.11,51.67Z"/><path class="cls-1" d="M43.44,74a2.42,2.42,0,0,0,.32-.32,3.12,3.12,0,0,0,4.14.53,3.19,3.19,0,0,0,1.36-2.58,3.14,3.14,0,0,0-3.14-3.14,1.87,1.87,0,0,0-.47,0h0a3.14,3.14,0,0,0-1.85,1A3.14,3.14,0,1,0,43.44,74ZM45.92,70a.66.66,0,0,1,.2,0,1.57,1.57,0,0,1,1.57,1.57,1.54,1.54,0,0,1-.31.92l-.08.12h0A1.56,1.56,0,1,1,45.92,70Zm-4.51,0a1.57,1.57,0,1,1-1.57,1.57A1.57,1.57,0,0,1,41.41,70Z"/></g></g></svg>