<svg xmlns="http://www.w3.org/2000/svg" xmlns:xlink="http://www.w3.org/1999/xlink" viewBox="0 0 1029.84 652.36"><defs><style>.cls-1{fill:url(#linear-gradient);}.cls-2{fill:#0084c9;}.cls-3{fill:#708fff;}.cls-4{fill:#1ea4e0;}.cls-5{fill:#94d4ea;}.cls-6{fill:#e2eafe;}.cls-7{fill:#ffb1d0;}.cls-8{fill:#fe7592;}.cls-9{fill:#fff;}.cls-10{fill:none;stroke:#231f20;stroke-miterlimit:10;stroke-width:1.24px;}.cls-11{fill:#353535;}.cls-12{fill:#baeaf7;}.cls-13{fill:#221473;}.cls-14{fill:#feab00;}.cls-15{fill:#ffd4e5;}.cls-16{fill:#ffda6e;}.cls-17{fill:#e6eeff;}.cls-18{fill:#ffc31b;}.cls-19{fill:#ffd769;}.cls-20{fill:#ffdc7d;}.cls-21{fill:#ffad24;}.cls-22{fill:#ffe08a;}</style><linearGradient id="linear-gradient" x1="66.07" y1="543.36" x2="1029.84" y2="543.36" gradientUnits="userSpaceOnUse"><stop offset="0" stop-color="#56a247"/><stop offset="1" stop-color="#ebf48b"/></linearGradient></defs><g id="Layer_2" data-name="Layer 2"><g id="Ñëîé_1" data-name="Ñëîé 1"><path class="cls-1" d="M1029.84,652.36V469.89A864.64,864.64,0,0,0,931.57,446c-62.29-11.14-138.91-15.88-204.48-7-45.39,6.13-81.06,18-115.4,29.57L66.07,652.36Z"/><path class="cls-2" d="M667,418.25H665.4v-.4H667Zm0-9.73H665.4v-9.34H667Zm0-18.67H665.4v-9.33H667Zm0-18.66H665.4v-9.33H667Zm0-18.66H665.4V343.2H667Zm-1.56-18.66v-9.33H667v9.33ZM667,315.2H665.4v-9.33H667Zm0-18.66H665.4v-9.33H667Zm0-18.66H665.4v-9.33H667Zm0-18.66H665.4v-9.33H667Zm0-18.66H665.4v-9.34H667Z"/><path class="cls-3" d="M151.25,124.75h-1.56v-9.33h1.56Zm0-18.67h-1.56V96.75h1.56Zm0-18.66h-1.56V78.09h1.56Zm0-18.66h-1.56V59.43h1.56Zm0-18.66h-1.56V40.77h1.56Zm0-18.66h-1.56V22.11h1.56Zm0-18.67h-1.56V8h1.56Z"/><rect class="cls-2" x="533.93" y="74.84" width="1.56" height="4.67"/><path class="cls-2" d="M535.49,371.58h-1.56v-9.13h1.56Zm0-18.26h-1.56V344.2h1.56Zm0-18.25h-1.56v-9.13h1.56Zm0-18.26h-1.56v-9.12h1.56Zm0-18.25h-1.56v-9.13h1.56Zm0-18.26h-1.56v-9.12h1.56Zm0-18.25h-1.56v-9.13h1.56Zm0-18.26h-1.56v-9.12h1.56Zm0-18.25h-1.56v-9.13h1.56Zm0-18.26h-1.56v-9.12h1.56Zm0-18.25h-1.56V179.9h1.56Zm0-18.25h-1.56v-9.13h1.56Zm0-18.26h-1.56v-9.13h1.56Zm0-18.25h-1.56v-9.13h1.56Zm0-18.26h-1.56v-9.13h1.56Zm0-18.25h-1.56V88.63h1.56Z"/><polygon class="cls-2" points="535.49 386.15 530.04 386.15 530.04 384.59 533.93 384.59 533.93 380.7 535.49 380.7 535.49 386.15"/><path class="cls-2" d="M520.91,386.15h-9.14v-1.56h9.14Zm-18.27,0H493.5v-1.56h9.14Zm-18.27,0h-9.14v-1.56h9.14Z"/><rect class="cls-2" x="461.43" y="384.59" width="4.67" height="1.56"/><rect class="cls-2" x="665.4" y="125.98" width="1.56" height="4.67"/><path class="cls-2" d="M667,219.06H665.4v-8.84H667Zm0-17.68H665.4v-8.84H667Zm0-17.68H665.4v-8.85H667ZM667,166H665.4v-8.84H667Zm0-17.68H665.4v-8.84H667Z"/><polygon class="cls-2" points="666.96 233.35 661.51 233.35 661.51 231.79 665.4 231.79 665.4 227.9 666.96 227.9 666.96 233.35"/><path class="cls-2" d="M652.26,233.35H643v-1.56h9.25Zm-18.5,0h-9.25v-1.56h9.25Zm-18.49,0H606v-1.56h9.25Zm-18.5,0h-9.25v-1.56h9.25Zm-18.5,0H569v-1.56h9.25Zm-18.5,0h-9.25v-1.56h9.25Z"/><rect class="cls-2" x="536.6" y="231.79" width="4.67" height="1.56"/><rect class="cls-2" x="603.21" y="202.95" width="125.94" height="59.13"/><rect class="cls-4" x="641.38" y="174.3" width="49.61" height="116.42" transform="translate(898.69 -433.67) rotate(90)"/><path class="cls-5" d="M608,220.26a12.56,12.56,0,0,0,12.56-12.56H608Z"/><path class="cls-5" d="M724.39,220.26a12.56,12.56,0,0,1-12.56-12.56h12.56Z"/><path class="cls-5" d="M608,244.76a12.55,12.55,0,0,1,12.56,12.55H608Z"/><path class="cls-5" d="M724.39,244.76a12.55,12.55,0,0,0-12.56,12.55h12.56Z"/><circle class="cls-5" cx="666.18" cy="232.51" r="19.24"/><path class="cls-6" d="M674.53,237.86c0-4.9-3.89-6.17-7.08-7.43v-5.87a3.51,3.51,0,0,1,1.71,1,2.34,2.34,0,0,0,2.9.4h0a2.37,2.37,0,0,0,.54-3.65,8.31,8.31,0,0,0-5.15-2.54v-1.55a1.57,1.57,0,0,0-1.57-1.58h0a1.57,1.57,0,0,0-1.57,1.58v1.59c-3.36.59-6.21,2.94-6.21,7,0,4.35,3.14,6,6.21,7.25v6.21a4.42,4.42,0,0,1-2.11-1.33,2.4,2.4,0,0,0-3-.54l-.17.1a2.36,2.36,0,0,0-.67,3.51,9,9,0,0,0,6,3.12v1.67a1.57,1.57,0,0,0,1.57,1.57h0a1.57,1.57,0,0,0,1.57-1.57v-1.63C671.52,244.67,674.53,242.11,674.53,237.86Zm-11.62-11a2.27,2.27,0,0,1,1.4-2.14v4.23A2.35,2.35,0,0,1,662.91,226.84Zm4.54,13.51v-5c1.43.66,2.23,1.36,2.23,2.59A2.5,2.5,0,0,1,667.45,240.35Z"/><path class="cls-7" d="M461.43,238.93s19.21-11.72,17.82-36.31-22.89-18-22.89-18Z"/><path class="cls-7" d="M165.61,418.25c19.73-90.7,33-114.24,38.15-131.63s48.08-118.63,66.5-116.1,15.35,17.73,8.19,47.47S255,286.62,255,286.62l1.87,76.12Z"/><path class="cls-8" d="M167.65,411l88.26-88L255,286.62s5.64-13.48,11.74-30.64L255,182.17s-6.93,93.53-9.94,114.43l-32.71,15.57s-22,25.41-32.61,50C176.35,373.15,171.89,394.23,167.65,411Z"/><path class="cls-7" d="M463.13,374.29S481.75,353.94,488,333s9.09-29.29-3.1-38.6c-7.38-5.64-33.35,43.22-33.35,43.22v48.09Z"/><path class="cls-7" d="M460.08,256.14s16.68-6.39,22.89,6.54,5.59,23.79-7.43,41-24,33.91-24,33.91Z"/><path class="cls-8" d="M479.25,296.07s-13.37,11.66-14.49,27.78S469.14,367,469.14,367l-25.53,30.28,10.58-137.36,5.89-3.79s.79,40.68,4.13,42.22S479.25,296.07,479.25,296.07Z"/><path class="cls-7" d="M252.87,533.19l34.78,22.51s57.3-22.51,79.81-50.13S436,412.47,436,412.47L286.63,326.32,245.08,330l-18.81,98.81Z"/><path class="cls-8" d="M435.32,412.07,304.26,336.49,257.68,351.2l-19.33,14.21L232,398.68,242,441l27.7,51.21s10.76-6.94,14.37-16.4L399.3,463.61h0c15.68-21.42,30.62-42.53,35.25-49.07Z"/><polygon class="cls-7" points="161.64 507.62 95.14 625.75 264.13 625.75 287.65 555.7 255.02 507.62 161.64 507.62"/><path class="cls-5" d="M292.21,24.22v90H243.77v-90a24.22,24.22,0,1,1,48.44,0Z"/><path class="cls-9" d="M243.77,57.54V90a24.22,24.22,0,0,1-48.44,0V57.54Z"/><path class="cls-5" d="M255,78.84v35.4h-35.4A24.22,24.22,0,0,0,243.77,90V78.84Z"/><rect class="cls-10" x="254.94" y="63.12" width="206.11" height="397.82" rx="46.33"/><rect class="cls-10" x="181.99" y="168.14" width="352.01" height="187.79" rx="13.08" transform="translate(620.03 -95.97) rotate(90)"/><rect class="cls-11" x="254.94" y="63.12" width="206.11" height="397.82" rx="46.33"/><rect class="cls-12" x="181.99" y="168.14" width="352.01" height="187.79" rx="13.08" transform="translate(620.03 -95.97) rotate(90)"/><circle class="cls-10" cx="356.82" cy="73.98" r="5.14"/><circle class="cls-13" cx="356.82" cy="73.98" r="5.14"/><rect class="cls-14" x="270.09" y="363.62" width="175.83" height="45.06" rx="22.53"/><path class="cls-9" d="M307,383.42a6.28,6.28,0,0,1-6.51,6.38h-2.42v5.47h-4.67V377h7.09A6.28,6.28,0,0,1,307,383.42Zm-4.66,0a1.83,1.83,0,0,0-1.85-1.93h-2.42v3.88h2.42A1.85,1.85,0,0,0,302.36,383.42Z"/><path class="cls-9" d="M320.09,392.64H314l-.78,2.63h-5.05l6-18.23h5.67l6,18.23h-5Zm-1.2-4-1.84-6.2-1.83,6.2Z"/><path class="cls-9" d="M336.87,388.26v7H332.2v-7L326.06,377h5.23l3.23,6.74,3.26-6.74H343Z"/><path class="cls-9" d="M370.25,377v18.23h-3.59l-6.43-9.17v9.17h-4.67V377h3.63l6.43,9.16V377Z"/><path class="cls-9" d="M375.05,386.15a9.56,9.56,0,1,1,9.55,9.51A9.43,9.43,0,0,1,375.05,386.15Zm14.48,0a4.93,4.93,0,1,0-4.93,5A4.79,4.79,0,0,0,389.53,386.15Z"/><path class="cls-9" d="M396.72,377h5l2.81,11.48L407.81,377h3.67l3.26,11.48L417.58,377h5l-5.08,18.23h-4.92L409.66,385l-2.92,10.29h-4.92Z"/><circle class="cls-9" cx="358" cy="263.41" r="49.06" transform="translate(19.39 551.31) rotate(-76.72)"/><circle class="cls-2" cx="358" cy="249.4" r="22.8"/><path class="cls-2" d="M358,312.47a48.85,48.85,0,0,0,32-11.87,34.13,34.13,0,0,0-64,0A48.85,48.85,0,0,0,358,312.47Z"/><path class="cls-9" d="M385.19,328.1H330.81a3.13,3.13,0,0,1-3.13-3.12h0a3.13,3.13,0,0,1,3.13-3.13h54.38a3.13,3.13,0,0,1,3.13,3.13h0A3.13,3.13,0,0,1,385.19,328.1Z"/><path class="cls-9" d="M374.37,341.3H341.63a3.13,3.13,0,0,1-3.12-3.13h0a3.12,3.12,0,0,1,3.12-3.12h32.74a3.12,3.12,0,0,1,3.12,3.12h0A3.13,3.13,0,0,1,374.37,341.3Z"/><rect class="cls-4" x="343.08" y="75.4" width="32.3" height="173.37" rx="16.15" transform="translate(521.32 -197.14) rotate(90)"/><path class="cls-2" d="M429.77,171.78H288.69a9.69,9.69,0,0,1,0-19.38H429.77a9.69,9.69,0,0,1,0,19.38Z"/><path class="cls-9" d="M292.21,0V24.22A24.22,24.22,0,0,0,268,0Z"/><path class="cls-9" d="M292.22,0V171.78h134V24.64A24.64,24.64,0,0,0,401.6,0Z"/><path class="cls-5" d="M334.38,77.3h-26.1a2.46,2.46,0,0,1-2.46-2.46h0a2.46,2.46,0,0,1,2.46-2.47h26.1a2.46,2.46,0,0,1,2.46,2.47h0A2.46,2.46,0,0,1,334.38,77.3Z"/><path class="cls-5" d="M372,48.09h-26.1a2.46,2.46,0,0,1-2.46-2.46h0a2.47,2.47,0,0,1,2.46-2.47H372a2.47,2.47,0,0,1,2.46,2.47h0A2.46,2.46,0,0,1,372,48.09Z"/><path class="cls-5" d="M409.66,77.3h-6.84a2.46,2.46,0,0,1-2.47-2.46h0a2.46,2.46,0,0,1,2.47-2.47h6.84a2.46,2.46,0,0,1,2.46,2.47h0A2.46,2.46,0,0,1,409.66,77.3Z"/><path class="cls-5" d="M322.44,87H308.28a2.47,2.47,0,0,1-2.46-2.47h0a2.46,2.46,0,0,1,2.46-2.46h14.16a2.47,2.47,0,0,1,2.47,2.46h0A2.48,2.48,0,0,1,322.44,87Z"/><path class="cls-5" d="M348.85,87H330.56a2.47,2.47,0,0,1-2.47-2.47h0a2.46,2.46,0,0,1,2.47-2.46h18.29a2.46,2.46,0,0,1,2.47,2.46h0A2.47,2.47,0,0,1,348.85,87Z"/><path class="cls-5" d="M409.66,87h-6.84a2.47,2.47,0,0,1-2.47-2.47h0a2.46,2.46,0,0,1,2.47-2.46h6.84a2.46,2.46,0,0,1,2.46,2.46h0A2.47,2.47,0,0,1,409.66,87Z"/><rect class="cls-5" x="305.82" y="91.78" width="26.09" height="4.93" rx="2.47"/><rect class="cls-5" x="335.09" y="91.78" width="9.71" height="4.93" rx="2.47"/><rect class="cls-5" x="400.35" y="91.78" width="11.77" height="4.93" rx="2.47"/><path class="cls-5" d="M334.38,106.42h-26.1a2.47,2.47,0,0,1-2.46-2.47h0a2.46,2.46,0,0,1,2.46-2.46h26.1a2.46,2.46,0,0,1,2.46,2.46h0A2.47,2.47,0,0,1,334.38,106.42Z"/><path class="cls-5" d="M409.66,106.42h-6.84a2.47,2.47,0,0,1-2.47-2.47h0a2.46,2.46,0,0,1,2.47-2.46h6.84a2.46,2.46,0,0,1,2.46,2.46h0A2.47,2.47,0,0,1,409.66,106.42Z"/><path class="cls-5" d="M322.44,116.12H308.28a2.46,2.46,0,0,1-2.46-2.46h0a2.47,2.47,0,0,1,2.46-2.47h14.16a2.48,2.48,0,0,1,2.47,2.47h0A2.47,2.47,0,0,1,322.44,116.12Z"/><path class="cls-5" d="M348.85,116.12H330.56a2.46,2.46,0,0,1-2.47-2.46h0a2.47,2.47,0,0,1,2.47-2.47h18.29a2.47,2.47,0,0,1,2.47,2.47h0A2.46,2.46,0,0,1,348.85,116.12Z"/><path class="cls-5" d="M409.66,116.12h-6.84a2.46,2.46,0,0,1-2.47-2.46h0a2.47,2.47,0,0,1,2.47-2.47h6.84a2.47,2.47,0,0,1,2.46,2.47h0A2.46,2.46,0,0,1,409.66,116.12Z"/><path class="cls-5" d="M329.44,149H308.28a2.46,2.46,0,0,1-2.46-2.46h0a2.47,2.47,0,0,1,2.46-2.47h21.16a2.47,2.47,0,0,1,2.47,2.47h0A2.46,2.46,0,0,1,329.44,149Z"/><path class="cls-5" d="M342.33,149h-4.77a2.47,2.47,0,0,1-2.47-2.46h0a2.48,2.48,0,0,1,2.47-2.47h4.77a2.48,2.48,0,0,1,2.47,2.47h0A2.47,2.47,0,0,1,342.33,149Z"/><path class="cls-5" d="M412.64,148.05c0-3.77-3-4.74-5.43-5.71v-4.5a2.7,2.7,0,0,1,1.31.78,1.82,1.82,0,0,0,2.23.31h0a1.83,1.83,0,0,0,.41-2.81,6.29,6.29,0,0,0-4-1.94V133a1.2,1.2,0,0,0-1.2-1.2h0a1.21,1.21,0,0,0-1.21,1.2v1.22a5.35,5.35,0,0,0-4.77,5.36c0,3.34,2.41,4.62,4.77,5.57v4.76a3.46,3.46,0,0,1-1.62-1,1.85,1.85,0,0,0-2.31-.42l-.13.08a1.81,1.81,0,0,0-.52,2.69,6.92,6.92,0,0,0,4.58,2.4v1.28a1.21,1.21,0,0,0,1.21,1.21h0a1.21,1.21,0,0,0,1.2-1.21v-1.25C410.33,153.27,412.64,151.31,412.64,148.05Zm-8.92-8.46A1.74,1.74,0,0,1,404.8,138v3.25A1.81,1.81,0,0,1,403.72,139.59ZM407.21,150v-3.87c1.1.51,1.71,1,1.71,2A1.91,1.91,0,0,1,407.21,150Z"/><rect class="cls-5" x="305.82" y="124.65" width="106.31" height="1.33"/><rect class="cls-5" x="305.82" y="63.06" width="106.31" height="1.33"/><rect class="cls-5" x="328.02" y="18.93" width="61.9" height="13.46" rx="6.73"/><path class="cls-7" d="M161.64,507.62s-7-69.58,9.38-105.39,35.81-75.71,44-83.89,33.77-5.12,60.37-8.19,52.82-15.34,54.54,3.07-22.83,40.29-49.43,43.17-30.05,12.23-30.05,12.23l-9.19,30.54s56.63,76.74,11.62,134Z"/><path class="cls-15" d="M311.63,303.67s2.08,12.74-3.58,16.66c-3.53,2.44-11,4.16-16.08,5.12a5.7,5.7,0,0,1-6.61-4.37c-.9-4.09-1.85-9.51-1.32-12.21Z"/><path class="cls-16" d="M295.57,649.53c-1.15-11.39-10.05-73.26-68.73-89C162.14,543.2,94.53,562,94.53,562L71.61,574.4a20.43,20.43,0,0,0-7.2,6.5l-46.7,68.63Z"/><path class="cls-17" d="M218,577.32c51.69,20.54,72.87,63,77,72.21h1.58L313.92,611s-1.87-41.51-72.05-82.32-126.34-9.11-126.34-9.11L94.53,562S159.78,554.2,218,577.32Z"/><path class="cls-18" d="M135,530.33c-7.5-1.72-19.13,21.35-7.23,23.07S146.66,533,135,530.33Z"/><rect class="cls-19" x="502.71" y="115.66" width="64.01" height="64.01" rx="25.61"/><path class="cls-9" d="M528.84,131A10.84,10.84,0,0,0,518,141.8a1.55,1.55,0,0,0,3.09,0,7.74,7.74,0,0,1,7.73-7.74,1.55,1.55,0,1,0,0-3.09Z"/><path class="cls-9" d="M556.68,164.36,547,154.62a1.56,1.56,0,0,0-2.19,0l-.45.46-2.4-2.4a17.13,17.13,0,1,0-2.19,2.18l2.4,2.4-.45.46a1.55,1.55,0,0,0,0,2.18l9.73,9.74a3.11,3.11,0,0,0,4.38,0l.9-.91a3.08,3.08,0,0,0,0-4.37ZM514.93,141.8a13.92,13.92,0,1,1,23.81,9.77l-.07.06,0,.07a13.91,13.91,0,0,1-23.69-9.9Zm39.57,24.74h0l-.91.91L545,158.81l.45-.45h0l.46-.46,8.64,8.64Z"/><rect class="cls-19" x="634.18" y="299.54" width="64.01" height="64.01" rx="25.61"/><path class="cls-9" d="M666.18,354.69a23.15,23.15,0,1,1,23.15-23.15A23.18,23.18,0,0,1,666.18,354.69Zm0-43.21a20.06,20.06,0,1,0,20.06,20.06A20.08,20.08,0,0,0,666.18,311.48Z"/><path class="cls-9" d="M666.18,325.37a4.63,4.63,0,1,1,4.63-4.63A4.64,4.64,0,0,1,666.18,325.37Zm0-6.18a1.55,1.55,0,1,0,1.54,1.55A1.55,1.55,0,0,0,666.18,319.19Z"/><path class="cls-9" d="M666.18,347a4.64,4.64,0,0,1-4.63-4.63v-10.8a4.63,4.63,0,1,1,9.26,0v10.8A4.64,4.64,0,0,1,666.18,347Zm0-17a1.54,1.54,0,0,0-1.54,1.54v10.8a1.54,1.54,0,0,0,3.08,0v-10.8A1.54,1.54,0,0,0,666.18,330Z"/><rect class="cls-5" x="502.71" y="200.5" width="64.01" height="64.01" rx="25.61"/><path class="cls-9" d="M554.4,237.1a3.92,3.92,0,0,0-1.83-3.31,3.88,3.88,0,0,0,.52-1.94,4,4,0,0,0-3.94-3.94H536v-10.5a3.93,3.93,0,0,0-3.93-3.93H530.7a2.6,2.6,0,0,0-2.61,2.38,16.62,16.62,0,0,1-2.35,7.39,39.08,39.08,0,0,0-3.29,6.13,2.47,2.47,0,0,0-.86-.15h-3.94a2.62,2.62,0,0,0-2.63,2.62v17.06a2.63,2.63,0,0,0,2.63,2.63h3.94a2.63,2.63,0,0,0,2.56-2.06c1.51,1,3.57,2.06,5.31,2.06h17.06a4,4,0,0,0,3.94-3.94,3.9,3.9,0,0,0-.28-1.45,4,4,0,0,0,2.91-3.8,3.84,3.84,0,0,0-.52-1.93A3.92,3.92,0,0,0,554.4,237.1Zm-32.81,11.81h-3.94V231.85h3.94Zm27.56-5.25H543.9a1.32,1.32,0,0,0,0,2.63h2.62a1.31,1.31,0,1,1,0,2.62H529.46c-1.4,0-3.78-1.46-5.25-2.6V232.08a36.15,36.15,0,0,1,3.72-7.37,19.28,19.28,0,0,0,2.77-8.61h1.39a1.31,1.31,0,0,1,1.31,1.31v11.82a1.31,1.31,0,0,0,1.31,1.31h14.44a1.31,1.31,0,1,1,0,2.62H543.9a1.32,1.32,0,0,0,0,2.63h6.56a1.31,1.31,0,0,1,0,2.62H543.9a1.32,1.32,0,0,0,0,2.63h5.25a1.31,1.31,0,1,1,0,2.62Z"/><rect class="cls-5" x="522.96" y="63.08" width="23.51" height="23.51" rx="9.4"/><rect class="cls-2" x="654.43" y="391.29" width="23.51" height="23.51" rx="9.4"/><rect class="cls-19" x="653.37" y="123.26" width="25.61" height="25.61" rx="10.25"/><rect class="cls-19" x="515.46" y="305.72" width="38.5" height="38.5" rx="15.4"/><rect class="cls-19" x="138.72" y="7.18" width="23.51" height="23.51" rx="9.4"/><rect class="cls-19" x="131.22" y="62.77" width="38.5" height="38.5" rx="15.4"/><path class="cls-2" d="M148.17,288.41h-1.55v-9.34h1.55Zm0-18.67h-1.55v-9.33h1.55Zm0-18.66h-1.55v-9.33h1.55Zm0-18.66h-1.55v-9.33h1.55Zm0-18.66h-1.55v-9.33h1.55Zm0-18.67h-1.55v-9.33h1.55Zm0-18.66h-1.55V167.1h1.55Zm106.77-13h-9.33V161.9h9.33Zm-18.66,0H227V161.9h9.33Zm-18.66,0h-9.33V161.9h9.33Zm-18.66,0h-9.33V161.9H199Zm-18.67,0H171V161.9h9.33Zm-18.66,0H152.3V161.9h9.33Z"/><path class="cls-2" d="M41.54,381.72H40v-9.33h1.56Zm0-18.67H40v-9.33h1.56Zm0-18.66H40v-9.33h1.56Zm0-18.66H40V316.4h1.56Zm0-18.66H40v-9.33h1.56Zm0-18.66H40v-9.34h1.56Zm0-18.67H40v-9.33h1.56Zm0-18.66H40v-9.33h1.56Zm0-18.66H40v-9.33h1.56Zm0-18.66H40v-9.33h1.56Zm0-18.67H40v-9.33h1.56Zm0-18.66H40V167.1h1.56Zm106.77-13H139V161.9h9.33Zm-18.67,0h-9.33V161.9h9.33Zm-18.66,0h-9.33V161.9H111Zm-18.66,0H83V161.9h9.33Zm-18.66,0H64.33V161.9h9.33Zm-18.66,0H45.66V161.9H55Z"/><rect class="cls-5" x="115.39" y="240.2" width="64.01" height="64.01" rx="25.61"/><path class="cls-9" d="M147.39,273.71a12,12,0,1,0-12-12A12,12,0,0,0,147.39,273.71Zm0-21a9,9,0,1,1-9,9A9,9,0,0,1,147.39,252.66Z"/><path class="cls-9" d="M146.79,263.18H148a.91.91,0,0,1,0,1.81h-1.21a.91.91,0,0,1-.86-.65,1.51,1.51,0,0,0-2.89.85,4,4,0,0,0,2.87,2.7.34.34,0,0,0,0,.1,1.31,1.31,0,0,0,.09.28.94.94,0,0,0,.14.26,1.21,1.21,0,0,0,.41.41.94.94,0,0,0,.26.14,1.31,1.31,0,0,0,.28.09l.29,0,.3,0a1.31,1.31,0,0,0,.28-.09.94.94,0,0,0,.26-.14,1.56,1.56,0,0,0,.64-.95.34.34,0,0,1,0-.1,3.91,3.91,0,0,0-.88-7.71h-1.21a.91.91,0,0,1,0-1.81H148a.89.89,0,0,1,.85.62,1.51,1.51,0,0,0,1.9.95,1.49,1.49,0,0,0,.95-1.9,3.89,3.89,0,0,0-2.82-2.57.31.31,0,0,1,0-.1,1.52,1.52,0,0,0-.09-.28,1.65,1.65,0,0,0-.14-.26,1.3,1.3,0,0,0-.18-.23,2,2,0,0,0-.23-.18,1.61,1.61,0,0,0-.54-.23,1.54,1.54,0,0,0-1.36.41,1.81,1.81,0,0,0-.18.23,1.1,1.1,0,0,0-.14.26,1.52,1.52,0,0,0-.09.28.38.38,0,0,0,0,.1,3.9,3.9,0,0,0,.88,7.71Z"/><path class="cls-9" d="M167.94,279a4.48,4.48,0,0,0-4.24-.41l-11.86,4.94a5,5,0,0,0,.06-.78,4.51,4.51,0,0,0-4.51-4.51h-7.07c-1.27-.8-5-3-8-3-3.53,0-6.72,3.1-7.08,3.45a1.5,1.5,0,0,0-.44,1.06v13.53a1.52,1.52,0,0,0,1.51,1.51H150.4a1.55,1.55,0,0,0,.76-.21l18-10.52a1.52,1.52,0,0,0,.75-1.3A4.51,4.51,0,0,0,167.94,279ZM150,291.75H127.85V280.38c1-.82,2.88-2.16,4.51-2.16,2.09,0,5.53,2,6.68,2.75a1.49,1.49,0,0,0,.84.26h7.51a1.5,1.5,0,1,1,0,3h-9a1.51,1.51,0,0,0,0,3h12a1.43,1.43,0,0,0,.58-.12l13.88-5.78a1.45,1.45,0,0,1,1.41.14,1.4,1.4,0,0,1,.47.5Z"/><circle class="cls-18" cx="150.47" cy="162.09" r="40.93" transform="translate(-70.54 153.87) rotate(-45)"/><path class="cls-20" d="M150.47,124.75a40.93,40.93,0,0,1,40.89,39.13c0-.59,0-1.19,0-1.79a40.93,40.93,0,0,0-81.86,0c0,.6,0,1.2,0,1.79A40.93,40.93,0,0,1,150.47,124.75Z"/><circle class="cls-21" cx="150.47" cy="162.09" r="31.52" transform="translate(-50.57 69.92) rotate(-22.5)"/><path class="cls-22" d="M164.17,170.87c0-8.05-6.37-10.13-11.61-12.2v-9.62a5.73,5.73,0,0,1,2.8,1.66,3.85,3.85,0,0,0,4.76.65h0a3.88,3.88,0,0,0,.88-6,13.52,13.52,0,0,0-8.44-4.16v-2.56a2.59,2.59,0,0,0-2.58-2.58h0a2.59,2.59,0,0,0-2.59,2.58v2.61c-5.51,1-10.18,4.83-10.18,11.47,0,7.14,5.15,9.87,10.18,11.89V174.8a7.21,7.21,0,0,1-3.46-2.18,3.93,3.93,0,0,0-4.93-.88l-.28.16a3.87,3.87,0,0,0-1.11,5.76,14.8,14.8,0,0,0,9.78,5.12v2.74A2.58,2.58,0,0,0,150,188.1h0a2.58,2.58,0,0,0,2.58-2.58v-2.66C159.23,182,164.17,177.84,164.17,170.87ZM145.1,152.78a3.72,3.72,0,0,1,2.29-3.51v6.95C145.72,155.17,145.1,154.15,145.1,152.78ZM152.56,175v-8.28c2.34,1.09,3.66,2.24,3.66,4.25C156.22,172.71,155.13,174.38,152.56,175Z"/><path class="cls-5" d="M38.4,427.05a52.68,52.68,0,0,1-24.61-17.26A61.81,61.81,0,0,1,2.86,387.43,83.55,83.55,0,0,1,.21,360.05l.56-5.68H6.92A39.31,39.31,0,0,0,28,348.52a31.74,31.74,0,0,0,7.28-6l5.5-5.49,5.4,5.49a32,32,0,0,0,7.27,6,39.33,39.33,0,0,0,21.11,5.85h6.16l.56,5.68a83.87,83.87,0,0,1-2.65,27.38,61.81,61.81,0,0,1-10.93,22.36,52.68,52.68,0,0,1-24.61,17.26l-2.36.82Z"/><path class="cls-4" d="M40.76,346.16S29.48,360.62,6.92,360.62c0,0-4.66,47.24,33.84,60.58Z"/><path class="cls-4" d="M40.76,346.16S52,360.62,74.59,360.62c0,0,4.67,47.24-33.83,60.58Z"/><rect class="cls-5" x="30.11" y="152.13" width="23.51" height="23.51" rx="9.4"/><rect class="cls-19" x="9.86" y="240.2" width="64.01" height="64.01" rx="25.61"/><path class="cls-9" d="M62.91,254.16h-6v-3a1.51,1.51,0,1,0-3,0v3h-24v-3a1.51,1.51,0,1,0-3,0v3h-6a1.52,1.52,0,0,0-1.51,1.51v37.58a1.52,1.52,0,0,0,1.51,1.51H62.91a1.51,1.51,0,0,0,1.5-1.51V255.67A1.51,1.51,0,0,0,62.91,254.16Zm-36.08,3v3a1.51,1.51,0,0,0,3,0v-3H53.89v3a1.51,1.51,0,0,0,3,0v-3h4.51v7.6H22.32v-7.6Zm-4.51,34.58v-24H61.41v24Z"/><path class="cls-9" d="M38.86,273.71H37.35a1.51,1.51,0,0,0,0,3h1.51a1.51,1.51,0,0,0,0-3Z"/><path class="cls-9" d="M31.34,273.71h-1.5a1.51,1.51,0,1,0,0,3h1.5a1.51,1.51,0,0,0,0-3Z"/><path class="cls-9" d="M53.89,273.71h-1.5a1.51,1.51,0,1,0,0,3h1.5a1.51,1.51,0,0,0,0-3Z"/><path class="cls-9" d="M46.37,273.71h-1.5a1.51,1.51,0,0,0,0,3h1.5a1.51,1.51,0,1,0,0-3Z"/><path class="cls-9" d="M38.86,282.73H37.35a1.51,1.51,0,0,0,0,3h1.51a1.51,1.51,0,0,0,0-3Z"/><path class="cls-9" d="M31.34,282.73h-1.5a1.51,1.51,0,1,0,0,3h1.5a1.51,1.51,0,0,0,0-3Z"/><path class="cls-9" d="M53.89,282.73h-1.5a1.51,1.51,0,1,0,0,3h1.5a1.51,1.51,0,0,0,0-3Z"/><path class="cls-9" d="M46.37,282.73h-1.5a1.51,1.51,0,0,0,0,3h1.5a1.51,1.51,0,1,0,0-3Z"/></g></g></svg>