<svg xmlns="http://www.w3.org/2000/svg" viewBox="0 0 29.87 29.87"><defs><style>.cls-1{fill:#31aa7a;}</style></defs><g id="Layer_2" data-name="Layer 2"><g id="Ñëîé_1" data-name="Ñëîé 1"><path class="cls-1" d="M28.21,20.74a19,19,0,0,1-5.92-.94,1.68,1.68,0,0,0-1.69.41L17,23.86A25,25,0,0,1,6,12.94L9.67,9.27a1.67,1.67,0,0,0,.4-1.69,18.92,18.92,0,0,1-.94-5.92A1.66,1.66,0,0,0,7.47,0H1.66A1.66,1.66,0,0,0,0,1.66,28.21,28.21,0,0,0,28.21,29.87a1.66,1.66,0,0,0,1.66-1.66V22.4A1.66,1.66,0,0,0,28.21,20.74Z"/></g></g></svg>