<svg xmlns="http://www.w3.org/2000/svg" viewBox="0 0 946 634.64"><defs><style>.cls-1{fill:#e0e0e0;}.cls-2{fill:#31aa7a;}.cls-3{fill:#279364;}.cls-4{fill:#3b3c3d;}.cls-5{fill:#fff;}.cls-6{fill:#5bbcb9;}.cls-7{fill:#448d8b;}.cls-8{fill:#145566;}.cls-9{fill:#1a3151;}.cls-10{fill:#ebceb1;}.cls-11{fill:#909497;}.cls-12{fill:#b5d6ca;}.cls-13{fill:#e2d0b5;}.cls-14{fill:#d0cfd1;}.cls-15{fill:#e1cfb5;}.cls-16{fill:#c8d6a1;}.cls-17{fill:#6a737f;}.cls-18{fill:#bc9268;}.cls-19{fill:#d1e7f5;}.cls-20{fill:#e1ceb4;}.cls-21{fill:#58677f;}.cls-22{fill:#0075be;}.cls-23{fill:#056da0;}.cls-24{fill:#fba116;}.cls-25{fill:#c47916;}.cls-26{fill:#ffd559;}.cls-27{fill:#eac057;}.cls-28{fill:#ececec;}.cls-29{fill:#65696b;}.cls-30{fill:#e7e3d2;}.cls-31{fill:#e0e0e1;}.cls-32{fill:#cacccd;}.cls-33{fill:#c7c9c5;}.cls-34{fill:#b5b5b0;}.cls-35{fill:#d4d4d0;}.cls-36{fill:#898f93;}.cls-37{fill:#9da2a5;}.cls-38{fill:#9ea6ad;}.cls-39{fill:#b6bcc1;}.cls-40{fill:#e6bc3b;}.cls-41{fill:#f1cc40;}</style></defs><g id="Layer_2" data-name="Layer 2"><g id="Ñëîé_1" data-name="Ñëîé 1"><path class="cls-1" d="M434,564.25c-27.7,0-55.41.5-83.06,2.59-10.43.78-20.63,2.51-31.09,3.21-20.87,1.39-41.37,4-62.32,5.18-16.87,1-33.81,1.54-50.63,2.76A262.5,262.5,0,0,1,158,577c-11.59-1.41-23.23-2.2-34.62-4.45a204,204,0,0,0-39.86-4.26c-18.93.09-37.37.1-55.48,4.55-6.36,1.57-14.15,4.14-19,7.42-11.06,7.5-12.55,26.24-1.51,34,18.59,13.1,58.27,18.24,84.34,18.49,28.55.26,56.3-1.17,84.9-2,26.57-.78,53.08-1.9,79.7-1.86,54.37.08,108.75,0,163-2.46,51-2.31,102.1-1.52,153.2-1.52,52.4,0,104.45.28,156.47,5,22.67,2.05,45.76,2.77,68.54,4.21,20.41,1.29,40,0,60.33-1.21a200.1,200.1,0,0,0,49.52-9c12.27-4,34.15-16.31,37.91-25.79,10.55-26.58-148.68-25.94-173.12-25.88-27.35.07-54.92.68-82.25,0-11.49-.29-22.82-1.82-34-3.48s-22.43-1.24-33.76-1.94c-47.26-2.91-94.62-2.48-142-2.48C464.87,564.31,449.44,564.21,434,564.25Z"/><path class="cls-2" d="M651.81,409.89l9.33,178.41a9,9,0,0,0,9,8.67h110.2a9,9,0,0,0,9-8.67l9.33-178.41Z"/><rect class="cls-3" x="644.65" y="390.13" width="161.15" height="19.76"/><polygon class="cls-2" points="798.65 390.13 651.81 390.13 663.2 337.46 787.26 337.46 798.65 390.13"/><path class="cls-4" d="M765.27,380.3H685.19a7.37,7.37,0,0,1-7.37-7.37V361.76a7.37,7.37,0,0,1,7.37-7.37h80.08a7.37,7.37,0,0,1,7.37,7.37v11.17a7.37,7.37,0,0,1-7.37,7.37"/><path class="cls-5" d="M747,505.5a2.68,2.68,0,0,0-.28-.75c-.13-.27-.54-1-1.08-2Z"/><path class="cls-5" d="M726.59,478.74l5.12,1.52,6.6,2,5.12,1.52a3.2,3.2,0,0,0,4.06-2.45l1.18-5.31c.41-1.89,1.1-5,1.52-6.87l1.17-5.31c.42-1.89-.77-2.51-2.64-1.39l-3.21,1.94c-1.17-2.05-2.35-4.09-2.8-4.84-1-1.69-3-3-6.92-3l-15.45.09,6.45,11.6a2.1,2.1,0,0,1,.4.58c.31.63,1.48,2.83,2.64,5l-3.14,1.89c-1.87,1.13-1.91,2.5-.1,3"/><path class="cls-5" d="M708.71,460.51c-1.66,2.57-5.86,9.42-5.86,9.42a3.24,3.24,0,0,0,1.07,4.47l10.3,6.19a3.27,3.27,0,0,0,4.46-1.15L725,468.76c.55-.94,1.22-1.08,1.76-.52l-6.45-11.6-3.73,0c-2.68,0-5.75.49-7.9,3.84"/><path class="cls-5" d="M690.48,503.83c1.16,2.31,4.38,8.24,6.73,12.59l7.31-12.22c.86-1.5,2.45-4.29,3.78-6.6l3.74,2.13c1.9,1.08,3.07.42,2.61-1.45L713.34,493c-.46-1.87-1.22-4.94-1.69-6.82l-1.3-5.28a3.2,3.2,0,0,0-4.12-2.35l-5.08,1.66-6.56,2.13L689.52,484c-1.8.59-1.73,2,.17,3l2.76,1.57c-1.41,2.79-3.07,6.08-3.49,7-.75,1.71-.28,4.65,1.52,8.23"/><path class="cls-5" d="M704.52,504.2l-7.31,12.22c1.31,2.42,2.36,4.35,2.64,4.88.77,1.5,1.87,4.44,8.84,4.4l10.14-.06a3.27,3.27,0,0,0,3.2-3.32L722,510.09a3.26,3.26,0,0,0-3.24-3.28l-13.84.08c-1.25,0-1.41-.84-1-1.63.06-.11.28-.5.61-1.06"/><path class="cls-5" d="M747,505.5l6,12.34c2.12-4,5.71-10.9,7.17-13.89,2-4,2.52-7.47,1.61-9.29s-5.37-10.7-5.37-10.7a2.93,2.93,0,0,0-4.23-1.2L742,489.2a3.53,3.53,0,0,0-1.18,4.61s3.11,5.72,4.84,8.93c.54,1,1,1.74,1.08,2a2.68,2.68,0,0,1,.28.75"/><path class="cls-5" d="M751.55,520.61c.24-.41.78-1.43,1.49-2.77l-6-12.34c.12.72-.23,1.21-1.1,1.21l-6.24,0,0-3.82c0-2.23-1.15-2.95-2.52-1.61l-3.84,3.77-5,4.87-3.84,3.77a3.34,3.34,0,0,0,0,4.83l3.91,3.7,5.05,4.78,3.91,3.7c1.39,1.31,2.51.57,2.49-1.65l0-3.64,4.78,0c4.35,0,6-3.17,6.94-4.81"/><path class="cls-6" d="M372.36,63.15l14.56,4.33,18.8,5.6,14.56,4.33a9.11,9.11,0,0,0,11.56-7l3.36-15.12c1.18-5.38,3.12-14.17,4.31-19.55l3.36-15.12c1.19-5.38-2.2-7.15-7.52-3.94l-9.14,5.51c-3.34-5.84-6.69-11.65-8-13.77C415.29,3.63,409.64-.06,398.54,0l-44,.26,18.37,33a6.18,6.18,0,0,1,1.13,1.65c.88,1.82,4.21,8.05,7.52,14.22l-8.93,5.39c-5.33,3.2-5.45,7.09-.28,8.63"/><path class="cls-7" d="M321.46,11.25c-4.72,7.33-16.68,26.84-16.68,26.84a9.21,9.21,0,0,0,3,12.71l29.33,17.61a9.25,9.25,0,0,0,12.68-3.27l18.08-30.39c1.58-2.68,3.48-3.08,5-1.49L354.55.26,344,.32c-7.64,0-16.37,1.4-22.5,10.93"/><path class="cls-6" d="M269.58,134.58c3.3,6.56,12.45,23.44,19.15,35.82l20.79-34.78c2.45-4.27,7-12.21,10.78-18.78l10.64,6c5.4,3.07,8.74,1.21,7.43-4.13l-3.73-15-4.8-19.43-3.72-15a9.1,9.1,0,0,0-11.73-6.68L299.94,67.3l-18.66,6.08-14.44,4.7c-5.14,1.67-4.92,5.56.48,8.63l7.85,4.46c-4,7.93-8.73,17.3-9.92,20-2.15,4.85-.82,13.23,4.33,23.43"/><path class="cls-7" d="M309.52,135.62,288.73,170.4c3.74,6.89,6.71,12.39,7.5,13.91,2.2,4.27,5.34,12.62,25.18,12.51l28.84-.17a9.32,9.32,0,0,0,9.12-9.44l-.19-34.83A9.31,9.31,0,0,0,350,143l-39.4.23c-3.55,0-4-2.39-2.76-4.63.18-.3.81-1.41,1.73-3"/><path class="cls-6" d="M430.47,139.34l17.18,35.12c6-11.34,16.23-31,20.4-39.55,5.58-11.39,7.16-21.26,4.59-26.45S457.34,78,457.34,78a8.3,8.3,0,0,0-12-3.43L416.17,92.93a10.06,10.06,0,0,0-3.35,13.12s8.86,16.29,13.79,25.41c1.53,2.83,2.69,5,3.08,5.72a7.79,7.79,0,0,1,.78,2.16"/><path class="cls-7" d="M443.4,182.33c.68-1.18,2.23-4.05,4.25-7.87l-17.18-35.12c.36,2-.65,3.42-3.12,3.44l-17.77.1-.1-10.88c-.06-6.33-3.28-8.38-7.17-4.57l-10.94,10.73L377.22,152l-10.94,10.73a9.49,9.49,0,0,0,.12,13.73L377.53,187l14.38,13.6L403,211.15c3.95,3.74,7.15,1.63,7.09-4.69L410,196.11l13.61-.08c12.37-.07,17-9,19.75-13.7"/><path class="cls-8" d="M643,110.85l9.14-26.06A4.64,4.64,0,0,0,649.45,79l-6.58-2.64a4.64,4.64,0,0,0-6,2.39l-11.39,25.15a4.71,4.71,0,0,1-4.72,2.7,14.76,14.76,0,0,0-14.73,9.19l-27.15,67.75a4.63,4.63,0,0,0,2.58,6l34.14,13.69a4.64,4.64,0,0,0,6-2.58l27.16-67.75a14.76,14.76,0,0,0-4.31-16.82,4.74,4.74,0,0,1-1.55-5.21"/><rect class="cls-6" x="643.81" y="67.8" width="4.7" height="19.66" transform="translate(333.7 648.52) rotate(-68.16)"/><path class="cls-5" d="M634.53,160.31l-2.72-1.09,9.86-24.59c3.49-10.31-2-12.95-2.24-13.06l1.17-2.69c.33.14,8.24,3.69,3.82,16.76Z"/><polygon class="cls-9" points="567.55 271.74 515.3 309.87 481.6 294.44 474.91 306.73 497.55 325.98 516.9 333.21 567.55 308.83 567.55 271.74"/><polygon class="cls-10" points="638.03 192.69 639.15 176.69 626.22 166.68 620.79 173.77 626.63 184.2 624.55 189.63 630.28 198.24 638.03 192.69"/><polygon class="cls-9" points="535.53 374.32 534.48 464.81 544.13 581.3 557.24 581.3 572.93 473.83 590.87 366.17 535.53 374.32"/><polygon class="cls-9" points="557.16 586.83 542.98 593.92 535.89 586.83 542.98 579.74 557.16 579.74 557.16 586.83"/><polygon class="cls-9" points="625.43 374.32 625.68 426.68 616.84 581.3 603.73 581.3 581.79 478.69 570.08 366.17 625.43 374.32"/><polygon class="cls-9" points="603.8 586.83 617.98 593.92 625.07 586.83 617.98 579.74 603.8 579.74 603.8 586.83"/><path class="cls-9" d="M639.06,405.84c.28,8.31.1,19.42-3.39,19.84a3.55,3.55,0,0,1-1.87-.5c-6.08-2.95-10.41-7.13-16.41-10-6.28-3-13.42-4.56-20.4-5.64a212.13,212.13,0,0,0-31.46-2.75c-9-.08-18.37,4-26.88,6.28-3.28.87-5.94,3.26-8.66,5.13-4,2.77-5.78,3.86-5.24-1.79.9-9.22,1.83-18.44,3-27.63,2.26-18.34,5.34-36.64,10.55-54.39,2-6.78,4.29-13.47,6.59-20.16l8.38-24.42c3.48-10.12,9.34-17.24,19.61-20.78,8.88-3.06,19.9-3.9,28.53.38,9.59,4.76,14.16,21,18.82,29.64,4.08,7.6,9.23,28.31,10.76,36.49,1.84,9.85,3.54,19.66,4.88,29.44a304.44,304.44,0,0,1,2.83,32.37c0,1.19.27,4.51.4,8.47"/><path class="cls-5" d="M591.67,270.86,574,271s-19,66.45-19.71,77.9c-.69,11.25-5.5,56.83-5.5,56.83s19.63.47,42.24,3.22c22.1,4.73,24,1.93,24,1.93S603,363,602.62,349.23c-.41-14.08-2.21-60.58-2.21-60.58Z"/><path class="cls-10" d="M580.92,271.21a2.09,2.09,0,0,0,.73.41,4,4,0,0,0,1.72.05l7-.83c-.77-7.18,3.43-8.8,7.51-13.42s2.87-11,2.64-16.72a12.12,12.12,0,0,0-.82-4.68c-1.18-2.54-3.94-4-6.61-4.78-6.83-2.12-14.64-1.6-20.65,2.27a11,11,0,0,0-4,4c-1.34,2.61-1,5.73-.62,8.64a29.11,29.11,0,0,0,4.42,12.64c2.36,3.51,6.85,5.19,7.37,9.4a4.78,4.78,0,0,0,1.24,3"/><path class="cls-9" d="M568.08,241c.4,1.81,1.24,3.63.81,5.42-2.87-1-4.74-3.9-5.76-6.88a10.46,10.46,0,0,1-.67-4.21,5,5,0,0,1,1.86-3.67c1.57-1.12,4.4-.68,4.85,1.36s-1.69,5.27-1.09,8"/><path class="cls-9" d="M552.87,225.13a6.42,6.42,0,0,1,2.83-5.4c1.66-1.12,3.58-2.06,4.59-3.84.79-1.39.9-3.11,1.68-4.5,1.41-2.52,4.47-3.26,7.13-4.12,6.65-2.13,10.23-4.6,17.28-1.87,5,1.95,11.49,2.21,16.14,5a16.31,16.31,0,0,1,5,5.21c4.7,7.34,5.82,17.67,2.76,25.33a30.61,30.61,0,0,1-2.48,4.8c-1.86,3-3.86,6.74-7.15,8.22-.21-1.43-1.27-2.21-1.6-3.61a10.72,10.72,0,0,1-.1-3.1c.2-4,1.43-10.39-2.59-12.39-5.09-2.53-14.63-.25-19.53,1.89-4.33,1.89-11.65,4.35-16.27,2.33-4.29-1.89-7.78-9.39-7.64-14"/><polygon class="cls-9" points="597.35 268.51 642.34 255.26 625.68 199.02 639.4 189.18 672.52 254.28 663.37 276.82 620.39 299.01 597.35 268.51"/><polygon class="cls-9" points="855.56 584.44 855.74 586.38 856.36 592.85 869.45 598.45 875.06 591.56 868.21 585.52 867.58 585.25 867.5 586.06 855.56 584.44"/><path class="cls-11" d="M854.89,584.35l.67.09-.44-4.52,12.45,5.33,10.36-109.1,1.28-5.16c-9.79.15-21.42.29-33.15.38Z"/><polygon class="cls-11" points="855.56 584.44 867.5 586.06 867.58 585.25 855.12 579.92 855.56 584.44"/><path class="cls-11" d="M802.57,471.32,805,499.88l24.15,74,11.8-1.57.2,1.45h.06l-8.69-76.31,7.44-26.06c-13.7.08-27.09.08-37.37-.1"/><polygon class="cls-9" points="829.13 573.92 828.39 574.02 822.99 581.43 830.14 587.17 841.81 578.93 841.13 573.8 829.59 575.33 829.13 573.92"/><polygon class="cls-9" points="829.13 573.92 829.59 575.33 841.13 573.8 840.93 572.35 829.13 573.92"/><path class="cls-12" d="M832.33,293.06c1.44-3.58,2.91-7.21,5.36-10.18A18.32,18.32,0,0,1,853,276.36h.09a9.32,9.32,0,0,1-.34-2.29c-.08-4.21,3-7.66,5.07-11.35.18-.34.36-.71.53-1.09a19,19,0,0,0,1-3.07l-.88.42a14.06,14.06,0,0,1-6.92,3.29l-24.23,11.55-9.72,39.56,2.51,1.1c7.66-3,9.42-14.58,12.17-21.43"/><path class="cls-12" d="M884.43,305.26c1.51,7.14,15.19,24.34,12.69,17.35A193.89,193.89,0,0,0,884.75,295c-1.66-3.07-1,6.84-.32,10.27"/><path class="cls-12" d="M901.08,357.7c-4.53,2.42-9.78,3.18-14.91,3.17-4.11,0-8.28-.47-12.3.41s-8,3.49-9,7.47c-.56,2.2-.38,5-2.28,6.2a5.85,5.85,0,0,1-3.08.66c-3.25.09-6.94,0-9.13-2.4-3.38-3.73-1.4-11.22-6-13.34-1.34-.62-2.88-.53-4.34-.77-6.17-1.05-9.2-8-8.6-14.46-2.11,1.84-4.46,3.46-7.19,3.52-3.15.06-5.9-2-8.38-3.92-1.6-1.26-3.25-2.49-4.91-3.71l-.1.4L785.83,470.56c3,.38,9,.62,16.74.76l-1.78-21.1,43.67,5.38-4.52,15.82,6.12,0-1.24-16,41.74-14.11L879.21,471c15-.22,25.68-.43,25.68-.43s9.12-67,1-116.51a19.33,19.33,0,0,1-4.83,3.65"/><path class="cls-12" d="M844.82,455.39l1.24,16c11.73-.09,23.36-.23,33.15-.38l7.35-29.71Z"/><path class="cls-12" d="M800.79,450.22l1.78,21.1c10.28.18,23.67.18,37.37.1l4.52-15.82Z"/><path class="cls-13" d="M764.86,287.07c-.37-1.61-8.84-10.23-9.33-9a21,21,0,0,0-1,4.06c-3.45-1.85-11.8-9.08-11.3-.73.22,3.62,6.57,9.88,9.75,11l.22.07,11.66-2a6,6,0,0,0,.05-3.31"/><path class="cls-12" d="M765,290.35l-.15,0c-.55,1.7-1.92,3-3.25,5-2.77-1-5.6-2-8.41-2.94l-3,.53c15.48,20,40.08,32.36,60.87,47.59l6.66-27.14Z"/><path class="cls-12" d="M824.28,348.16c2.73-.06,5.08-1.68,7.19-3.52a15.91,15.91,0,0,1,.83-3.85c2.56-7.13,8.47-12.41,13-18.51,8.75-11.9,14.66-27.8,9.28-41.89a38.36,38.36,0,0,1-1.42-4H853a18.32,18.32,0,0,0-15.33,6.52c-2.45,3-3.92,6.6-5.36,10.18-2.75,6.85-4.51,18.41-12.17,21.43l-2.51-1.1L811,340.53c1.66,1.22,3.31,2.45,4.91,3.71,2.48,1.95,5.23,4,8.38,3.92"/><path class="cls-14" d="M764.81,290.38l-11.66,2c2.81,1,5.64,1.9,8.41,2.94,1.33-2,2.7-3.27,3.25-5"/><path class="cls-15" d="M859.52,258.06c2.27-9.84-.19-25.38-6.77-31.18-2.58-2.29-5.54-2.7-8.84-2.72-1.55,0-2.08.39-2.88.25-2.45,3.15-4.09,7-3.79,10.64.25,3.06,2,5.4,2.16,8.69.28,6,8.84,12,5.55,17.95a14.18,14.18,0,0,0,6.65.59l6.92-3.29c.34-.3.68-.61,1-.93"/><path class="cls-15" d="M851.6,262.28a14.06,14.06,0,0,0,6.92-3.29Z"/><path class="cls-15" d="M839.4,243.74c-.14-3.29-1.91-5.63-2.16-8.69-.3-3.64,1.34-7.49,3.79-10.64a4.07,4.07,0,0,1-1.37-.61c-1.18-.74-2.23-2.66-2.79-4.22-3,1.93-5.28,5.42-5.89,10.74-.67,5.78-.66,11.88,1.32,17.66s6.21,11.22,11.7,13.37l1,.34c3.29-5.95-5.27-12-5.55-17.95"/><path class="cls-9" d="M899.39,324.65l-2.27-2c.5,1.29,1,2.59,1.5,3.92s1,2.67,1.48,4c.32.88.63,1.78.92,2.68-.29-.9-.6-1.8-.92-2.68-.49-1.36-1-2.71-1.48-4s-1-2.63-1.5-3.92c-5.52-5-11.18-10.21-12.69-17.35a24.38,24.38,0,0,1,.32-10.27c1.18-5.49,3.39-11,4-16.6,1-9.61.21-23.42-2.13-32.81-2.51-10.05-8-19.14-14.54-27.06-8-9.61-22.75-20.36-33.22-7.78-.12.14-.24.29-.35.44a19.68,19.68,0,0,0-3.56-1.37c-7.24,6.1-9.1,15.91-8.34,24.93S831.9,254,829.33,263a9,9,0,0,0-.56,2.6,2.29,2.29,0,0,0,1.26,2.18,3.36,3.36,0,0,0,1.61.06c4.42-.57,9.24-1.34,12.25-4.64a7.87,7.87,0,0,0,1.06-1.48l-1-.34c-5.49-2.15-9.71-7.58-11.7-13.37s-2-11.88-1.32-17.66c.61-5.32,2.84-8.81,5.89-10.74.56,1.56,1.61,3.49,2.79,4.22a4.07,4.07,0,0,0,1.37.61c.81.14,1.33-.26,2.88-.25,3.3,0,6.26.44,8.84,2.72,6.58,5.8,9,21.34,6.77,31.18,6.2-6.19,8.69-17.68,4.61-26.27-.23-.49-.48-1-.74-1.43.26.47.51.94.74,1.43,4.08,8.59,1.59,20.08-4.61,26.27l-.12.51a19,19,0,0,1-1,3.07c-.17.38-.35.75-.53,1.09-2,3.68-5.15,7.14-5.07,11.34a9.4,9.4,0,0,0,.34,2.3,38.36,38.36,0,0,0,1.42,4c5.38,14.09-.53,30-9.28,41.89-4.48,6.1-10.39,11.38-13,18.51a15.91,15.91,0,0,0-.83,3.85c-.6,6.42,2.43,13.41,8.6,14.46,1.46.24,3,.15,4.34.77,4.57,2.12,2.59,9.61,6,13.34,2.19,2.41,5.88,2.49,9.13,2.4a5.85,5.85,0,0,0,3.08-.66c1.9-1.24,1.72-4,2.28-6.2,1-4,5-6.59,9-7.47s8.19-.42,12.3-.41c5.13,0,10.38-.75,14.91-3.17a19.33,19.33,0,0,0,4.83-3.65c-.17-1.06-.35-2.11-.54-3.16.19,1.05.37,2.1.54,3.16a15.45,15.45,0,0,0,4.28-8.11c1.4-8.19-4.65-15.69-10.8-21.29M852.61,220a25.39,25.39,0,0,1,2.5,1.46,25.39,25.39,0,0,0-2.5-1.46"/><polygon class="cls-10" points="174.07 234.74 178.48 229.7 178.06 223.8 179.25 223.07 180.19 224.51 181.22 219.5 184.42 216.9 189.65 218.38 192.96 222.97 190.92 228.1 185.84 232.16 180.1 239.31 174.07 234.74"/><polygon class="cls-16" points="173.26 230.52 126.65 267.46 96.71 262.04 92.34 303.69 129.57 296.32 144.85 290.18 188.08 238.68 173.26 230.52"/><polygon class="cls-9" points="103.3 580.27 103.3 585.89 117.72 593.11 124.94 585.89 117.72 578.68 116.79 578.68 116.56 580.27 103.3 580.27"/><polygon class="cls-9" points="67.77 578.68 66.77 578.68 59.55 585.89 66.77 593.11 81.2 585.89 81.2 580.27 67.93 580.27 67.77 578.68"/><path class="cls-16" d="M68,366.75c1.9-9.61,3.38-18.48,3.52-23.29.41-14.47,2.23-62.24,2.23-62.24l8.83-18.28,1.63,0-.35,0c.38,0-.19-3.53-.33-3.84-7.67-.27-17.57,4.07-22.41,10.1-3.58,4.46-5.71,9.92-7.79,15.28-5.84,15.1-8.49,29.09-11.41,45C40,339.54,38.31,349.61,37,359.66a318.5,318.5,0,0,0-2.86,33.26c0,1.22-.27,4.63-.41,8.7-.28,8.54-.1,19.95,3.44,20.38a3.44,3.44,0,0,0,1.88-.51c4.54-2.24,8.12-5.17,12.13-7.74l.22-44.51Z"/><path class="cls-16" d="M149.18,412.5c-.91-9.47-1.84-18.94-3-28.39-2.29-18.84-5.4-37.64-10.66-55.88-2-7-4.33-13.84-6.65-20.71q-4.25-12.54-8.48-25.09c-3.51-10.4-9.43-17.72-19.8-21.36a37.91,37.91,0,0,0-5.82-1.51,6.45,6.45,0,0,0-.12.66,5.47,5.47,0,0,1-1,2.83l6.81.06s19.21,68.27,19.91,80c.27,4.47,1.17,14.24,2.16,24.52L133,369.24l.45,39.34,1.74.49c3.31.89,6,3.35,8.75,5.27,4.06,2.84,5.84,4,5.29-1.84"/><path class="cls-17" d="M122.52,367.67c1.57,16.28,3.39,33.87,3.39,33.87s-8.43.2-20.63,1.13c.9,0,1.8-.05,2.71-.06,8.48-.07,17.28,3.59,25.41,6L133,369.24Z"/><path class="cls-16" d="M65.58,407.62c-5.82.3-6.54-.79-6.54-.79s5.24-21.44,8.93-40.08l-16.61,2.49-.22,44.51a44.31,44.31,0,0,1,4.45-2.52,55.51,55.51,0,0,1,10-3.61"/><path class="cls-9" d="M133.4,408.58c-8.13-2.38-16.93-6-25.41-6-.91,0-1.81,0-2.71.06l-2.31.18c-5.68.45-12.07,1.06-18.74,1.87l-1,.12a115.42,115.42,0,0,1-17.66,2.78,55.51,55.51,0,0,0-10,3.61,44.31,44.31,0,0,0-4.45,2.52l0,9.27L67.36,580.48H80.7v1.6h.07L95.44,476.47l.06-.6,8,106.21h.08v-1.6H117l17-118.27Z"/><path class="cls-5" d="M122.52,367.67c-1-10.28-1.89-20.05-2.16-24.52-.7-11.77-19.91-80-19.91-80l-6.81-.06a1.36,1.36,0,0,1-.24.24,2,2,0,0,1-.73.43,3.92,3.92,0,0,1-1.74,0L84.18,263l-1.63,0-8.83,18.28S71.9,329,71.49,343.46c-.14,4.81-1.62,13.68-3.52,23.29C64.28,385.39,59,406.83,59,406.83s.72,1.1,6.54.79a115.42,115.42,0,0,0,17.66-2.78l1-.12c6.67-.81,13.06-1.42,18.74-1.87l2.31-.18c12.2-.93,20.63-1.13,20.63-1.13s-1.82-17.59-3.39-33.87"/><polygon class="cls-10" points="99.93 356.1 105.26 360.07 111 359.08 111.83 360.21 110.5 361.3 115.5 361.86 118.34 364.84 117.37 370.27 113.18 374.07 107.97 372.51 103.53 367.76 96 362.65 99.93 356.1"/><polygon class="cls-16" points="104.63 355.88 76.38 333.09 74.07 274.26 51.58 297.1 47.48 334.97 53 349.25 100.79 369.13 104.63 355.88"/><path class="cls-9" d="M106,219.42a24.84,24.84,0,0,1,2.39,11.21c0,1,0,2.21.79,2.86s0,2.07.71,1.24,3.1-3.72,3.26-4.81a40.45,40.45,0,0,0,.38-7.7c-.1-2.23-.43-4.58-1.77-6.35a12.4,12.4,0,0,0-3-2.56,15.77,15.77,0,0,0-5-2.62c-3.18-.78-5.2.29-2.49,2.71a19.83,19.83,0,0,1,4.73,6"/><path class="cls-10" d="M83.87,262.08,97,264a81.7,81.7,0,0,0,1.77-11.68c3.87-.47,8.45-1.49,10-5.51a13.66,13.66,0,0,0,.64-4q.5-8.49,1-17A16.72,16.72,0,0,0,110,220c-1-3.25-3.84-5.31-6.67-6.65-7.2-3.44-15.79-3.77-22.8.22A12.53,12.53,0,0,0,75.78,218c-1.76,3-1.75,6.88-1.69,10.48.07,3.33.13,6.65.19,10,.07,3.82.41,8.24,3.22,10.4C79,250,81,250.28,82.24,251.74c2.23,2.56.93,6.84,1.63,10.34"/><path class="cls-9" d="M110.87,240.6c0-1-.31-4.15-2-2.3a3.26,3.26,0,0,0-.63,1.87,7,7,0,0,1-.3,2,3.46,3.46,0,0,1-3.58,1.91,3.29,3.29,0,0,1-1.61-.48,4.9,4.9,0,0,1-1.18-1.22l-2.55-3.31c-1.47-1.9-4.59-1.28-6.71-1.11a13.3,13.3,0,0,0-6.94,2.33l-.62.47a7.27,7.27,0,0,1-1.56,1c-1.91.82-4.18-.26-5.4-2.06-.56-.82-1.06-1.87-2-2.05a1.9,1.9,0,0,0-1.87,1,5.64,5.64,0,0,0-.64,2.3,17.33,17.33,0,0,0,1,8.61c2.42,5.77,7.61,6.73,12.87,6.88l6.24.18c3.8.11,7.82.16,11.13-1.92,2.92-1.83,4.77-5.11,5.63-8.6a22.38,22.38,0,0,0,.64-5.54m-14.3,7.25a7.18,7.18,0,0,1-6.47.42c-.93-.34-.44-1.93.49-1.59a5.76,5.76,0,0,0,5.28-.31c.87-.53,1.57,1,.7,1.48"/><path class="cls-9" d="M113.21,210a30.92,30.92,0,0,0,1-4.14,8.06,8.06,0,0,1-4,.14l.12-2.45c0-.67-9-1.62-9.69-1.72-6.83-.93-13.07-1.8-19.45,1.61A19,19,0,0,0,71,217.09a29.47,29.47,0,0,0,3.56,18.84c.06-1.58-.64-5.35-.2-6.84A13.71,13.71,0,0,1,76,224.87a17.59,17.59,0,0,1,6.44-6.21A33.38,33.38,0,0,1,96,214.79c4.31-.38,9.55-.67,13.71.7,2,.66,2.31,1.2,3.65-.82a36.53,36.53,0,0,0,2-4.57l-2.14-.14"/><path class="cls-18" d="M417.88,199.84c-1-3.38-2-6.77-3-10.16l-4.42,1.25c.14,2.49.29,5,.43,7.45l-2.29-.37c1.26,2.8,2.58,5.56,3.88,8.34,1.57-.2,3.13-.45,4.71-.6.21-2,.36-3.95.66-5.91"/><path class="cls-19" d="M376.69,289.6A14.64,14.64,0,0,1,376,288c-2.2-6-3.08-12.81-.92-18.86a4.3,4.3,0,0,1,1.5-2.29,4.89,4.89,0,0,1,2.15-.59l19.37-2.22a3.27,3.27,0,0,0,1.72-.54,3.16,3.16,0,0,0,.82-1.39c2-5.43,13-57.82,9.57-58.17,3.16-.25,6.32-.54,9.49-.77,3.17,16.8,6.74,64.49,2.16,70.2-10.38,13-14.59,13.82-30,21.22a13.66,13.66,0,0,1-6,1.7c-4-.06-7.41-3.2-9.21-6.71"/><path class="cls-18" d="M281,252.31c-3.18-1.53-6.36-3.05-9.53-4.61l-2,4.12,5.82,4.68-1.81,1.44c2.92.95,5.85,1.82,8.78,2.72.9-1.3,1.77-2.63,2.72-3.9-1.32-1.47-2.7-2.92-3.95-4.45"/><polygon class="cls-20" points="340.26 573.37 340.22 586.94 348.1 586.96 348.14 571.91 340.26 573.37"/><polygon class="cls-20" points="377.69 569 375.65 583.61 384.13 584.79 386.39 568.59 377.69 569"/><path class="cls-9" d="M384.24,584.79l-7.75-1.18-3.07,1.16-2.24,5.33,17.22,10.68a4.64,4.64,0,0,0,1.1-7.24l-.69-.72Z"/><path class="cls-9" d="M348.1,587l-7.88,0-2.76,3.63.55,5.76,20.23,1.25.58-1.31a4.24,4.24,0,0,0-3.32-5.91l-.44-.06Z"/><polygon class="cls-21" points="316.23 442.73 330.28 506.9 338.83 579.54 351.86 579.58 362.18 397.61 318.54 398.31 316.23 442.73"/><polygon class="cls-21" points="399.8 439 401.49 501.27 390.09 574.78 373.41 574.69 370 496.71 358.01 440.18 354.03 403.18 390.38 398.9 399.8 439"/><polygon class="cls-19" points="373.66 261.8 332.84 266.44 326.05 288.99 316.41 355.37 311.71 411.79 377.33 412.79 398.93 409.34 393.37 350.11 385.17 282.87 373.66 261.8"/><path class="cls-18" d="M369,218.14a17.52,17.52,0,0,0-12.5-5.13c-16.05.16-17.28,15.79-14.29,27.94,1.32,5.35,4,10.61,8.43,13.84a14.9,14.9,0,0,0,4,2h0c-.25.83-.2,10.9-.91,10.8a21.81,21.81,0,0,0,11.07-1.4c-.11-3,.28-6.7,0-9.94a11.76,11.76,0,0,0,1.31-.8c4.29-3.12,5.69-8.82,6.49-14.08,1-6.82,1.67-18-3.6-23.27"/><path class="cls-9" d="M370.12,233.1c.52.61,1.39.76,2,1.25,2.09,1.65.06,5.26,1.33,7.6,1.62,3,1.33,8.26-1.78,10.75-1.06.85-2.49,1.44-2.93,2.72-.51,1.49.53,3.42-.54,4.59,1.7,1.74,4.6,1.37,6.84.44s4.44-2.33,6.86-2.24c.77,0,1.7.15,2.18-.46a2.45,2.45,0,0,0,.33-1.32c.57-5.58,7.13-4.15,8-8.67.24-1.22-1.25-4.22-1.22-5.81,0-2.53,1.49-4.79.63-7.39-.36-1.07-1.07-2-1.44-3.06-.75-2.18,0-4.54.48-6.79s.37-5-1.47-6.36c-1.44-1.07-3.53-.94-4.95-2-3.15-2.44-.84-8.81-4.39-10.62-1.81-.93-4,.09-6.05-.21s-3.74-2-5.53-3.22-4.46-1.87-5.91-.27c-1.23,1.34-.9,3.57-2,5-1,1.22-2.67,1.48-4.08,2.14-6.6,3.12,5.84,5.16,7.63,7.35,1.5,1.84,3.11,5.31,4.2,7.43,1.27,2.47.46,7.6,1.81,9.19"/><path class="cls-9" d="M350.86,217.42c-8.08,1.71-3.18,7.75-5.76,12.67-1,1.94-3.8,2.67-4.35,4.79-.45,1.71.8,3.34,1.8,4.79s1.76,3.56.56,4.85c-.37.39-.88.65-1.13,1.11-.66,1.22.84,2.46,2.11,3s2.84,1.64,2.33,2.93c-1.48,3.77-2.44,2.18,0,5.39.59.77,1.59.64,2.16,1.43a3.71,3.71,0,0,1-4.14.94c-3.76-1.46-2.72.38-5.66.84s-3.19-.47-5.9-2.19c-2.52-1.61-7.82-2.74-8.71-6-.5-1.83.92-3.71.5-5.54s-2.3-3-3.18-4.66c-1.78-3.29.91-6.88,1.47-10.4.78-4.88-2.11-10.94,3-14,1.1-.66,2.45-1,3.58-1.69,3.33-1.89,4-5.32,5.29-8.28s4.67-6.12,8.75-5.44c3.71.62,5.68,4.14,9.45,4.51,1.32.13,2.77-.15,3.93.33a3.72,3.72,0,0,1,1.8,1.83c.89,1.67,3.51,7.25,1.53,8.79-2.57,2-6-.71-9.44,0"/><path class="cls-8" d="M381.52,236.46a4.75,4.75,0,0,0,.87-2A2.52,2.52,0,0,0,381,232a13.6,13.6,0,0,0-1.75-.76c-1.24-.52-2.25-1.1-1.68-2.92.09-.28.34-.57.46-.85a4.89,4.89,0,0,0,.21-3.39,2.81,2.81,0,0,0-1.72-1.86,8.2,8.2,0,0,0-2.1,0c-2.65-.18-1.65-2.63-1.48-4.13a4.68,4.68,0,0,0-4.15-5.26c-.41-.06-.41.59,0,.64a4.1,4.1,0,0,1,3.11,2.13c.65,1.19.39,2.35.18,3.62a3.3,3.3,0,0,0,.66,3.16c1.41,1.23,3.47-.46,4.63,1.36s-.12,3.22-.63,4.83c-1.29,4.08,7,2.79,4.5,7.2-.65,1.14-1.9,2.25-1.69,3.7a1.9,1.9,0,0,0,2,1.76c.41,0,.42-.69,0-.65-1.77.18-1.38-2-.93-2.8.25-.44.59-.83.87-1.26"/><path class="cls-8" d="M345,215.69c-2.25-.28-5.76-.21-6.08,2.75-.16,1.54.75,2.92,1,4.39.49,2.95-2.48,3.57-4.54,4.45-2.22.95-4.15,3.5-1.79,5.43l.83.62c-.16.66-.33,1.31-.5,2-.2.26-.78.46-1,.68a1.89,1.89,0,0,0-.74,1.15,1.25,1.25,0,0,0,1.2,1.51c.42,0,.42-.63,0-.65l.18-1.69.53-.33c.17-.14.38-.24.55-.38a2.51,2.51,0,0,0,.67-.78,1.59,1.59,0,0,0-.41-1.94c-.54-.54-1.11-.73-1.48-1.49-.62-1.29.27-2.44,1.43-3.12s2.66-.93,3.87-1.67c1.93-1.18,2.2-3,1.56-5-.48-1.55-1.37-3.61.33-4.75,1.25-.84,3-.68,4.42-.5.41,0,.41-.6,0-.65"/><path class="cls-8" d="M330,227.32a.32.32,0,0,0-.18-.62c-1.76.52-4,1.41-4,3.62a2.09,2.09,0,0,0,.74,1.6c.73.62,1.61.57,2.24,1.38a1.87,1.87,0,0,1-2.17,2.88.32.32,0,0,0-.18.62,2.59,2.59,0,0,0,3.49-2.7,2.76,2.76,0,0,0-1.7-2.12c-1.27-.72-2.39-1.8-1.19-3.21a5.89,5.89,0,0,1,2.93-1.45"/><path class="cls-19" d="M332.84,266.45s-11.6,1.57-17.06,10.67l-11.46,20.54-18-42.46-9.4,5,9.4,52.71s14.25,9.37,15.92,9.84,28.18-13.13,32.83-19.07Z"/><path class="cls-22" d="M296.06,412.17l9.34,178.41a9,9,0,0,0,9,8.67H424.59a9,9,0,0,0,9-8.67l9.34-178.41Z"/><rect class="cls-23" x="288.91" y="392.41" width="161.15" height="19.76"/><polygon class="cls-22" points="442.91 392.41 296.06 392.41 307.45 339.73 431.52 339.73 442.91 392.41"/><path class="cls-4" d="M409.52,382.58H329.45a7.37,7.37,0,0,1-7.37-7.37V364a7.37,7.37,0,0,1,7.37-7.37h80.07a7.37,7.37,0,0,1,7.37,7.37v11.17a7.37,7.37,0,0,1-7.37,7.37"/><path class="cls-5" d="M391.26,507.78A2.8,2.8,0,0,0,391,507l-1.09-2Z"/><path class="cls-5" d="M370.85,481l5.11,1.52,6.61,2,5.11,1.52a3.19,3.19,0,0,0,4.06-2.45l1.18-5.32c.42-1.88,1.1-5,1.52-6.86l1.18-5.32c.42-1.88-.78-2.51-2.65-1.38l-3.2,1.94c-1.18-2.06-2.36-4.09-2.81-4.84-1-1.7-3-3-6.92-3l-15.45.09L371,470.51a2.1,2.1,0,0,1,.4.59c.31.63,1.48,2.82,2.64,5L370.94,478c-1.87,1.13-1.91,2.49-.09,3"/><path class="cls-5" d="M353,462.78c-1.65,2.58-5.86,9.43-5.86,9.43a3.24,3.24,0,0,0,1.07,4.47l10.31,6.19a3.25,3.25,0,0,0,4.45-1.15L369.28,471c.56-.94,1.22-1.08,1.76-.52l-6.45-11.6-3.72,0c-2.68,0-5.75.5-7.91,3.84"/><path class="cls-5" d="M334.74,506.11c1.16,2.3,4.37,8.24,6.72,12.58l7.31-12.21c.86-1.51,2.45-4.29,3.79-6.6l3.73,2.12c1.9,1.08,3.08.43,2.61-1.45l-1.31-5.28-1.68-6.82-1.31-5.29a3.2,3.2,0,0,0-4.12-2.34l-5.08,1.65-6.55,2.14-5.08,1.65c-1.8.59-1.72,1.95.17,3l2.76,1.57c-1.41,2.79-3.07,6.08-3.48,7-.76,1.7-.29,4.65,1.52,8.23"/><path class="cls-5" d="M348.77,506.48l-7.3,12.21c1.31,2.42,2.35,4.36,2.63,4.89.77,1.5,1.88,4.44,8.85,4.4l10.13-.06a3.27,3.27,0,0,0,3.2-3.32l-.06-12.24a3.28,3.28,0,0,0-3.25-3.28l-13.84.08c-1.25,0-1.41-.84-1-1.62l.61-1.06"/><path class="cls-5" d="M391.26,507.78l6,12.34c2.11-4,5.7-10.9,7.16-13.89,2-4,2.52-7.47,1.62-9.3s-5.38-10.69-5.38-10.69a2.91,2.91,0,0,0-4.22-1.2l-10.24,6.44a3.54,3.54,0,0,0-1.18,4.61s3.11,5.72,4.84,8.92l1.09,2a2.8,2.8,0,0,1,.27.76"/><path class="cls-5" d="M395.8,522.89c.24-.42.79-1.43,1.5-2.77l-6-12.34c.13.72-.23,1.21-1.09,1.21l-6.25,0,0-3.83c0-2.22-1.16-2.94-2.52-1.6l-3.85,3.77-5,4.87L368.71,516a3.33,3.33,0,0,0,0,4.82l3.91,3.7c1.39,1.32,3.66,3.47,5.06,4.78l3.9,3.7c1.39,1.32,2.52.57,2.5-1.65l0-3.63,4.78,0c4.35,0,6-3.18,6.94-4.81"/><path class="cls-24" d="M114.09,412.17l9.34,178.41a9,9,0,0,0,9,8.67H242.62a9,9,0,0,0,9-8.67l9.34-178.41Z"/><rect class="cls-25" x="106.94" y="392.41" width="161.15" height="19.76"/><polygon class="cls-24" points="260.94 392.41 114.09 392.41 125.48 339.73 249.55 339.73 260.94 392.41"/><path class="cls-4" d="M227.55,382.58H147.48a7.37,7.37,0,0,1-7.37-7.37V364a7.37,7.37,0,0,1,7.37-7.37h80.07a7.37,7.37,0,0,1,7.37,7.37v11.17a7.37,7.37,0,0,1-7.37,7.37"/><path class="cls-5" d="M209.29,507.78A2.8,2.8,0,0,0,209,507c-.14-.26-.55-1-1.08-2Z"/><path class="cls-5" d="M188.88,481l5.11,1.52,6.61,2,5.11,1.52a3.21,3.21,0,0,0,4.07-2.45l1.17-5.32c.42-1.88,1.1-5,1.52-6.86l1.18-5.32c.42-1.88-.77-2.51-2.64-1.38l-3.21,1.94c-1.18-2.06-2.35-4.09-2.81-4.84-1-1.7-3-3-6.92-3l-15.45.09,6.45,11.59a2.1,2.1,0,0,1,.4.59c.31.63,1.48,2.82,2.64,5L189,478c-1.88,1.13-1.92,2.49-.1,3"/><path class="cls-5" d="M171,462.78c-1.65,2.58-5.85,9.43-5.85,9.43a3.23,3.23,0,0,0,1.06,4.47l10.31,6.19a3.25,3.25,0,0,0,4.45-1.15L187.31,471c.56-.94,1.23-1.08,1.76-.52l-6.45-11.6-3.72,0c-2.68,0-5.75.5-7.91,3.84"/><path class="cls-5" d="M152.77,506.11c1.16,2.3,4.37,8.24,6.73,12.58l7.3-12.21c.86-1.51,2.46-4.29,3.79-6.6l3.74,2.12c1.89,1.08,3.07.43,2.6-1.45l-1.3-5.28c-.47-1.87-1.23-4.95-1.69-6.82l-1.31-5.29a3.2,3.2,0,0,0-4.12-2.34l-5.07,1.65-6.56,2.14-5.07,1.65c-1.81.59-1.73,1.95.17,3l2.75,1.57c-1.41,2.79-3.06,6.08-3.48,7-.76,1.7-.29,4.65,1.52,8.23"/><path class="cls-5" d="M166.8,506.48l-7.3,12.21c1.31,2.42,2.36,4.36,2.63,4.89.77,1.5,1.88,4.44,8.85,4.4l10.13-.06a3.27,3.27,0,0,0,3.2-3.32l-.06-12.24a3.28,3.28,0,0,0-3.25-3.28l-13.84.08c-1.24,0-1.4-.84-1-1.62l.61-1.06"/><path class="cls-5" d="M209.29,507.78l6,12.34c2.11-4,5.7-10.9,7.17-13.89,2-4,2.51-7.47,1.61-9.3s-5.38-10.69-5.38-10.69a2.91,2.91,0,0,0-4.22-1.2l-10.24,6.44a3.54,3.54,0,0,0-1.18,4.61l4.85,8.92c.53,1,.94,1.75,1.08,2a2.8,2.8,0,0,1,.27.76"/><path class="cls-5" d="M213.83,522.89c.24-.42.79-1.43,1.5-2.77l-6-12.34c.13.72-.23,1.21-1.09,1.21L202,509l0-3.83c0-2.22-1.15-2.94-2.52-1.6l-3.84,3.77-5,4.87L186.74,516a3.34,3.34,0,0,0,0,4.82l3.91,3.7,5.06,4.78,3.91,3.7c1.39,1.32,2.51.57,2.49-1.65l0-3.63,4.79,0c4.34,0,6-3.18,6.93-4.81"/><path class="cls-26" d="M470.43,409.89l9.33,178.41a9,9,0,0,0,9,8.67H599a9,9,0,0,0,9-8.67l9.33-178.41Z"/><rect class="cls-27" x="463.27" y="390.13" width="161.15" height="19.76"/><polygon class="cls-26" points="617.27 390.13 470.43 390.13 481.82 337.46 605.88 337.46 617.27 390.13"/><path class="cls-4" d="M583.89,380.3H503.81a7.37,7.37,0,0,1-7.37-7.37V361.76a7.37,7.37,0,0,1,7.37-7.37h80.08a7.37,7.37,0,0,1,7.37,7.37v11.17a7.37,7.37,0,0,1-7.37,7.37"/><path class="cls-5" d="M565.63,505.5a2.68,2.68,0,0,0-.28-.75c-.13-.27-.54-1-1.08-2Z"/><path class="cls-5" d="M545.21,478.74l5.12,1.52,6.6,2,5.12,1.52a3.2,3.2,0,0,0,4.06-2.45l1.18-5.31c.41-1.89,1.1-5,1.52-6.87l1.17-5.31c.42-1.89-.77-2.51-2.64-1.39l-3.21,1.94c-1.17-2.05-2.35-4.09-2.8-4.84-1-1.69-3-3-6.92-3l-15.45.09,6.45,11.6a2.1,2.1,0,0,1,.4.58c.31.63,1.48,2.83,2.64,5l-3.14,1.89c-1.87,1.13-1.91,2.5-.1,3"/><path class="cls-5" d="M527.33,460.51c-1.66,2.57-5.86,9.42-5.86,9.42a3.24,3.24,0,0,0,1.07,4.47l10.3,6.19a3.27,3.27,0,0,0,4.46-1.15l6.35-10.68c.55-.94,1.22-1.08,1.76-.52L539,456.64l-3.73,0c-2.68,0-5.75.49-7.9,3.84"/><path class="cls-5" d="M509.1,503.83c1.16,2.31,4.38,8.24,6.73,12.59l7.31-12.22c.86-1.5,2.45-4.29,3.78-6.6l3.74,2.13c1.9,1.08,3.07.42,2.61-1.45L532,493c-.46-1.87-1.22-4.94-1.69-6.82l-1.3-5.28a3.2,3.2,0,0,0-4.12-2.35l-5.08,1.66-6.56,2.13L508.14,484c-1.8.59-1.73,2,.17,3l2.76,1.57c-1.41,2.79-3.07,6.08-3.49,7-.75,1.71-.28,4.65,1.52,8.23"/><path class="cls-5" d="M523.14,504.2l-7.31,12.22c1.31,2.42,2.36,4.35,2.64,4.88.77,1.5,1.87,4.44,8.84,4.4l10.14-.06a3.27,3.27,0,0,0,3.2-3.32l-.07-12.23a3.26,3.26,0,0,0-3.24-3.28l-13.84.08c-1.25,0-1.41-.84-1-1.63.06-.11.28-.5.61-1.06"/><path class="cls-5" d="M565.63,505.5l6,12.34c2.12-4,5.7-10.9,7.17-13.89,2-4,2.52-7.47,1.61-9.29s-5.37-10.7-5.37-10.7a2.93,2.93,0,0,0-4.23-1.2l-10.23,6.44a3.53,3.53,0,0,0-1.18,4.61s3.11,5.72,4.84,8.93c.54,1,1,1.74,1.08,2a2.68,2.68,0,0,1,.28.75"/><path class="cls-5" d="M570.17,520.61c.24-.41.78-1.43,1.5-2.77l-6-12.34c.12.72-.23,1.21-1.1,1.21l-6.24,0,0-3.82c0-2.23-1.15-2.95-2.52-1.61l-3.84,3.77-5,4.87-3.84,3.77a3.34,3.34,0,0,0,0,4.83l3.91,3.7,5.05,4.78,3.91,3.7c1.39,1.31,2.51.57,2.49-1.65l0-3.64,4.78,0c4.35,0,6-3.17,6.94-4.81"/><path class="cls-15" d="M776.13,266.5c-1.25-1.64-2.49-3.29-3.74-4.94l.84-5.39-1.05-.76-1,1.26c-.19-1.56-.39-3.12-.58-4.68l-2.79-2.62-5,1-3.44,4,1.5,4.83c1.52,1.64,2.92,2.39,4.46,4.24s3.23,4.79,4.8,6.85c2-1.22,4-2.51,6-3.76"/><path class="cls-12" d="M775.84,259.7c6.21,6.68,12.51,13.29,18.24,20.42,3.54,4.41,8.39,16.83,14.61,12.23l21-15.58a14.67,14.67,0,0,1,3.88-2.3c8.3-2.83,12.33,8.65,14.18,14.93a45.56,45.56,0,0,1,1.7,6c.44,2,.83,4.22.15,6.12-.82,2.28-3,3.66-5,4.82A121.2,121.2,0,0,1,802,320.89c-5.55.79-5.91-.26-8.42-5.41-8.85-18.14-19.05-30.15-27.43-48.53l9.67-7.25"/><path class="cls-16" d="M486,223.74l-2.21-21.3a5.16,5.16,0,0,0-5.43-4.59l-4.72.28a5.15,5.15,0,0,0-4.86,5.18l.26,21.41a5.09,5.09,0,0,1-3.11,4.76,13.44,13.44,0,0,0-8.34,13.17l4.69,81a5.14,5.14,0,0,0,5.44,4.85l31.54-1.82a5.15,5.15,0,0,0,4.85-5.45l-4.68-81a13.43,13.43,0,0,0-9.79-12.12,5.1,5.1,0,0,1-3.64-4.37"/><rect class="cls-9" x="467.1" y="197.38" width="17.88" height="4.28" transform="translate(-10.72 27.81) rotate(-3.31)"/><path class="cls-5" d="M498.21,268.34l-2.66.15-1.39-24.06c-1.11-9.84-6.66-9.89-6.89-9.89l-.08-2.66c.33,0,8.22-.15,9.62,12.32Z"/><path class="cls-19" d="M226,571.7a7.72,7.72,0,0,0-7.72,7.72v27.34a7.72,7.72,0,0,0,7.72,7.72h23.73a21.23,21.23,0,0,0,12.88-4.38,19.49,19.49,0,0,0,12.3,4.38h37.52a6,6,0,0,0,5.95-6V577.65a6,6,0,0,0-5.95-5.95H274.86a19.49,19.49,0,0,0-12.3,4.38,21.23,21.23,0,0,0-12.88-4.38Z"/><rect class="cls-19" x="210.42" y="584.48" width="8.38" height="17.22"/><rect class="cls-9" x="200.94" y="583.14" width="11.1" height="19.9"/><rect class="cls-28" x="276.16" y="575.82" width="2.28" height="34.55"/><rect class="cls-28" x="288.5" y="575.82" width="2.28" height="34.55"/><rect class="cls-28" x="300.08" y="575.82" width="2.28" height="34.55"/><path class="cls-12" d="M181.88,138.73a8.6,8.6,0,0,0-12-2l-24.82,17.63a8.6,8.6,0,0,0-2,12l15.31,21.55a23.71,23.71,0,0,0,12.28,8.87,21.79,21.79,0,0,0,4,14L198.8,244.8a6.63,6.63,0,0,0,9.24,1.56l28-19.91a6.62,6.62,0,0,0,1.57-9.24l-24.21-34.07a21.72,21.72,0,0,0-11.9-8.35,23.65,23.65,0,0,0-4.34-14.52Z"/><rect class="cls-12" x="145.56" y="137.56" width="19.18" height="9.33" transform="translate(-53.7 116.14) rotate(-35.39)"/><rect class="cls-8" x="138.83" y="128.68" width="22.16" height="12.36" transform="translate(-50.4 111.74) rotate(-35.39)"/><rect class="cls-28" x="176.35" y="197.89" width="38.48" height="2.54" transform="translate(-79.2 150.08) rotate(-35.39)"/><rect class="cls-28" x="184.31" y="209.09" width="38.48" height="2.54" transform="translate(-84.22 156.76) rotate(-35.39)"/><rect class="cls-28" x="191.78" y="219.6" width="38.48" height="2.54" transform="translate(-88.93 163.03) rotate(-35.39)"/><polygon class="cls-10" points="458.58 290.48 461.73 287.39 464.98 291.55 468.45 292.14 472.48 299.14 467.76 305.97 458.26 307.93 455.14 296.22 458.58 290.48"/><path class="cls-29" d="M678.18,207.83,794,190.72l18.22-27.58-114.77,17s-18.59,28.7-19.26,27.74"/><polygon class="cls-30" points="703.95 186.81 775.48 176.25 778.04 193.62 705.4 204.34 703.95 186.81"/><path class="cls-31" d="M691.54,154.54s1.23,6.23,6.39,17.79l28.63,68.85-7.81,3.25-35.88-86.28Z"/><path class="cls-31" d="M691.54,154.54c1.25,3-3.43,7.82-10.45,10.74s-13.73,2.85-15-.16,3.42-7.83,10.44-10.75,13.73-2.84,15,.17"/><path class="cls-32" d="M673,159.86l3,7.13a26.45,26.45,0,0,0,4.34-1.38c4.79-2,8.88-4.51,9-7.75-1.84-3.74-12.08.17-16.34,2"/><path class="cls-28" d="M680.85,165.38a28.5,28.5,0,0,1-7,1.89c-3.92.49-7-.23-7.75-2.15l19.22,46.21L702,251.4l22.38-9.31L690,159.35l-.62-1.49c-.15,3.12-3.94,5.56-8.49,7.52"/><path class="cls-31" d="M823.32,133.85s-3.55,6.31-8.68,19.93L783,233.55l-6.16-2.44,39.61-100Z"/><path class="cls-31" d="M823.32,133.85c-1.38,3.49-7,4.54-12.53,2.35s-8.92-6.81-7.53-10.3,7-4.54,12.53-2.34,8.92,6.8,7.53,10.29"/><path class="cls-32" d="M810.29,126,807,134.22a14.34,14.34,0,0,0,3.14,1.73c3.78,1.5,7.56,2.06,9.82-.68,1.56-4.52-6.28-8-9.69-9.31"/><path class="cls-28" d="M810.6,136.12a15.52,15.52,0,0,1-4.84-3.08c-2.32-2.22-3.39-4.91-2.5-7.14L782,179.45l-18.4,46.42,17.66,7,38-95.87.69-1.73c-2.18,2.64-5.75,2.21-9.38.85"/><path class="cls-31" d="M796.82,127.48s-1.89,7-3.51,21.45l-11,85.09-6.58-.85,13.84-106.64Z"/><path class="cls-31" d="M796.82,127.48c-.48,3.72-5.66,6.12-11.57,5.35s-10.31-4.41-9.83-8.13,5.66-6.12,11.58-5.35,10.31,4.41,9.82,8.13"/><path class="cls-32" d="M782.26,123l-1.15,8.81a15.1,15.1,0,0,0,3.47.91c4,.52,7.83.14,9.35-3.07.41-4.78-8.06-6.24-11.67-6.65"/><path class="cls-28" d="M785.05,132.8A15.62,15.62,0,0,1,779.6,131c-2.8-1.59-4.49-3.93-4.18-6.31L768,181.82l-6.43,49.52,18.84,2.44,13.27-102.26.24-1.84c-1.46,3.08-5,3.55-8.88,3.12"/><path class="cls-33" d="M740.75,144.57s-1.74,7-2,21.28l-3.93,84.27-9.56-.44,4.92-105.61Z"/><path class="cls-33" d="M740.75,144.57c-.17,3.68-7.28,6.35-15.87,6s-15.42-3.72-15.25-7.4,7.28-6.35,15.87-6,15.42,3.71,15.25,7.4"/><path class="cls-34" d="M719.21,141.07l-.4,8.72a29.63,29.63,0,0,0,5.11.68c5.85.28,11.26-.32,13-3.57-.09-4.71-12.45-5.65-17.7-5.83"/><path class="cls-35" d="M724.59,150.5a31.67,31.67,0,0,1-8.07-1.44c-4.24-1.39-7-3.59-6.89-5.94L707,199.68l-2.28,49L732.1,250l4.72-101.28.09-1.82c-1.67,3.12-6.73,3.79-12.32,3.6"/><rect class="cls-36" x="683.57" y="198.83" width="117.07" height="82.42" transform="translate(-27.11 111) rotate(-8.4)"/><polygon class="cls-37" points="678.18 207.83 676.29 243.74 790.54 226.86 793.93 190.18 678.18 207.83"/><polygon class="cls-38" points="812.1 162.41 823.41 239.01 805.92 271.53 793.88 189.99 812.1 162.41"/><polygon class="cls-39" points="793.99 190.72 808.65 214.53 826.95 185.83 812.21 163.14 793.99 190.72"/><path class="cls-16" d="M726.33,200.75s21-3.62,30.26,13.06c0,0,23.59-22.6,29.35-22.56L768,181.82l-12.89,5.76Z"/><path class="cls-40" d="M272.6,266.72l-.61.71a1.8,1.8,0,0,1,.08.21,4.27,4.27,0,0,0,.53-.92"/><path class="cls-40" d="M262.38,256.22c-4.8-1.73-10.13,0-14.72,2.25a76.08,76.08,0,0,0-18,12.15c-4.46,4-9,8.89-15,9.35-2.66.21-5.31-.51-8-.57s-5.66.76-7,3.08c-1.51,2.66-.19,6,1.44,8.61,2.48,3.93,5.9,7.52,10.33,8.91a21.59,21.59,0,0,0,9.06.43c13.93-1.73,26.44-8.93,36.91-18,7-6.09,19.53-21,5-26.22"/><path class="cls-41" d="M272.31,260.86c-.06.31-.14.61-.2.92l.17.14a4.11,4.11,0,0,0,0-1.06"/><path class="cls-41" d="M258.41,256.25c-5.06.67-9,4.69-12,8.78A76.19,76.19,0,0,0,236,284.11c-2.09,5.63-3.9,12-9,15.21-2.27,1.41-4.95,2-7.35,3.17s-4.68,3.28-4.78,5.95c-.11,3.06,2.6,5.43,5.24,7,4,2.34,8.71,4,13.28,3.15a21.65,21.65,0,0,0,8.24-3.8c11.57-7.94,19.35-20.09,24.48-33,3.44-8.64,7.68-27.61-7.67-25.56"/><path class="cls-41" d="M259.36,260.17c-.09.3-.17.6-.26.9l-.21,0a3.93,3.93,0,0,1,.47-.94"/><path class="cls-41" d="M273.76,262.87c4.1,3.05,5.57,8.46,6.27,13.52a76.36,76.36,0,0,1-.16,21.72c-.9,5.95-2.42,12.43.51,17.68,1.3,2.33,3.36,4.15,4.89,6.34s2.5,5.13,1.29,7.51c-1.38,2.73-4.9,3.49-8,3.57-4.65.1-9.53-.76-13.14-3.69a21.44,21.44,0,0,1-5.37-7.31c-6.27-12.56-7.19-26.95-5.43-40.7,1.18-9.22,6.67-27.87,19.1-18.64"/><path class="cls-41" d="M267.45,266.8l-6.69-4.18a2.51,2.51,0,0,1-.8-3.47l5.3-8.49a2.52,2.52,0,0,1,3.47-.81l6.69,4.17a2.53,2.53,0,0,1,.8,3.48L270.93,266a2.54,2.54,0,0,1-3.48.81"/></g></g></svg>